<svg width="37" height="12" viewBox="0 0 37 12" fill="none" xmlns="http://www.w3.org/2000/svg">
<path fill-rule="evenodd" clip-rule="evenodd" d="M6.05319 9.25463H2.47443V6.62769H6.05319C7.01758 6.62769 7.66904 7.21435 7.66904 7.94116C7.66904 8.66695 7.01758 9.25463 6.05319 9.25463ZM8.51772 5.60297C9.36708 5.25087 10.0703 4.45927 10.0703 3.14479C10.0703 1.1874 8.39164 0 6.36694 0H0.111005C0.049726 0 0 0.0502283 0 0.110502V1.8911C0 1.95087 0.049726 2.0021 0.111005 2.0021H5.93247C6.87224 2.0021 7.50763 2.57521 7.50763 3.28142C7.50763 3.98963 6.87224 4.56224 5.93247 4.56224H2.47425V3.24224C2.47425 3.18096 2.42402 3.13224 2.36274 3.13224H0.111005C0.049726 3.13224 0 3.18096 0 3.24224V11.0944C0 11.1562 0.049726 11.2069 0.111005 11.2069H6.27553C8.58 11.2069 10.231 10.1316 10.231 7.9411C10.231 6.8637 9.59562 5.97215 8.51772 5.60297ZM34.3802 2.00178H35.323C35.3828 2.00178 35.4325 1.95055 35.4325 1.89078V0.110183C35.4325 0.0499091 35.3828 0.000183105 35.323 0.000183105H33.9975C32.466 0.000183105 31.6548 0.488905 31.1907 1.53014L28.3106 8.5842C28.1368 9.00612 27.8847 9.20553 27.3884 9.20553V0.110183C27.3884 0.0499091 27.3382 0.000183105 27.2769 0.000183105H25.1613C25.0995 0.000183105 25.0498 0.0499091 25.0498 0.110183V11.0107C25.0498 11.1177 25.1377 11.2066 25.2467 11.2066H27.62C29.1514 11.2066 29.8496 10.7174 30.3137 9.67767L33.1556 2.71201C33.3837 2.21676 33.7132 2.00178 34.3802 2.00178ZM32.9409 6.43777L36.5704 11.0769C36.6146 11.1351 36.582 11.2069 36.5081 11.2069H33.9525C33.7627 11.2069 33.6351 11.1502 33.5241 11.0015L31.9374 8.87484C31.9278 8.86229 31.9278 8.84571 31.9338 8.83165L32.9103 6.44279C32.9163 6.42621 32.9314 6.4232 32.9409 6.43777ZM14.2035 3.1322H12.0864C12.0236 3.1322 11.9749 3.18143 11.9749 3.2427V11.0949C11.9749 11.1567 12.0236 11.2069 12.0864 11.2069H14.2035C14.2653 11.2069 14.316 11.1567 14.316 11.0949V3.2427C14.316 3.18143 14.2653 3.1322 14.2035 3.1322ZM20.8009 3.05176e-05H22.9175C22.9783 3.05176e-05 23.029 0.0502588 23.029 0.110533V11.0106C23.029 11.1181 22.9401 11.207 22.8321 11.207H20.4588C18.9268 11.207 18.2282 10.7172 17.7646 9.67802L14.9231 2.71186C14.6946 2.21661 14.3671 2.00163 13.6986 2.00163H12.0863C12.0235 2.00163 11.9742 1.9509 11.9742 1.89113V0.110533C11.9742 0.0502588 12.0235 3.05176e-05 12.0863 3.05176e-05H14.0793C15.6108 3.05176e-05 16.424 0.489254 16.8871 1.52998L19.7667 8.58455C19.941 9.00647 20.1921 9.20537 20.6894 9.20537V0.110533C20.6894 0.0502588 20.7391 3.05176e-05 20.8009 3.05176e-05Z" fill="#D61920"/>
</svg>
