<svg width="40" height="40" viewBox="0 0 40 40" fill="none" xmlns="http://www.w3.org/2000/svg">
<path fill-rule="evenodd" clip-rule="evenodd" d="M20.1788 1.8309L20.1197 33.7633L3.45294 33.9463L3.33398 38.0901L36.6673 38.3337L36.6077 34.1289L23.6909 34.0068L23.8101 29.5585C23.8101 29.5585 22.5601 29.4365 24.7625 29.4975V29.4975C26.9649 29.5585 33.2872 28.1559 33.3936 21.5143V21.5143C33.453 17.7971 30.5957 15.0547 30.5957 15.0547V15.0547C30.5957 15.0547 32.441 14.4455 32.3814 10.3013V10.3013C32.3218 6.15748 28.691 2.0137 22.7982 1.70888V1.70888C22.2195 1.67886 21.7683 1.66699 21.4166 1.66699V1.66699C20.1065 1.66699 20.1788 1.8309 20.1788 1.8309M23.751 25.963V5.91386C23.751 5.91386 28.7511 5.85284 28.7511 10.3012V10.3012C28.7511 14.75 25.0008 15.603 25.0008 15.603V15.603C25.0008 15.603 29.7632 16.0299 29.7036 21.2094V21.2094C29.6523 25.657 25.3009 25.9715 24.0712 25.9715V25.9715C23.8687 25.9715 23.751 25.963 23.751 25.963M7.02457 10.1795C6.72707 14.3846 8.92925 16.7001 11.0125 18.5283V18.5283C13.0959 20.3565 13.9296 21.6364 13.9296 22.9159V22.9159C13.9296 25.9632 8.63175 29.5586 8.63175 29.5586V29.5586L13.453 29.7414C13.453 29.7414 17.6197 27.6693 17.7985 22.5503V22.5503C17.9771 17.4313 10.8938 15.1158 10.8938 10.1795V10.1795C10.8938 5.24357 17.4412 5.67017 17.4412 5.67017V5.67017L17.6197 1.89199C17.6197 1.89199 16.6712 1.70895 16.1914 1.70895V1.70895C10.3579 1.70895 7.32207 5.97475 7.02457 10.1795" fill="url(#paint0_linear_1408_1623)"/>
<defs>
<linearGradient id="paint0_linear_1408_1623" x1="4.43719" y1="4.09405" x2="4.43719" y2="38.3337" gradientUnits="userSpaceOnUse">
<stop stop-color="#B3D56F"/>
<stop offset="0.479154" stop-color="#00AD52"/>
<stop offset="1" stop-color="#0079AC"/>
</linearGradient>
</defs>
</svg>
