<svg width="40" height="40" viewBox="0 0 40 40" fill="none" xmlns="http://www.w3.org/2000/svg">
<path fill-rule="evenodd" clip-rule="evenodd" d="M36.7005 31.9354C36.7005 34.5654 34.5696 36.6976 31.9395 36.6976H8.12879C5.49962 36.6976 3.36719 34.5654 3.36719 31.9354V8.12567C3.36719 5.49575 5.49962 3.36426 8.12879 3.36426H31.9395C34.5696 3.36426 36.7005 5.49575 36.7005 8.12567V31.9354Z" fill="#FFE400"/>
<path fill-rule="evenodd" clip-rule="evenodd" d="M20.4032 24.2567H18.8459V15.6752H20.3858C20.3858 15.6752 20.3794 15.6713 20.3855 15.6713C20.3856 15.6726 20.3857 15.6739 20.3858 15.6752H20.4032V24.2567ZM27.035 23.6101C26.8549 22.3087 26.2543 21.2112 25.2504 20.3471C25.102 20.2194 24.9468 20.0998 24.772 19.9579C24.9163 19.8493 25.0379 19.7657 25.1507 19.6717C25.8674 19.075 26.3951 18.3452 26.7402 17.4753C27.068 16.6487 27.1503 15.7911 27.0331 14.9275C26.8892 13.8683 26.442 12.9307 25.711 12.1369C25.1843 11.5649 24.5702 11.1135 23.8503 10.8199C23.1569 10.5372 22.4456 10.4092 21.6792 10.4092L13.3465 10.4107C13.2888 10.4107 13.2307 10.4079 13.1736 10.4143C12.9693 10.4375 12.8491 10.5673 12.84 10.7722C12.8374 10.8297 12.8397 10.8875 12.8397 10.9451C12.8397 16.9386 12.8396 22.932 12.8397 28.9255C12.8397 29.0161 12.8347 29.107 12.8414 29.1971C12.8532 29.3552 12.9615 29.4721 13.118 29.498C13.1743 29.5074 13.233 29.5044 13.2906 29.5044L21.9201 29.5045C22.8062 29.5051 23.6342 29.282 24.3979 28.8435C25.4923 28.2151 26.2738 27.314 26.7399 26.133C27.0634 25.3132 27.1533 24.4646 27.035 23.6101V23.6101Z" fill="#1E1719"/>
</svg>
