<svg width="40" height="40" viewBox="0 0 40 40" fill="none" xmlns="http://www.w3.org/2000/svg">
<path fill-rule="evenodd" clip-rule="evenodd" d="M37.3912 8.38537C37.82 8.36946 38.2203 8.66758 38.2203 9.12313C38.2203 9.48907 37.8543 9.80478 37.6031 9.9957C36.208 11.081 34.6035 11.9184 32.9764 12.5883C28.225 14.5553 22.9456 15.234 17.8651 15.8871C17.627 15.9178 17.3892 15.9483 17.152 15.979C14.0435 16.3885 10.9292 16.6874 7.80316 16.8867C6.64503 16.9604 5.48354 16.3432 4.51215 15.7612C3.51062 15.1684 2.54844 14.3795 1.9991 13.337C1.54104 12.4619 1.48242 11.1404 2.29135 10.4462C2.90266 9.9195 3.84725 9.94713 4.60176 10.0007C5.21021 10.0478 5.81002 10.1557 6.41034 10.2636C6.68663 10.3133 6.96303 10.3631 7.24042 10.4069C7.86909 10.5042 8.49977 10.615 9.12999 10.7256C9.90924 10.8625 10.6878 10.9992 11.4609 11.1103C19.6382 12.2902 28.3925 11.7291 36.1485 8.77895C36.2447 8.7424 36.3412 8.7018 36.4382 8.66095C36.7458 8.53146 37.0596 8.39938 37.3912 8.38537ZM25.1634 21.5754C25.3677 22.0284 25.5051 22.52 25.5896 23.0249C25.8149 24.3405 25.6826 25.7657 25.454 27.0135C25.2907 27.9237 25.0403 28.8173 24.7514 29.6932C23.981 32.0522 22.8488 34.3366 21.081 36.1161C20.7879 36.4142 20.4203 36.688 19.9748 36.5088C19.8676 36.4653 19.7738 36.3975 19.7069 36.3028C19.5791 36.1068 19.6549 35.8547 19.7193 35.6407C19.7275 35.6134 19.7355 35.5867 19.7429 35.5609C19.83 35.2686 19.9112 34.9714 19.9882 34.6732C20.757 31.7825 21.4746 28.6674 21.3306 25.6569C21.2979 24.9644 21.2134 24.2618 20.9127 23.6421C20.6096 23.0191 20.0502 22.4907 19.3677 22.3818C18.9783 22.3148 18.573 22.3944 18.2179 22.5669C18.0505 22.6514 17.8914 22.7553 17.7574 22.8859C17.5363 23.0936 17.3822 23.3724 17.2767 23.6588C16.9359 24.5574 17.0556 25.4576 17.2089 26.3779C17.3303 27.0989 17.2147 27.902 16.5582 28.3299C16.0516 28.6565 15.3791 28.6808 14.8164 28.4622C14.2495 28.2445 13.7864 27.8048 13.4699 27.289C12.4909 25.7138 12.47 23.3909 13.0126 21.6666C13.1265 21.3124 13.2597 20.9641 13.4297 20.6358C13.9221 19.6627 14.6891 18.8505 15.6245 18.2886C17.6854 17.0358 20.2034 17.0291 22.2877 18.2442C23.6268 19.023 24.5236 20.1895 25.1634 21.5754Z" fill="#009490"/>
<path fill-rule="evenodd" clip-rule="evenodd" d="M15.9668 6.46156C15.9668 8.14893 17.3343 9.5139 19.0183 9.5139C20.7023 9.5139 22.0698 8.14893 22.0698 6.46156C22.0698 6.21033 22.0087 5.95744 21.9048 5.72966C21.6461 5.17614 21.3488 4.90566 21.3781 4.24076C21.4166 3.34641 20.2677 3.33301 19.648 3.33301C18.9739 3.33301 18.2621 3.4268 17.65 3.73161C17.1635 3.97781 16.7456 4.35381 16.45 4.81019C16.146 5.27914 15.9785 5.83266 15.9668 6.39289V6.46156" fill="#EC1651"/>
</svg>
