<svg width="40" height="40" viewBox="0 0 40 40" fill="none" xmlns="http://www.w3.org/2000/svg">
<path fill-rule="evenodd" clip-rule="evenodd" d="M10.5492 2.21697C9.56317 2.70933 8.82859 3.55644 8.48143 4.60221L1.87978 24.4428C1.52998 25.4853 1.61182 26.6073 2.10814 27.5976C2.60149 28.5767 3.44926 29.3133 4.4914 29.6617L26.141 36.9303C27.1908 37.2788 28.3115 37.1993 29.2962 36.7049C30.2819 36.207 31.0181 35.3645 31.361 34.3157L37.9656 14.4811C38.6886 12.3206 37.5128 9.97626 35.3523 9.25653L13.7047 1.98993C12.653 1.6431 11.5395 1.71867 10.5492 2.21697" fill="#FEFEFE"/>
<path fill-rule="evenodd" clip-rule="evenodd" d="M10.9551 25.2435H12.447V14.9369H10.9551V25.2435ZM21.1317 21.2719C19.9559 22.584 18.4897 23.6426 16.7902 24.299L15.8131 24.6775V15.485L16.7783 15.8589C18.4801 16.5087 19.9499 17.5677 21.1317 18.8735C21.9728 17.5198 22.4952 15.9493 22.6025 14.2413C22.8698 9.83444 20.1096 5.79062 16.3183 4.38317L13.1905 3.34235C11.7791 2.8721 10.2766 3.65057 9.81101 5.05802L3.19055 24.9098C2.7203 26.3229 3.5123 27.8557 4.92536 28.3204L19.9499 33.3367C21.4818 31.7078 22.4754 29.5496 22.6206 27.1423C22.7533 24.9943 22.1933 22.9691 21.1317 21.2719V21.2719Z" fill="#198FCA"/>
<path fill-rule="evenodd" clip-rule="evenodd" d="M20.266 20.0731C19.4271 19.0897 18.413 18.2634 17.2422 17.6582V22.5026C18.413 21.8961 19.4327 21.0598 20.266 20.0731" fill="#E95705"/>
<path fill-rule="evenodd" clip-rule="evenodd" d="M31.2194 25.211L29.3569 25.2163L25.5253 20.062L29.4173 14.9094L31.296 14.9021L27.395 20.0696L31.2194 25.211ZM34.872 10.5814L21.084 5.97363C22.9359 8.00082 24.0692 10.6943 24.0744 13.6442C24.0774 15.9759 23.3504 18.2064 22.0852 20.0732C23.355 21.9344 24.0863 24.1632 24.0926 26.495C24.0936 29.2802 23.0927 31.8463 21.4262 33.8332L26.6042 35.5614C28.0203 36.0323 29.5152 35.2539 29.9861 33.8421L36.6098 13.9923C37.0788 12.5816 36.2861 11.05 34.872 10.5814V10.5814Z" fill="#015198"/>
</svg>
