<svg width="40" height="40" viewBox="0 0 40 40" fill="none" xmlns="http://www.w3.org/2000/svg">
<rect width="40" height="40" rx="8" fill="#6A6055"/>
<path fill-rule="evenodd" clip-rule="evenodd" d="M29.4601 19.2666C27.6244 19.6358 26.9503 20.6929 26.467 20.4474C26.0449 20.1035 26.5064 18.1466 26.606 17.3593C26.7346 16.3276 25.3459 15.6976 24.8719 16.9636C24.4799 18.2277 24.6645 22.7006 24.7516 23.4909C24.8439 24.339 26.329 24.3055 26.4856 23.569C26.5323 23.3377 26.6526 22.8528 26.998 22.1751C28.48 19.3812 31.721 20.6108 31.4026 22.5718C30.854 25.5747 25.2826 25.5108 24.5483 24.8706C23.449 24.0884 19.9674 21.7784 16.603 19.5881C16.6072 19.4329 16.6134 19.2666 16.6206 19.1113C21.3011 16.3763 26.0158 13.6077 26.606 13.0893C27.5362 12.2625 26.5064 10.7905 25.3127 11.7349C24.5162 12.3741 20.7359 14.8352 16.7441 17.3634C17.0158 14.3087 17.4991 12.5526 17.7117 11.7461C18.1068 10.2436 15.9558 9.68059 15.5897 11.1962C14.983 13.6949 14.647 16.0597 14.4811 18.2186C12.2098 16.7628 10.2631 15.5332 9.53094 15.1447C7.41108 14.0105 7.19017 16.0922 8.03438 16.4848C8.43886 16.6786 10.5805 17.971 13.2075 19.5861C10.5649 21.2408 8.20447 22.6803 7.0149 23.3631C6.22462 24.0093 6.90497 24.8706 7.7191 24.3908C9.0269 23.569 11.5626 22.0787 14.3628 20.4352C14.255 24.8158 14.869 27.9871 15.3502 28.9743C15.9787 30.2434 17.0137 29.6895 16.8478 28.4995C16.6237 25.8699 16.5418 23.5974 16.5511 21.6486C20.6094 24.1564 24.652 26.6825 25.0306 26.9179C25.9712 27.5032 26.8403 26.8357 26.9212 26.364C30.1944 26.0586 32.4677 25.4884 33.1989 22.8995C33.9508 20.2526 31.4088 18.876 29.4601 19.2666" fill="#FCB813"/>
</svg>
