<svg width="40" height="40" viewBox="0 0 40 40" fill="none" xmlns="http://www.w3.org/2000/svg">
<path fill-rule="evenodd" clip-rule="evenodd" d="M19.9785 6.66699C8.94048 6.66699 1.66602 12.4598 1.66602 19.6079C1.66602 26.7543 8.94048 32.548 19.9785 32.548C31.0183 32.548 38.2944 26.7543 38.2944 19.6079C38.2944 12.4598 31.0183 6.66699 19.9785 6.66699" fill="#FEFEFE"/>
<path fill-rule="evenodd" clip-rule="evenodd" d="M23.2428 24.4435C26.3873 23.8977 37.005 21.7126 35.6969 15.6537C35.226 13.4804 32.9904 11.0899 29.6177 9.42791C26.9222 8.21494 23.632 7.51074 19.9367 7.51074C9.68872 7.51074 2.5625 12.9262 2.5625 19.6076C2.5625 24.2607 6.022 28.3006 11.5848 30.3222C12.765 27.2157 17.4652 25.4459 23.2428 24.4435" fill="#0075C1"/>
<path fill-rule="evenodd" clip-rule="evenodd" d="M20.0001 26.5867C15.4051 27.1637 13.2967 28.6479 11.9414 30.4505V30.4505C14.2831 31.2516 16.9778 31.7031 19.9344 31.7031V31.7031C30.1832 31.7031 37.3094 26.2894 37.3094 19.6079V19.6079C37.3094 19.0157 37.253 18.4337 37.1434 17.8643V17.8643C36.804 25.709 25.028 25.9625 20.0001 26.5867" fill="url(#paint0_linear_1408_1683)"/>
<path fill-rule="evenodd" clip-rule="evenodd" d="M24.2394 22.9051C24.1881 22.3374 24.167 21.9499 24.167 21.6163V18.2267H22.5345L22.5868 18.3312C22.5884 18.3337 22.7527 18.6588 22.7527 19.3698L22.7527 19.3759C22.753 19.5097 22.757 21.7388 22.6929 22.2775C22.2987 22.3786 21.7714 22.4148 21.4294 22.4148C18.8392 22.4148 17.5243 20.9273 17.5243 17.9968C17.5243 15.7595 19.0043 14.0891 21.1219 13.9358C22.2363 13.8566 23.3086 14.1599 23.9842 14.7462L24.1021 14.8489V13.4793L24.0457 13.4683C23.3727 13.3386 22.5826 13.2021 21.8093 13.2021C18.0802 13.2021 15.8522 15.1656 15.8522 18.4533C15.8522 21.9558 18.5722 23.2033 21.1186 23.2033C22.1976 23.2033 23.3137 23.1233 24.1805 22.9809L24.2453 22.97L24.2394 22.9051ZM8.25037 14.1575C8.44832 14.1407 9.0548 14.0969 9.49366 14.0969C12.1176 14.0969 13.3415 15.3688 13.3415 18.1005C13.3415 20.9232 12.254 22.2971 10.0193 22.2971C8.38346 22.2971 8.25037 22.2179 8.25037 21.2484V14.1575ZM10.0461 13.2916H6.60938L6.64981 13.3901C6.80227 13.7607 6.79301 14.4363 6.7829 15.0344C6.77869 15.175 6.777 22.9684 6.777 22.9684L6.84523 22.9701C6.86124 22.9718 8.41115 23.0273 9.88019 23.0273C12.9497 23.0273 15.0126 20.9468 15.0126 17.8503C15.0126 15.0807 13.0634 13.2916 10.0461 13.2916ZM28.3295 14.051H27.3692L27.3641 17.3673H27.9908C29.6924 17.3673 30.485 16.7996 30.485 15.5799C30.485 14.5084 29.8423 14.051 28.3295 14.051ZM28.1222 18.1272H27.3641V21.3155C27.3641 22.0213 27.6623 22.2968 28.4246 22.2968C29.9973 22.2968 30.7621 21.601 30.7621 20.1707C30.7621 18.8146 29.876 18.1272 28.1222 18.1272ZM31.8917 15.3828C31.8917 16.584 30.9989 17.4069 30.0655 17.6554C31.4731 17.957 32.4308 18.9265 32.4308 20.0839C32.4308 21.9539 31.014 23.027 28.5434 23.027C27.2443 23.027 26.175 23.0461 25.9963 23.0493C25.98 23.0496 25.9711 23.0498 25.9701 23.0498L25.8976 23.0515V14.6601C25.8976 13.768 25.8126 13.3822 25.8109 13.378L25.7915 13.2913H28.7313C30.7116 13.2913 31.8917 14.0721 31.8917 15.3828Z" fill="#FEFEFE"/>
<defs>
<linearGradient id="paint0_linear_1408_1683" x1="38.6639" y1="21.8938" x2="12.9537" y2="23.5784" gradientUnits="userSpaceOnUse">
<stop stop-color="#6AB935"/>
<stop offset="0.305922" stop-color="#00A5A9"/>
<stop offset="0.669783" stop-color="#008AD5"/>
<stop offset="1" stop-color="#0075C1"/>
</linearGradient>
</defs>
</svg>
