<svg width="40" height="40" viewBox="0 0 40 40" fill="none" xmlns="http://www.w3.org/2000/svg">
<path fill-rule="evenodd" clip-rule="evenodd" d="M19.3767 6.02905L12.2963 2.24805L19.281 15.627L26.2658 2.345L19.3767 6.02905ZM24.7357 7.09543L33.7298 3.41137V10.1008L28.563 12.4276C31.6248 14.9483 33.6341 18.7293 33.6341 22.8981C33.6341 30.4601 27.1278 36.6648 19.1862 36.6648C11.1489 36.6648 4.73828 30.557 4.73828 22.8981C4.73828 18.6323 6.74759 14.8513 10.0008 12.2337L4.83396 9.90694V3.21748L13.7324 6.99848L15.1676 9.61609L18.4208 15.8208C14.7849 16.3056 12.0101 19.311 12.0101 22.8981C12.0101 26.776 15.3589 29.9753 19.4732 29.9753C23.5876 29.9753 26.9364 26.873 26.9364 22.8981C26.9364 19.214 23.9703 16.1117 20.143 15.8208L23.2048 9.80999H23.3005L24.7357 7.09543Z" fill="#FFDC00"/>
</svg>
