<svg width="40" height="40" viewBox="0 0 40 40" fill="none" xmlns="http://www.w3.org/2000/svg">
<path fill-rule="evenodd" clip-rule="evenodd" d="M21.1176 1.66699L12.4871 7.30543C10.4251 9.83243 12.7402 11.3943 16.9237 13.2608C16.329 12.9727 16.6871 12.1125 17.1727 11.8512C21.2205 9.42293 23.1178 8.18 23.2742 6.48024C23.4512 4.194 22.6836 2.41604 21.1176 1.66699ZM20.6151 25.4163L27.2371 28.5195C29.7838 26.0137 26.6631 24.5508 23.8429 23.2288L23.8429 23.2288C23.5388 23.0863 23.2382 22.9453 22.9486 22.805C23.5865 23.1815 23.1174 23.7104 22.7861 23.9265L20.6151 25.4163ZM12.6063 30.7832L9.21087 33.0653C6.58921 34.8227 11.3366 39.4795 14.3595 37.4505L19.5638 34.0366L12.6063 30.7832Z" fill="#60B1DC"/>
<path fill-rule="evenodd" clip-rule="evenodd" d="M28.0175 8.65918L20.313 13.5568L27.1286 16.7629C28.888 15.9212 30.2276 14.6927 30.312 12.676C30.3532 10.7067 29.6206 9.29916 28.0175 8.65918ZM19.0475 22.1091L12.3102 18.9977C10.5382 21.8981 12.927 22.9858 15.1496 23.9979C15.5778 24.1928 15.9998 24.385 16.3847 24.5867C15.9688 24.352 16.2894 24.1282 16.5816 23.9242C16.648 23.8778 16.7129 23.8325 16.7674 23.7883L19.0475 22.1091Z" fill="#A4C7A2"/>
<path fill-rule="evenodd" clip-rule="evenodd" d="M12.4603 7.33008C10.6802 8.41661 9.10807 10.3859 9.17803 13.1805C9.2624 15.3576 10.6082 17.115 13.8308 18.5967L23.8277 23.2268C27.433 24.8751 29.5176 26.2621 27.2046 28.5195C29.5958 27.4021 31.063 25.5171 30.6596 22.1834C30.4065 20.1503 28.8652 18.7448 26.474 17.6789L16.9484 13.2607C12.6269 11.2626 10.5053 9.9538 12.4603 7.33008" fill="#008BBC"/>
<path fill-rule="evenodd" clip-rule="evenodd" d="M12.2847 18.998C10.303 20.0661 8.88106 21.9572 9.07656 24.6962C9.23501 26.9289 10.4471 28.678 12.7559 29.7152C18.4499 32.2731 24.111 34.87 29.4181 38.0926C31.0911 35.8063 31.1241 31.5178 27.4015 29.7728L16.4189 24.5871C12.2477 22.6157 10.8319 22.1362 12.2847 18.998" fill="#56A954"/>
</svg>
