<svg width="40" height="40" viewBox="0 0 40 40" fill="none" xmlns="http://www.w3.org/2000/svg">
<path fill-rule="evenodd" clip-rule="evenodd" d="M1.66602 38.3183H38.3194V1.66602H1.66602V38.3183Z" fill="#0090D0"/>
<path fill-rule="evenodd" clip-rule="evenodd" d="M1.66602 1.66602L10.8267 10.8331L19.9916 1.66602H1.66602Z" fill="#0090D0"/>
<path fill-rule="evenodd" clip-rule="evenodd" d="M1.66602 1.66602V19.9916L10.8267 10.8331L1.66602 1.66602Z" fill="#0099D7"/>
<path fill-rule="evenodd" clip-rule="evenodd" d="M1.66797 19.991H19.9925L10.834 10.8271L1.66797 19.991Z" fill="#0090D0"/>
<path fill-rule="evenodd" clip-rule="evenodd" d="M19.9916 1.66602L10.832 10.8267L19.9916 19.9916V1.66602Z" fill="#0082C8"/>
<path fill-rule="evenodd" clip-rule="evenodd" d="M19.9922 1.66602V19.9916L29.1529 10.8331L19.9922 1.66602Z" fill="#0070BA"/>
<path fill-rule="evenodd" clip-rule="evenodd" d="M19.9941 19.991H38.3198L29.1602 10.8271L19.9941 19.991Z" fill="#004C97"/>
<path fill-rule="evenodd" clip-rule="evenodd" d="M1.66602 19.9912L10.8267 29.1583L19.9916 19.9912H1.66602Z" fill="#0082C8"/>
<path fill-rule="evenodd" clip-rule="evenodd" d="M1.66602 38.3189L10.8267 29.1582L1.66602 19.9922V38.3189Z" fill="#0070BA"/>
<path fill-rule="evenodd" clip-rule="evenodd" d="M1.66797 38.3185H19.9925L10.834 29.1514L1.66797 38.3185Z" fill="#0066B2"/>
<path fill-rule="evenodd" clip-rule="evenodd" d="M10.834 29.1517L19.9936 38.3188V19.9932L10.834 29.1517Z" fill="#00519B"/>
<path fill-rule="evenodd" clip-rule="evenodd" d="M19.9922 19.9912L29.1529 29.1583L38.3178 19.9912H19.9922Z" fill="#1B3281"/>
<path fill-rule="evenodd" clip-rule="evenodd" d="M19.9922 38.3189L29.1529 29.1582L19.9922 19.9922V38.3189Z" fill="#004C97"/>
<path fill-rule="evenodd" clip-rule="evenodd" d="M19.9941 38.3185H38.3198L29.1602 29.1514L19.9941 38.3185Z" fill="#1B3281"/>
<path fill-rule="evenodd" clip-rule="evenodd" d="M29.1602 29.1517L38.3208 38.3188V19.9932L29.1602 29.1517Z" fill="#1B3281"/>
<path fill-rule="evenodd" clip-rule="evenodd" d="M19.9922 1.66602L29.1529 10.8331L38.3178 1.66602H19.9922Z" fill="#0066B2"/>
<path fill-rule="evenodd" clip-rule="evenodd" d="M38.3189 1.66602L29.1582 10.8267L38.3189 19.9916V1.66602Z" fill="#00519B"/>
<path fill-rule="evenodd" clip-rule="evenodd" d="M8.77539 31.2538L15.273 37.7503L26.5838 26.6087L38.3187 38.2793V24.5784L26.5838 13.4004L8.77539 31.2538Z" fill="#FEFEFE"/>
</svg>
