<svg width="40" height="40" viewBox="0 0 40 40" fill="none" xmlns="http://www.w3.org/2000/svg">
<path fill-rule="evenodd" clip-rule="evenodd" d="M34.013 25.2754C35.3034 25.3605 34.8937 24.7649 34.5786 24.3442C32.7195 21.8187 35.8769 20.4606 38.2953 20.1329C38.1314 33.0269 25.0389 34.8041 20.1059 34.634C13.7991 35.0546 2.55934 30.6652 1.66602 22.1495C4.58073 25.1903 9.50738 25.7795 12.0172 24.9366C12.092 24.9053 12.1855 24.8796 12.2824 24.853C12.7158 24.7341 13.2174 24.5965 12.4268 23.8432C9.3451 19.7106 18.8108 18.9512 23.008 19.29C24.3078 19.3719 23.9045 18.7827 23.5799 18.3651C21.7986 15.8837 25.0852 15.0414 26.7013 14.6272C27.0636 14.5343 27.3419 14.463 27.4604 14.3996C28.0292 14.2357 29.2439 13.5614 27.7078 13.0509C24.5536 12.208 18.8991 11.1051 14.527 13.2179C11.5351 14.91 12.0172 17.0984 14.3631 18.1083C8.54632 16.5911 4.34125 17.1803 1.74952 19.6319C4.01669 10.8578 14.2024 8.24399 19.8601 8.33537C26.4111 8.24399 34.3344 10.7822 38.0527 18.7827C34.2525 17.6877 30.0522 17.7727 26.0866 19.0363C22.4471 20.9711 23.2554 22.4883 25.2815 24.0969C21.7177 23.5076 16.6981 23.087 13.6337 25.0186C11.07 26.8571 11.7576 27.7167 12.2751 28.3635C12.3288 28.4306 12.3806 28.4954 12.4268 28.5588C15.0107 30.9252 18.8108 31.0906 23.008 31.0071C24.0668 30.7582 24.2291 30.5045 23.3405 29.7436C20.7487 25.6929 29.8048 24.9366 34.013 25.2754ZM16.7881 15.6631C17.2702 15.4976 17.434 14.91 17.2702 14.483C17.1126 14.0671 16.6258 13.8071 16.1405 13.982C15.7388 14.2357 15.4961 14.7461 15.7388 15.1636C15.8947 15.5764 16.3879 15.8395 16.7881 15.6631ZM5.63453 20.971C6.11664 20.7205 6.27892 20.2148 6.11664 19.7973C5.96697 19.3719 5.4628 19.1182 4.98069 19.2899C4.58051 19.4585 4.34103 19.9674 4.58051 20.4606C4.74594 20.8907 5.22805 21.1412 5.63453 20.971ZM26.6552 20.971C26.8128 21.4862 27.2161 21.8187 27.788 21.7336C28.2686 21.6517 28.5947 21.1412 28.508 20.6339C28.434 20.1329 27.9472 19.7973 27.3816 19.8792C26.9814 19.9674 26.5654 20.4606 26.6552 20.971ZM15.4962 26.457C15.3324 26.0332 15.5797 25.4376 15.9878 25.2753C16.4667 25.1052 16.8701 25.2753 17.1127 25.7795C17.2703 26.2018 17.1127 26.7059 16.6259 26.9596C16.2288 27.1297 15.7389 26.8729 15.4962 26.457Z" fill="#044DA1"/>
</svg>
