<svg width="40" height="40" viewBox="0 0 40 40" fill="none" xmlns="http://www.w3.org/2000/svg">
<path fill-rule="evenodd" clip-rule="evenodd" d="M1.8457 24.0232C1.8457 29.9758 6.67174 34.8042 12.6268 34.8042V34.8042C14.5326 34.8042 16.323 34.3042 17.8792 33.4403V33.4403V26.4789C16.967 27.672 15.5311 28.4449 13.9124 28.4449V28.4449C11.1584 28.4449 8.92732 26.2115 8.92732 23.4575V23.4575C8.92732 22.1568 9.4297 20.9661 10.2501 20.0761V20.0761C9.39173 18.4962 8.90359 16.6915 8.90359 14.7659V14.7659C8.90359 14.4755 8.91704 14.1757 8.9384 13.8877V13.8877C4.80225 15.3925 1.8457 19.3617 1.8457 24.0232" fill="url(#paint0_linear_1390_1398)"/>
<path fill-rule="evenodd" clip-rule="evenodd" d="M8.9043 14.7659C8.9043 16.6916 9.39244 18.4962 10.2508 20.0761V20.0761C11.1615 19.088 12.4637 18.4725 13.9131 18.4725V18.4725C14.474 18.4725 15.0168 18.5666 15.5215 18.7399V18.7399C14.9614 17.8902 14.6346 16.8704 14.6346 15.781V15.781C14.6346 12.8125 17.0413 10.4059 20.0097 10.4059V10.4059C22.1759 10.4059 24.0422 11.6867 24.8935 13.5325V13.5325C25.695 13.3402 26.532 13.2406 27.3904 13.2406V13.2406C28.6863 13.2406 29.9292 13.4668 31.0788 13.8877V13.8877C30.627 8.16847 25.8453 3.66602 20.0074 3.66602V3.66602C13.8735 3.66602 8.9043 8.63842 8.9043 14.7659" fill="url(#paint1_linear_1390_1398)"/>
<path fill-rule="evenodd" clip-rule="evenodd" d="M24.8927 13.5322C25.206 14.2157 25.3848 14.9768 25.3848 15.7806V15.7806C25.3848 16.87 25.0564 17.8898 24.4963 18.7372V18.7372C25.0019 18.5663 25.5406 18.4721 26.1047 18.4721V18.4721C28.8564 18.4721 31.0898 20.7048 31.0898 23.4572V23.4572C31.0898 26.2112 28.8564 28.4446 26.1047 28.4446V28.4446C24.4884 28.4446 23.0509 27.6756 22.1387 26.481V26.481V33.44C23.6925 34.3039 25.4829 34.8039 27.3896 34.8039V34.8039C33.3438 34.8039 38.1722 29.9755 38.1722 24.0229V24.0229C38.1722 18.0671 33.3438 13.2402 27.3896 13.2402V13.2402C26.5312 13.2402 25.6941 13.3399 24.8927 13.5322" fill="url(#paint2_linear_1390_1398)"/>
<defs>
<linearGradient id="paint0_linear_1390_1398" x1="0.911057" y1="18.0559" x2="10.4007" y2="32.248" gradientUnits="userSpaceOnUse">
<stop stop-color="#0070BC"/>
<stop offset="1" stop-color="#53C3F2"/>
</linearGradient>
<linearGradient id="paint1_linear_1390_1398" x1="32.3103" y1="7.36453" x2="22.0382" y2="-0.109527" gradientUnits="userSpaceOnUse">
<stop stop-color="#0070BC"/>
<stop offset="1" stop-color="#53C3F2"/>
</linearGradient>
<linearGradient id="paint2_linear_1390_1398" x1="33.2525" y1="18.4442" x2="21.4404" y2="24.6995" gradientUnits="userSpaceOnUse">
<stop stop-color="#53C3F2"/>
<stop offset="1" stop-color="#0070BC"/>
</linearGradient>
</defs>
</svg>
