<svg width="40" height="40" viewBox="0 0 40 40" fill="none" xmlns="http://www.w3.org/2000/svg">
<path fill-rule="evenodd" clip-rule="evenodd" d="M24.7622 20.6875L24.8008 20.6497L25.5716 20.2899L25.5935 20.2722L25.621 20.2783L25.6587 20.2372L25.6852 20.2292L25.6817 20.2078L26.1058 19.9514L26.1561 19.9272V19.9124L26.1833 19.9179L26.1952 19.8978L26.2339 19.895L26.2322 19.8811L26.2876 19.8769L27.6684 19.102L27.6946 19.1083L27.7336 19.0652L27.7598 19.0702L27.7852 19.039L27.8112 19.0461L27.8346 19.0126L27.863 19.0186L27.8734 18.9957L27.9114 18.9924V18.9808L27.9408 18.9854L27.9524 18.9642L28.0038 18.9607L28.0154 18.941L28.068 18.9398V18.9239L28.0909 18.9317V18.9189L28.1688 18.9093V18.8977L28.2088 18.904V18.8907H28.2614V18.8811L28.2992 18.8841V18.8726L28.3224 18.8788V18.8663L28.3992 18.8683V18.8557L28.4264 18.8635V18.8496L28.479 18.8602V18.8464L28.5314 18.8579V18.8454L28.5697 18.8514V18.8408L28.6306 18.8514V18.8408L28.6999 18.8514V18.8408L29.2665 18.9239V18.9345L29.475 18.9841V18.9957L29.5359 19.008V19.0219L29.6012 19.0325V19.0451L29.6538 19.0536V19.0652L29.6926 19.0712V19.0838L29.783 19.1133V19.1269L29.8104 19.1292V19.1418L29.8492 19.147V19.1596L29.8744 19.1669V19.1773L29.9144 19.1841V19.1964L29.9394 19.203V19.2123L30.0061 19.2392V19.249L30.0839 19.2868V19.2994L30.1056 19.3024V19.3173L30.1847 19.3541V19.3646L30.226 19.3855L30.2383 19.4097L30.2889 19.4321L30.3171 19.4732L30.3403 19.4772L30.3582 19.5041L30.3824 19.5109L30.4055 19.551L30.5884 19.7253L30.6163 19.7308V19.7537L30.6433 19.7592L30.6536 19.798L30.7442 19.8874V19.9086L30.7986 19.9544V19.9783L30.8513 20.0242V20.0468L30.8787 20.064L30.8921 20.1005L30.9036 20.106V20.1282L30.9303 20.1448L30.9419 20.1964L30.9691 20.2123V20.2352L30.9946 20.2659V20.2878L31.0207 20.308V20.3281L31.0376 20.3478L30.9913 20.3259V20.3037L30.7314 20.1587V20.1322L30.546 20.0524V20.0398L30.4929 20.0315V20.0176L30.4519 20.0093V20L30.4128 19.9927V19.9783L30.3604 19.9673L30.3473 19.9428L30.295 19.9325V19.9209L30.2161 19.9063V19.895L30.1489 19.8811V19.8683L30.0575 19.8539V19.8391L29.9565 19.8212V19.8063L29.9263 19.8043V19.7917L29.887 19.7854L29.8631 19.7444L29.824 19.7381L29.8198 19.7242L29.7671 19.7044V19.6784L29.6379 19.617V19.594L29.479 19.5288V19.5041L29.4125 19.4918V19.4689L29.1217 19.3785V19.3551L28.7716 19.2742L28.7419 19.2845L28.5337 19.2448L28.5201 19.2659L28.3992 19.2448L28.3876 19.2659L28.2468 19.2511L28.2307 19.272L28.1816 19.2626V19.2742L28.1562 19.272V19.2845L28.1141 19.2742L27.9975 19.2901V19.3163L27.8661 19.3266V19.349L27.7495 19.3646L27.6842 19.3994V19.4236L27.6465 19.4299L27.6316 19.4497L27.6074 19.447L27.58 19.4772L27.5538 19.4742V19.4973L27.5263 19.4918L27.5316 19.516L27.4936 19.5465L27.4498 19.5371V19.5613L27.4256 19.557L27.3614 19.6401L27.3359 19.6361V19.6623L27.3098 19.657L27.2707 19.7358L27.2445 19.7298L27.1405 19.8905L27.1143 19.8874V19.9209L27.0879 19.9169L27.0531 20.0451L27.0257 20.0388L27.0131 20.1219L26.9869 20.1269V20.1755L26.9617 20.1818V20.245L26.9479 20.2418V20.2878H26.936L26.9252 20.4047L26.8998 20.3981V20.5362L26.8726 20.5394L26.8776 20.9177L26.9058 20.9325V21.063L26.9323 21.0829L26.936 21.1672L26.9479 21.1682V21.1934L26.9617 21.1954L26.9743 21.3186L27.0005 21.3204V21.3838L27.0292 21.4004V21.4375L27.0436 21.4395V21.4888L27.0564 21.4911L27.068 21.5412L27.0952 21.5457L27.1121 21.6326L27.1362 21.6508V21.6865L27.1511 21.6895L27.167 21.9799L27.1793 21.9822L27.1816 22.0789L27.1932 22.0809L27.1952 22.1431L27.2068 22.1448L27.209 22.2184L27.2226 22.2194V22.267L27.2352 22.27V22.2942L27.2478 22.2972L27.2647 22.3733L27.275 22.3755L27.2773 22.4236L27.2899 22.4259V22.4614L27.3045 22.4634V22.5007L27.3171 22.5022V22.5382L27.3299 22.5405L27.3435 22.615L27.3551 22.6193V22.6412L27.3823 22.6614L27.4936 22.9094L27.518 22.9147L27.6137 23.1111L27.6346 23.1177L27.6651 23.1461V23.169L27.6946 23.1859V23.2114L27.7155 23.2292V23.2522L27.7958 23.3269V23.3516L27.8112 23.3552L27.8776 23.4508L27.9018 23.4541L27.9449 23.5234L27.967 23.5269L27.9975 23.569L28.0605 23.6422L28.0879 23.6475L28.1267 23.7024L28.1562 23.7075L28.1688 23.7339L28.2088 23.7515V23.778L28.3783 23.8926L28.4329 23.9757L28.4455 23.9779L28.4591 24.0409L28.4981 24.0726L28.5105 24.1217L28.5276 24.1253L28.5611 24.1776L28.5128 24.222L28.4747 24.2386V24.2645L28.439 24.2794V24.3041L28.1962 24.4604V24.4846L28.1479 24.4992V24.5085L28.1207 24.5058L28.1088 24.5267L28.0942 24.5221L28.0806 24.5468L28.0544 24.5403L28.03 24.572L28.0038 24.5677L27.9932 24.5869L27.9524 24.5919V24.6055L27.9293 24.5995L27.9154 24.6224L27.8776 24.6256V24.6372H27.824L27.8147 24.6813L27.7598 24.6826L27.659 24.7485V24.7704L27.62 24.7694V24.7919L27.5704 24.818V24.8412L27.5054 24.879V24.9001L27.4518 24.9178V24.9399L27.4402 24.9367L27.3906 24.9885L27.3644 24.9825V25.0052L27.3392 25.0125V25.0261L27.3171 25.02L27.2647 25.0704L27.2385 25.0681L27.1866 25.1177L27.1466 25.1207L27.1342 25.1442L27.1068 25.1376L27.0952 25.1588L27.068 25.1557L27.0597 25.1766L27.0292 25.1691L27.0196 25.2091L26.9935 25.2071L26.9806 25.228L26.9323 25.2542L26.8935 25.3111L26.8544 25.3267V25.3509L26.8313 25.3575V25.3826L26.8018 25.391L26.8041 25.4154L26.7769 25.4204V25.433L26.7494 25.4396V25.4625L26.6882 25.4982V25.5227L26.6011 25.5761L26.5865 25.6108L26.5482 25.6267V25.6403L26.522 25.6337L26.4339 25.712L26.4077 25.7098L26.3573 25.7601L26.3309 25.7541L26.2911 25.7929L26.2636 25.7906L26.2518 25.8108L26.2128 25.8148V25.8254L26.1868 25.8234L26.1773 25.8432L26.1468 25.8382L26.1385 25.8599L26.1088 25.8548L26.0984 25.8777L26.0793 25.8737V25.8526L26.174 25.8234L26.1707 25.7863L26.209 25.7601L26.2616 25.7329V25.7201L26.2876 25.7234L26.2846 25.6886L26.3004 25.6896L26.3276 25.6843L26.4273 25.5078L26.4568 25.5131L26.519 25.3207L26.5465 25.3257L26.558 25.231L26.5799 25.226V25.1525L26.5935 25.1557V25.0694L26.6074 25.0716L26.6029 24.879L26.6167 24.8813L26.5726 24.4534L26.5482 24.4468L26.5316 24.3237L26.5074 24.3174L26.4885 24.2303L26.4644 24.227L26.4382 24.1253L26.411 24.1217L26.3845 24.019L26.3573 24.0031L26.3435 23.8905L26.3163 23.8737V23.8001L26.3037 23.7991V23.776L26.2911 23.7717L26.2762 23.6475L26.2488 23.6435L26.2339 23.5815L26.2226 23.5805V23.5289L26.1952 23.5141L26.1833 23.437L26.1544 23.4216V23.3856L26.1279 23.3688V23.3426L26.1015 23.3269L26.0866 23.2627L26.0753 23.2605L26.0597 23.2239L26.0332 23.2177V23.1829L26.0078 23.1756L25.969 23.0859L25.9438 23.0839V23.0557L25.9166 23.0525L25.8733 22.959L25.8481 22.9557V22.9285L25.8229 22.925L25.7829 22.8588L25.7567 22.8548L25.7544 22.8283L25.7283 22.8233L25.6882 22.756L25.661 22.7518V22.7276L25.5716 22.675V22.6495L25.5452 22.6445V22.6203L25.4643 22.5581L25.4369 22.5521L25.4117 22.4866L25.3853 22.4836L25.3571 22.4173L25.3465 22.4143L25.316 22.3375L25.2918 22.3322V22.2972L25.2656 22.2942V22.267L25.2392 22.2637L25.1458 22.1124L25.1196 22.1061V22.0849L25.0941 22.0789V22.0554L25.0669 22.0484L25.0007 21.9799L24.9984 21.9527L24.9723 21.9494V21.9242L24.9461 21.9187V21.8958L24.8806 21.859V21.8348L24.8302 21.8147V21.7905L24.7479 21.753L24.6957 21.6931L24.6421 21.5845L24.6136 21.5802L24.5484 21.4352L24.5242 21.4309V21.409L24.4971 21.4004L24.4676 21.3365L24.4411 21.3322L24.3772 21.2249L24.3507 21.2186L24.3487 21.1954L24.3233 21.1891V21.1672L24.2971 21.1607V21.1365L24.2689 21.1312V21.1081L24.1646 21.0272V21.0041L24.11 20.9703V20.9429V20.9419L24.1709 20.9232L24.1858 20.9031L24.2097 20.9053L24.2236 20.8859L24.2487 20.8905L24.2623 20.8683L24.2888 20.8746L24.3024 20.8527L24.3276 20.858L24.3371 20.8368L24.3898 20.8336L24.4034 20.8137L24.4802 20.8041L24.4779 20.7908L24.5064 20.7958V20.7819L24.5819 20.7739V20.7623L24.6199 20.7696V20.756L24.6474 20.7623V20.7497L24.6726 20.7547L24.6874 20.7338L24.7116 20.7381L24.7378 20.718L24.7355 20.6968L24.7622 20.6875ZM29.9894 25.5152L29.96 25.5089L29.9116 25.4407L29.8854 25.4384L29.764 25.2964L29.6898 25.2218V25.2007L29.6381 25.1556L29.6361 25.1304L29.6213 25.1261L29.5953 25.0873L29.5699 25.0808L29.556 25.0556L29.4911 25.0314V25.0198L29.4404 25.001V24.9884L29.3868 24.9642L29.3742 24.94L29.2997 24.9002V24.8894L29.2576 24.8738L29.244 24.8443L29.1954 24.8232L29.1788 24.798L29.1554 24.7919L29.1408 24.7662L29.102 24.7464L29.0778 24.7076L29.0471 24.7003L29.039 24.6738L29.0083 24.67L28.9567 24.6003L28.9338 24.597L28.8275 24.4698L28.8046 24.4668V24.4542L28.7655 24.4227V24.3996L28.6615 24.2953L28.6583 24.2732L28.6308 24.2533L28.5887 24.1976H28.593L28.5887 24.1734L28.6583 24.1019L28.6832 24.1072L28.7096 24.0765L28.7358 24.081L28.7507 24.0578L28.7884 24.0546V24.041L28.8139 24.0473L28.8275 24.0251L28.8496 24.0274L28.8665 24.0082L28.8884 24.0125L28.9023 23.9904L28.9453 23.9863L28.9798 23.9443L29.0063 23.9506L29.0209 23.9271L29.0471 23.935L29.1221 23.8642L29.1652 23.8579L29.1619 23.8347L29.2407 23.776L29.2919 23.7494L29.3057 23.7151L29.3437 23.7002V23.6738L29.384 23.6569V23.6328L29.4112 23.6257V23.6013L29.4364 23.594V23.5708L29.4616 23.5625L29.4752 23.5287L29.4858 23.531L29.5006 23.4857L29.5246 23.4781L29.5404 23.4323L29.5792 23.43L29.615 23.388L29.6414 23.3943L29.6678 23.3593L29.6928 23.3658L29.7066 23.3426L29.7308 23.3489L29.7834 23.2963L29.8139 23.3026L29.902 23.2238L29.9265 23.2281L29.9398 23.2062L29.9801 23.1893V23.1659L29.9927 23.1681L30.0453 23.1175L30.0703 23.123V23.0974L30.0967 23.0661L30.1448 23.0399V23.0165L30.1849 22.9966V22.9755L30.2262 22.9591V22.9337L30.2534 22.9274L30.2503 22.8893L30.2785 22.8969L30.2768 22.8589L30.3921 22.7843V22.7602L30.4964 22.7314V22.7075L30.5752 22.6846V22.6614L30.6928 22.6108V22.5877L30.7182 22.5899L30.8129 22.4763L30.8356 22.4814V22.4564L30.8623 22.4592L30.859 22.4371L30.8875 22.4416L30.9391 22.3794V22.3426L30.9791 22.3247L31.002 22.2572L31.0315 22.2638L31.0544 22.183L31.0809 22.188V22.1409L31.1053 22.1439V22.0976L31.1325 22.0996L31.1441 22.0419L31.1557 22.0462L31.1713 21.9631L31.1839 21.9661V21.9422L31.1944 21.9432V21.8959L31.207 21.8969V21.875L31.2196 21.8767V21.816L31.2458 21.8082V21.7221L31.2713 21.7168L31.2692 21.6085L31.2944 21.6025V21.3942L31.308 21.3972V21.3466L31.3206 21.3544L31.2911 21.189L31.2879 20.9817L31.2629 20.9704V20.8601L31.2365 20.8432L31.2332 20.7561L31.207 20.74V20.6793L31.1944 20.677V20.6538H31.1806V20.6022L31.1683 20.6002V20.5634L31.1511 20.5594V20.5393L31.1418 20.5362V20.4856L31.1262 20.4844L31.1136 20.4227L31.0872 20.4161V20.4081L31.0894 20.4101L31.1136 20.4161L31.1292 20.4423L31.1511 20.4468L31.1806 20.4889L31.207 20.4922L31.2164 20.5194L31.2428 20.5214L31.2944 20.5919L31.3206 20.5984L31.4279 20.7251L31.5067 20.7853L31.5458 20.8525L31.5719 20.8581L31.5845 20.8946L31.649 20.9558V20.98L31.7152 21.0399V21.061L31.7414 21.0797V21.1049L31.7802 21.1323V21.1572L31.8054 21.1734L31.8099 21.1983L31.8338 21.2132L31.8454 21.2512L31.858 21.2565L32.6561 22.1409L32.6823 22.1543V22.1804L32.7087 22.1976L32.7216 22.2333L32.7339 22.2366L32.9157 22.4476L32.9422 22.4554L32.9673 22.493L32.9948 22.4993L33.0368 22.5519L33.06 22.5582L33.1018 22.6128L33.123 22.6181L33.2061 22.7161L33.3725 22.8893L33.4239 22.9591L33.6488 23.1903L33.6624 23.2155L33.7138 23.2364L33.7266 23.2628L33.776 23.286L33.7921 23.3112L34.2995 23.8105L34.326 23.8138L34.3648 23.8823L34.3773 23.8843V23.9062L34.4038 23.9251V23.935L34.4302 23.9526V23.9757L34.4542 23.9946L34.4594 24.0168L34.4962 24.0473L34.7065 24.2659L34.7297 24.2701L34.7433 24.2953L34.7689 24.3019L34.7939 24.3407L34.8203 24.3467L34.8455 24.3857L34.8729 24.392L34.9117 24.4469L34.9379 24.4489L35.0419 24.5769L35.0694 24.5814V24.592L35.1074 24.6257V24.6486L35.225 24.7662L35.3975 24.9274V24.94L35.4224 24.943V24.9566L35.4449 24.9705L35.4975 24.9949L35.5647 25.0407L35.5763 25.0682L35.6184 25.0999L35.6436 25.106L35.6844 25.1324L35.6927 25.1619L35.7319 25.1901L35.7594 25.1954L35.7846 25.2261L35.7982 25.2535L36.0064 25.4565L36.3081 25.7612L36.3343 25.7907L36.3565 25.793L36.3744 25.8179L37.0367 26.4324V26.4427L37.0767 26.4722L37.4681 26.901L37.4933 26.9063L37.5459 26.9771L37.5708 26.9798L37.5837 27.0083L37.6635 27.0811L37.7151 27.1398L37.7811 27.2208L37.835 27.2911L37.8718 27.346L37.8969 27.3858L37.94 27.4636L37.9886 27.5321L38.0145 27.5858L38.0294 27.6119L38.0694 27.691V27.717V27.7275L38.083 27.7285L38.0956 27.7771L38.1082 27.7802V27.8084V27.8162L38.1218 27.8189V27.8444L38.1347 27.8464V27.8822L38.1475 27.8832L38.1526 27.9212L38.1611 27.9222L38.1651 27.959L38.1737 27.961L38.2586 28.3188V28.4626L38.2724 28.4649L38.2608 28.7719L38.2515 28.7696V28.8517L38.2399 28.8497V28.9086H38.2273V28.9673L38.2127 28.9653L38.2155 29.0126L38.2039 29.0096V29.0567L38.1901 29.0557V29.0927L38.1767 29.0882L38.1651 29.1693L38.1526 29.1673V29.1914L38.1377 29.1892V29.2229H38.1241L38.1284 29.2451L38.1158 29.2438V29.2796L38.1022 29.2765L38.079 29.3428L38.0634 29.3405V29.3649L38.0506 29.3597V29.3858L38.038 29.3826V29.409L38.0231 29.4047L38.002 29.4712L37.9886 29.47L37.9748 29.5024L37.9483 29.5087L37.936 29.5553L37.9095 29.5614V29.5833L37.8718 29.6004V29.6266L37.835 29.6425V29.6676L37.7866 29.6928V29.718L37.67 29.7875L37.5678 29.8792L37.5434 29.8749L37.5038 29.9137L37.4764 29.9094L37.4545 29.9421L37.4237 29.9369L37.3998 29.964L37.3762 29.961L37.3626 29.9819L37.325 29.9875V29.9998L37.2724 30.0018L37.2585 30.022L37.181 30.0323L37.1684 30.0527L37.0548 30.0673V30.0789L37.0022 30.0812V30.0947L36.9621 30.0872V30.0998L36.941 30.0947V30.1053L36.8982 30.0998V30.1106L36.8589 30.1053V30.1146L36.8224 30.1083V30.1187L36.7843 30.1124V30.125L36.7317 30.1146V30.127L36.6791 30.1167V30.1303L36.6171 30.1167V30.1303C36.6171 30.1303 36.2303 30.0799 36.0767 30.0424C35.9213 30.0018 35.528 29.8548 35.528 29.8548L35.4721 29.8371L35.4532 29.8306V29.817L35.3872 29.7938V29.7822L35.3386 29.7633V29.7495L35.2965 29.7434V29.7306L35.2436 29.7107V29.6961L35.1913 29.6752L35.1784 29.6488L35.0998 29.611V29.6004L34.7256 29.3639V29.3508L34.6743 29.3428V29.3299L34.635 29.3219V29.3083L34.5962 29.304V29.2912L34.5561 29.2733L33.9601 28.863L33.9326 28.8613L33.88 28.7885L33.8528 28.7852L33.4889 28.507V28.4931L33.4415 28.4709V28.4604L33.3985 28.4543V28.4395L33.3237 28.4007V28.3911L33.2965 28.3868V28.3735L33.2441 28.3523L33.228 28.3249L33.1534 28.2871L33.1366 28.2617L33.1144 28.2586V28.2428L33.0756 28.2279L33.0618 28.1985L33.0368 28.1967L33.0071 28.1544L32.9852 28.1494L32.9706 28.1262L32.9464 28.1199L32.8895 28.0489L32.8643 28.0464L32.4372 27.694V27.6814L32.3584 27.6422V27.6296L32.3335 27.6258V27.6142L32.307 27.6067V27.5963L32.2295 27.5603L32.2179 27.5321L32.1642 27.5132L32.1504 27.4835L32.0998 27.4636L32.0756 27.4195L32.0471 27.4175L32.0346 27.3936L32.0074 27.3868L31.9799 27.346C31.9799 27.346 31.5395 26.9967 31.369 26.8403C31.2814 26.7566 31.0853 26.5785 30.9135 26.4225L30.9133 26.4223C30.7675 26.2899 30.6392 26.1734 30.6097 26.144L30.5626 26.0987V26.0725L30.4964 26.0136L30.4835 25.9768L30.4583 25.9358L29.9894 25.5152ZM20.6265 22.6991V22.7212L20.7317 22.7917V22.8137L20.839 22.8811V22.9056L20.8768 22.9146V22.925L20.8906 22.9527L20.9292 22.9947L20.9559 23V23.0368L20.9841 23.0408L21.0115 23.1073L21.0251 23.1093V23.1335L21.0506 23.1514V23.1851L21.0755 23.1914V23.2146L21.1019 23.2194L21.1314 23.2861L21.1563 23.2911V23.3133L21.184 23.3206L21.247 23.4299L21.2752 23.4322V23.4563L21.3794 23.5362L21.3825 23.5613L21.4087 23.5666V23.5908L21.4762 23.6266V23.6497L21.5026 23.656V23.6802L21.593 23.7338L21.6069 23.7603L21.6456 23.7699L21.6592 23.7938L21.6844 23.7991V23.8107L21.7275 23.8316V23.855L21.7748 23.8653V23.8895L21.8441 23.9262L22.0294 24.1524V24.1766L22.0569 24.1821L22.1984 24.3408V24.3647L22.2279 24.368V24.3934L22.2702 24.3997V24.4259L22.2931 24.4309V24.4543L22.4648 24.5719L22.5182 24.617V24.6289L22.5457 24.6341L22.5477 24.6445L22.5729 24.6508L22.5835 24.6739L22.6265 24.6825L22.6381 24.7107L22.6771 24.717V24.7306L22.7288 24.7525V24.7749L22.7947 24.8137V24.8369L22.8245 24.8412V24.8643L22.8461 24.8696L22.8904 24.9139V24.9368L22.9146 24.9421V24.9676L22.9408 24.9706L23.0103 25.0431V25.0681L23.0355 25.0716L23.244 25.2584V25.2816L23.2861 25.2879V25.3143L23.351 25.3481V25.3584L23.3901 25.37V25.3816L23.4425 25.4015V25.4269L23.4994 25.4362V25.4604L23.59 25.4899L23.6014 25.5153L23.6537 25.5266V25.548L23.719 25.5614L23.7328 25.5898L23.8021 25.5994V25.6118L23.8401 25.6206V25.6329L23.8915 25.6425V25.6528L23.9831 25.6732L23.997 25.6971L24.143 25.7266L24.1556 25.754L24.2846 25.7749V25.7865L24.3236 25.7928V25.8064L24.3901 25.818V25.8308L24.4196 25.8371L24.4319 25.8633L24.5372 25.8925V25.917L25.0083 26.0547L25.1788 26.0849V26.0726L25.203 26.0789V26.0663L25.4553 26.0872V26.064L25.6888 26.0472V26.0243L25.7253 26.0253L25.715 26.0313V26.0552L25.6498 26.0928L25.575 26.1482V26.1703L25.5349 26.1766L25.449 26.2567L25.4216 26.2512L25.3826 26.2912L25.3574 26.2839L25.3163 26.3259L25.2922 26.3207L25.266 26.3501L25.2395 26.3479L25.2272 26.3678L25.1914 26.3743V26.3859L25.1642 26.3806L25.1516 26.4015L25.1121 26.408V26.4186L25.0378 26.4269L25.0219 26.4501H24.9693V26.4617L24.9464 26.4574V26.472L24.921 26.4647V26.4783L24.8431 26.4879V26.4995L24.8076 26.4909V26.5015L24.8011 26.535L24.7739 26.5289L24.7119 26.5899L24.6505 26.5816V26.6057L24.5762 26.6508L24.4624 26.7485L24.4319 26.7445L24.3302 26.8085L24.1775 26.8802L24.1398 26.8843V26.8969L24.1136 26.8908L24.0997 26.9135L24.0484 26.9157L24.039 26.9359L24.0086 26.9336L23.9851 26.9515L23.9597 26.9452V26.9578L23.9335 26.9528V26.9661L23.9083 26.9601V26.9727L23.8832 26.9671V26.98L23.857 26.9749V26.9863L23.8295 26.9832V26.9915L23.7517 27.0031V27.0147L23.7129 27.0082V27.0187L23.6908 27.0147V27.0273L23.652 27.0187V27.0293L23.615 27.0432V27.0558L23.5762 27.0492V27.0588L23.5384 27.0535V27.0641L23.3586 27.1379L23.307 27.186L23.2805 27.1839L23.2289 27.2356L23.202 27.228L23.1788 27.2577L23.1546 27.2545L23.1262 27.2839L23.101 27.2806L23.0881 27.2998L23.0355 27.3036L23.0219 27.326L22.9839 27.3313V27.3428L22.9315 27.3436L22.9222 27.367L22.8423 27.3741V27.3867L22.8182 27.3819V27.3945L22.7917 27.3889V27.4015L22.7653 27.3982V27.4101L22.6877 27.4174V27.431L22.652 27.4194V27.4333L22.6265 27.431V27.4416L22.5835 27.4333L22.5857 27.4471L22.56 27.4416V27.4552L22.5213 27.4471L22.5245 27.4574L22.4857 27.4501V27.4627L22.2374 27.5604L22.2133 27.5574L22.1639 27.6055L22.1377 27.5995L22.1113 27.633L22.0851 27.6267L22.0584 27.6569L22.0324 27.6518L22.0229 27.675L21.9977 27.6695L21.9692 27.7012L21.9189 27.7022L21.9063 27.7254L21.8557 27.7276L21.8441 27.7478L21.7663 27.7571L21.7539 27.7773L21.7149 27.772L21.6993 27.7936L21.2775 27.8684L21.2261 27.8599V27.8707L21.1724 27.8621V27.8747L21.1208 27.8654V27.8747L21.0702 27.8654V27.8777L21.0072 27.8654V27.8777L20.943 27.8654V27.8777L20.839 27.8599V27.8707L20.3595 27.7936V27.7833L20.2069 27.7526V27.7412L20.1019 27.7201L20.0986 27.7118L20.0248 27.6972V27.6833L19.9725 27.675V27.6634L19.9075 27.6508V27.6382L19.7632 27.5884V27.577L19.7244 27.57V27.5574L19.634 27.5302V27.5186L19.6066 27.5131V27.5005L19.5688 27.4932V27.4803L19.5433 27.4776V27.465L19.5068 27.4574V27.4471L19.4552 27.4247V27.4121L19.4162 27.4058V27.3945L19.3363 27.3564V27.3428L19.3122 27.3365V27.326L19.2595 27.3058L19.2469 27.2794L19.1681 27.2406L19.1545 27.2134L19.1026 27.1948V27.1799L19.0639 27.162L19.0513 27.1366L19.0251 27.1316L19.0115 27.1028L18.986 27.0998L18.9599 27.0588L18.9347 27.0558L18.9082 27.0147L18.882 27.0104L18.8558 26.9684L18.8166 26.9497L18.701 26.8085L18.6728 26.8054L18.5781 26.6813L18.5562 26.675L18.4909 26.5919V26.5677L18.4645 26.5521V26.5405L18.4391 26.5226V26.4995L18.4003 26.469V26.4448L18.3628 26.4153V26.3879L18.3341 26.3743L18.3217 26.3353L18.3058 26.3322V26.3091L18.2807 26.2912L18.2691 26.2567L18.2542 26.2522L18.2386 26.2008L18.2144 26.1829V26.161L18.187 26.1315V26.1104L18.1756 26.1074V26.0822L18.1618 26.0799V26.0567L18.1492 26.0547L18.123 25.9769H18.1102L18.0976 25.9137L18.0847 25.9104V25.8852H18.0701V25.8497L18.0558 25.8467L18.0439 25.7961H18.0293L18.0029 25.6732L17.9903 25.6709V25.6329H17.9767V25.5971L17.9629 25.5919L17.948 25.5067L17.9367 25.5047L17.9346 25.4574L17.9221 25.4534L17.9082 25.3088L17.9346 24.3047H17.948V24.2723L17.9598 24.2733V24.2385L17.9737 24.2405L18.0092 24.0912L18.0263 24.0945V24.0703L18.0356 24.0756V24.0388L18.0482 24.0408L18.0618 23.9947L18.0701 23.9978V23.9633L18.087 23.9653L18.1009 23.9179L18.1134 23.922V23.8852L18.1374 23.8769V23.856L18.1618 23.8379V23.8129L18.1756 23.8139V23.7905L18.185 23.7928V23.7699L18.2122 23.7623L18.2237 23.717L18.2509 23.7107V23.6855L18.2751 23.6772L18.289 23.6351L18.3124 23.6266V23.6014L18.3499 23.5875V23.5613L18.3889 23.5442V23.5203L18.4519 23.4858V23.4634L18.5025 23.4362V23.411L18.531 23.3944L18.5688 23.3888V23.3657L18.596 23.3574L18.6181 23.3269L18.6821 23.3025V23.2808L18.7095 23.2599L18.7337 23.2659L18.7727 23.2239L18.8012 23.2292L18.8475 23.1788L18.8757 23.1838L18.9009 23.1524L18.9284 23.1587L18.9525 23.1282L18.9797 23.1315L18.9916 23.1113L19.0419 23.1093L19.0545 23.0859L19.0933 23.0839V23.0705L19.146 23.0685L19.1596 23.0461L19.181 23.0524L19.2069 23.0322L19.2374 23.0368V23.0242L19.2595 23.0302V23.0197L19.2882 23.0229L19.2986 23.0018L19.3363 23.0093V22.9957L19.3887 22.9925V22.9821L19.4288 22.9884V22.9786L19.4774 22.9756V22.963L19.5174 22.9716V22.959L19.5433 22.963V22.9527L19.7116 22.9481V22.935L19.7506 22.9421V22.9285L19.7896 22.9378V22.925L19.943 22.9285L19.9579 22.9094L19.982 22.9146L20.0052 22.8822L20.0327 22.8895L20.0566 22.8547L20.083 22.8613L20.109 22.8285L20.1344 22.8361L20.1482 22.8137L20.1996 22.8126L20.2135 22.7917L20.2364 22.795L20.2525 22.7719L20.2742 22.7779L20.288 22.7562L20.3142 22.7623L20.3417 22.7434L20.3658 22.7474V22.7384L20.393 22.7401V22.7298L20.4182 22.7338L20.6046 22.6855L20.6265 22.6991Z" fill="#ADCB53"/>
<path fill-rule="evenodd" clip-rule="evenodd" d="M8.67137 19.2746L8.69856 19.2209L8.71015 19.2219L8.72274 19.1776L8.7376 19.1799L8.73458 19.1547L8.74717 19.159V19.1212L8.75976 19.124L8.78494 19.058L8.79854 19.061V19.0361L8.81239 19.0391V19.0159L8.82473 19.019L8.82171 18.995L8.83632 18.996V18.9729L8.85243 18.9769V18.9517L8.87333 18.9328V18.9087L8.89927 18.9024L8.9101 18.856L8.93931 18.8497L8.94813 18.8036L8.9786 18.7971L8.97407 18.7752L8.98691 18.7762V18.752L9.01411 18.7455V18.7215L9.03728 18.715V18.6911L9.06674 18.6835L9.0617 18.6586L9.0889 18.6508V18.6271L9.12869 18.612V18.5878L9.16672 18.571V18.545L9.2327 18.5113V18.4881L9.25713 18.4818V18.4692L9.28004 18.4617V18.4377L9.60012 18.0454L9.61347 18.0464L9.64595 18.0066L9.65779 18.0099V17.9726L9.67164 17.9739L9.66937 17.954L9.68197 17.956V17.918L9.69783 17.9212L9.72075 17.8537H9.73359V17.8341L9.74618 17.8359V17.8129L9.75953 17.815V17.7908H9.7691V17.7689L9.78496 17.7709V17.7467L9.79655 17.751V17.7256L9.80813 17.7286V17.7036L9.83533 17.6855V17.6603L9.85976 17.654L9.87336 17.609L9.89627 17.6027L9.9134 17.5576L9.9343 17.5488V17.5271L9.94891 17.5279V17.5062L9.98693 17.4881L9.9965 17.4397L10.0393 17.4271L10.0363 17.4017L10.0751 17.3871L10.1416 17.3146V17.2894L10.1665 17.2957L10.1897 17.2546H10.2022V17.2327L10.2148 17.2337L10.2551 17.1947L10.2803 17.1884V17.162L10.2909 17.1642L10.3307 17.1242L10.3549 17.1302L10.6933 16.7615L10.6903 16.7404L10.7072 16.7434L10.7175 16.6961L10.7301 16.6993V16.6764L10.7439 16.6784V16.653L10.7555 16.6553V16.6331L10.7694 16.6354V16.6102L10.783 16.615V16.5923H10.7946V16.5659L10.8051 16.5714V16.548L10.8207 16.549L10.8175 16.5258L10.8439 16.5047V16.4828L10.8691 16.4767L10.8827 16.4301L10.9205 16.4145L10.9313 16.3692L10.9575 16.3629V16.3377L10.9701 16.34V16.3166L10.9963 16.3095L11.0089 16.2745L11.0489 16.2589V16.2367L11.0879 16.2188L11.0983 16.1745L11.1635 16.1378V16.1136L11.2247 16.0781V16.0549L11.4158 15.8381L11.4262 15.8424V15.8192L11.44 15.8225L11.4549 15.7404L11.4682 15.7446L11.4652 15.7182L11.481 15.7205L11.4914 15.653L11.504 15.6552V15.6311L11.5178 15.6354V15.5993L11.5297 15.6003L11.5412 15.5563H11.5536V15.5218L11.5662 15.5258L11.5936 15.4588L11.605 15.4603V15.4364L11.6178 15.4394V15.4155L11.6314 15.4168V15.3913L11.643 15.3966V15.3724L11.6546 15.3745V15.3515L11.6682 15.3523V15.3291L11.6795 15.3324V15.3082L11.7072 15.2893V15.2652L11.7314 15.2589L11.7588 15.1904L11.782 15.1843V15.1599L11.8208 15.1453L11.8334 15.099L11.8596 15.0916V15.0685L11.8983 15.0524V15.0284L11.9071 15.0297L11.9195 14.9949L11.9482 14.9884V14.9645L12.0006 14.9403V14.9159L12.0615 14.8814V14.8572L12.1386 14.8116V14.7877L12.2887 14.5542L12.3055 14.5552L12.3013 14.5321L12.3161 14.5366L12.34 14.4321L12.3536 14.4354V14.4122L12.3665 14.4135V14.3787L12.3788 14.3817L12.3907 14.3367L12.4063 14.3377V14.3009L12.4146 14.3029L12.4393 14.2379L12.4536 14.2397V14.2178L12.4672 14.2211V14.1956H12.4821L12.4781 14.1725L12.4959 14.1767L12.4904 14.1528L12.5075 14.1558L12.5042 14.1284L12.5199 14.1324L12.5156 14.1093L12.5292 14.1115V14.0853L12.5559 14.0685V14.0453L12.5828 14.0367L12.5957 13.9927L12.6176 13.9841L12.6302 13.94L12.6574 13.9337V13.9096L12.683 13.9022V13.8791L12.709 13.872V13.8486L12.7311 13.8413V13.8139L12.7616 13.8098L12.752 13.7728L12.7858 13.7529V13.732L12.8394 13.7058L12.852 13.6708L12.9666 13.5142V13.4563L12.9792 13.4585V13.423L12.993 13.4258L12.9878 13.3903L13.0044 13.3923V13.3449L13.0147 13.3482V13.3102L13.0477 13.3165V13.2817L13.0626 13.285L13.06 13.249H13.0736V13.2261L13.0865 13.2294L13.0988 13.1611L13.1127 13.1629L13.1091 13.1379L13.1243 13.141V13.1052L13.1378 13.1085L13.1482 13.0621L13.164 13.0664L13.1608 13.04L13.1736 13.0433V13.0095L13.1882 13.0128L13.2126 12.9465H13.226V12.9224L13.2388 12.9241L13.2356 12.9022L13.2514 12.9032L13.2743 12.8362L13.302 12.8274V12.7919L13.326 12.7846L13.3396 12.7426L13.3625 12.735V12.7088L13.3879 12.7045V12.6786L13.4151 12.6718V12.6479L13.4398 12.6413V12.6194L13.4677 12.6101V12.5877L13.4806 12.5889L13.4899 12.5552L13.5194 12.5502V12.5257L13.5549 12.5091V12.4837L13.6191 12.4499V12.427L13.8085 12.1515V12.1178H13.8211V12.083L13.8316 12.0863V12.0359L13.8475 12.0379L13.8442 12.0168L13.8581 12.0196V11.9833L13.8714 11.9856V11.9621L13.8828 11.9631V11.9254L13.8956 11.9307V11.9052L13.9105 11.9095V11.8727L13.9198 11.875L13.9326 11.8297L13.9457 11.834V11.8098H13.9586V11.774L13.9848 11.7677V11.734L13.9966 11.736V11.7121L14.0092 11.7131L14.0072 11.6897L14.0369 11.6826L14.0334 11.6584L14.0596 11.6405V11.6151L14.0721 11.6174V11.594L14.085 11.5985V11.5731L14.1112 11.5668L14.1235 11.5217L14.15 11.5161V11.4912L14.1734 11.4829V11.4605L14.2023 11.4522L14.1983 11.4283L14.2248 11.4215V11.3975L14.2509 11.39V11.3661L14.2907 11.3482V11.328L14.3255 11.3079V11.2847L14.4917 11.0525L14.505 11.0578V11.0221L14.5189 11.0241V10.9873L14.5282 10.9906V10.9551L14.5411 10.9558V10.9117L14.5536 10.9128V10.8876L14.5675 10.8883L14.5937 10.7889L14.6053 10.7899V10.7664L14.6186 10.7687L14.6166 10.7329L14.6292 10.7362L14.6415 10.6919L14.6544 10.6932L14.668 10.6383L14.6806 10.6395L14.704 10.572L14.7166 10.573V10.5489L14.7319 10.5531L14.7304 10.531L14.7458 10.5322L14.7438 10.5088L14.7554 10.5098V10.4867L14.7828 10.4668V10.4426L14.807 10.4363L14.8183 10.3902L14.8438 10.3849L14.8574 10.3398L14.8815 10.3293L14.8964 10.2852L14.9339 10.2703L14.9321 10.2459L14.9573 10.2386V10.2144L14.9835 10.2084L14.9951 10.1734L15.0341 10.1588V10.1336L15.0623 10.1275L15.0591 10.1145L15.0845 10.1094V10.0842L15.1361 10.0578V10.0356L15.4776 9.57503V9.5511L15.4905 9.55513V9.53121L15.5179 9.52239V9.50049L15.5431 9.48034V9.45641L15.5534 9.45843V9.43627L15.5799 9.42896L15.5922 9.38263L15.605 9.3854L15.6186 9.35342L15.6428 9.34359L15.6564 9.29877L15.6934 9.2829V9.25999L15.7186 9.25243V9.22498L15.7577 9.21138V9.18721L15.807 9.16328V9.13558L15.8594 9.1104V9.0895L15.9762 9.01495L15.973 8.99053L16.0024 8.98423L16.0246 8.95174L16.052 8.95804L16.1561 8.86965L16.1812 8.87368L16.2183 8.83389L16.2432 8.83918L16.2946 8.78856L16.3177 8.79284L16.3452 8.76337L16.3716 8.7664L16.3875 8.74524L16.422 8.74146V8.72761L16.4474 8.73492L16.461 8.71402L16.4882 8.71905L16.5011 8.69614L16.5408 8.69009V8.67826L16.6177 8.66994L16.6272 8.6498L16.6544 8.65408L16.6786 8.63293L16.7061 8.63821V8.62789L16.7312 8.63091V8.62159L16.7597 8.62462L16.7713 8.60245L16.806 8.60976V8.59817L16.8587 8.59414V8.58457L16.8974 8.59112V8.57929L16.9501 8.57626V8.56594L16.9889 8.57097V8.5604L17.015 8.56594V8.55435L17.0541 8.5604V8.55007L17.0762 8.55435V8.5395L17.2979 8.50071L17.3203 8.50575L17.3339 8.48183L17.3862 8.48057L17.3988 8.45866L17.4515 8.45639V8.4438L17.4769 8.44909V8.43776L17.5517 8.42693V8.41761L17.5905 8.42038V8.41106L17.6441 8.40804V8.39746L17.6816 8.40477V8.39117L17.7093 8.39746V8.38386L17.7829 8.38815L17.7857 8.37656L17.8229 8.38261V8.36901L17.8617 8.37757V8.36699L17.9005 8.37329V8.3607L17.9521 8.36901V8.35843L18.0037 8.36699V8.35742L18.0685 8.36699V8.35742L19.0886 8.59414V8.60699L19.1287 8.61404V8.62462L19.1667 8.63091V8.6435L19.2055 8.65181V8.6634L19.2455 8.66994V8.68228L19.272 8.68782V8.69815L19.3107 8.70419V8.71905L19.3621 8.7392V8.75078L19.4009 8.75708V8.77219L19.479 8.80971V8.82004L19.5306 8.84094L19.5442 8.86738L19.5968 8.88979L19.6094 8.91473L19.6356 8.92027L19.6492 8.94646L19.6744 8.95174L19.6882 8.97768L19.7124 8.98322L19.7258 9.00841L19.7522 9.01269L19.7671 9.03989L19.792 9.04417L19.8303 9.09881L19.8575 9.1041L19.9078 9.1726L19.9355 9.17789V9.18721L19.9615 9.20685V9.23027L20.1697 9.47001L20.2078 9.50275V9.52466L20.2508 9.55639V9.57931L20.2725 9.59417L20.2866 9.63647H20.3014V9.66141L20.3254 9.67727L20.3422 9.71505L20.3516 9.71933V9.74224L20.381 9.77196V9.79387L20.3949 9.79488V9.82006L20.4075 9.82459V9.84726H20.4198V9.87168L20.4327 9.87697V9.89989L20.4412 9.9014L20.4714 9.97796L20.484 9.98224V10.0147L20.4989 10.019V10.0422L20.5115 10.0454V10.081L20.5233 10.0832V10.1094H20.5399V10.1449L20.5495 10.1484V10.1827L20.5651 10.185L20.5797 10.2713L20.5916 10.2723L20.726 10.676L20.7354 10.6816L20.7535 10.7297L20.7648 10.7329L20.7787 10.8067L20.7925 10.8085V10.8329L20.8051 10.8339L20.8472 10.9969L20.8555 10.9989V11.0367L20.8734 11.0377V11.0747L20.8859 11.0757V11.1208L20.8985 11.1263L20.9247 11.3079V12.2946L20.9008 12.4565L20.8892 12.4532V12.49L20.8754 12.4882V12.5237L20.7648 13.143L20.7552 13.141L20.7598 13.285H20.7417L20.7459 13.389L20.7323 13.387V13.4573L20.7197 13.4563V13.5258L20.7046 13.5248V13.5837L20.6933 13.5817V13.6267H20.685L20.5462 14.0662L20.5346 14.0624L20.521 14.1093L20.5085 14.1062V14.142L20.4949 14.1387L20.482 14.1838L20.4694 14.1808V14.2052L20.4558 14.2017L20.4601 14.2379L20.4327 14.246V14.2692L20.4075 14.287L20.2664 14.5953L20.2571 14.6258L20.2443 14.5953L20.2055 14.5646L20.1919 14.5122L20.1531 14.4845V14.4596L20.1267 14.4427V14.4165L20.0879 14.386L20.0584 14.3452L20.0458 14.3419V14.3188L19.994 14.2737L19.9277 14.1767L19.9028 14.1725L19.8889 14.1324H19.8751V14.0959L19.8605 14.0914V14.0546L19.8479 14.0539V14.0168L19.8323 14.0148V13.978L19.8205 13.976V13.941L19.8081 13.94V13.9022L19.7943 13.901L19.7691 13.8214H19.7522V13.797L19.7429 13.7937V13.771L19.7258 13.7678V13.7446L19.7124 13.7413V13.7161L19.7008 13.7151V13.691L19.6744 13.6625V13.6373L19.6492 13.6215L19.623 13.5449L19.5807 13.5132V13.487L19.5283 13.4439L19.516 13.4049L19.4883 13.387V13.3628L19.4485 13.3321V13.3082L19.4107 13.2777V13.2535L19.3168 13.1629L19.3032 13.1261L19.278 13.1201V13.0969L19.2254 13.0621L19.1601 12.9778L19.1307 12.973V12.9624L19.0647 12.9115V12.8896L19.03 12.8677V12.8582L18.9879 12.8403L18.9753 12.8118L18.8962 12.7748L18.8829 12.7456L18.8438 12.729V12.7161L18.8197 12.7128L18.7889 12.6824L18.7648 12.6786V12.6655L18.7406 12.6605L18.724 12.6343L18.6995 12.632V12.6194L18.6713 12.6141L18.6449 12.5847L18.6187 12.5794L18.6061 12.5534L18.4893 12.4943V12.4827L18.4631 12.4784V12.4658L18.3853 12.4406L18.0833 12.2996L17.9405 12.2598V12.2502L17.5222 12.1588L16.7406 12.1714L16.6985 12.1634V12.1747L16.624 12.1873V12.1956L16.5726 12.2009L16.5587 12.2198L16.5338 12.2157V12.2273L16.5074 12.223V12.2366L16.4809 12.2311L16.4545 12.2502L16.4295 12.2442L16.4157 12.2671L16.3389 12.2777L16.3117 12.3071L16.258 12.3114L16.2497 12.3313L16.2067 12.3376V12.3469L16.1686 12.3535L16.1717 12.3764L16.1024 12.4018V12.4122L16.0802 12.4079L16.0153 12.4691L15.9637 12.4827V12.5091L15.9249 12.5111V12.534L15.8982 12.5419V12.5552L15.872 12.5502L15.807 12.6078V12.6343L15.7974 12.632L15.7723 12.6763L15.7451 12.6698L15.7322 12.7025L15.7186 12.7013L15.7063 12.735L15.6776 12.7426L15.667 12.7874L15.6312 12.8045L15.602 12.8677L15.5743 12.8783L15.5799 12.9032L15.5534 12.9224V12.9465H15.5408V12.9695L15.5275 12.9674V12.9896L15.5146 12.9853V13.0128L15.502 13.0095V13.0327L15.4872 13.0297L15.461 13.0969H15.4484L15.3222 13.4678L15.3021 13.7036L15.2867 13.7003L15.2802 13.976H15.2895L15.3044 14.2211L15.319 14.2241L15.3348 14.3702L15.3452 14.3724L15.3484 14.4198L15.361 14.4215V14.4691L15.3726 14.4734L15.3769 14.5195L15.3875 14.5228L15.3917 14.5583L15.4031 14.5628V14.5983L15.4157 14.6016V14.6373H15.4272V14.6749L15.4431 14.6771V14.7142L15.4547 14.7152V14.7522L15.4683 14.7562V14.7907L15.4809 14.793L15.5114 14.8708L15.5229 14.8721V14.896H15.5335L15.5355 14.9212L15.5501 14.9254V14.9496L15.563 14.9506V14.9771L15.5743 14.9791V15.001L15.602 15.0315V15.0546L15.6312 15.0723L15.6564 15.1481L15.6934 15.1788L15.709 15.2302L15.7365 15.2483L15.7481 15.2861L15.7607 15.2881L15.7753 15.3271L15.7997 15.3324V15.3533L15.8385 15.386V15.409L15.868 15.4271V15.4523L15.9067 15.4838V15.4963L15.9309 15.4986L15.9604 15.5288L15.973 15.5658L16.0246 15.6119V15.6492L16.0382 15.653V15.6867L16.052 15.691L16.0551 15.7245L16.0677 15.729V15.7645L16.0802 15.7666V15.7907L16.0931 15.793L16.1064 15.8675L16.1203 15.8706L16.1498 15.9476L16.1623 15.9496V15.9741L16.1752 15.9768V16.0003L16.1832 16.0013V16.0267L16.2001 16.0305V16.0516L16.2276 16.0834V16.1063L16.2517 16.1211L16.2789 16.2L16.3177 16.2327L16.3336 16.2808L16.3598 16.2979L16.3716 16.3377L16.4253 16.3818V16.4082L16.4917 16.4679V16.4901L16.5852 16.5807L16.5978 16.6172L16.624 16.6238L16.6637 16.7152L16.6892 16.8278L16.7061 16.8298V16.8542L16.7174 16.8572V16.893L16.7312 16.894L16.7597 16.9696L16.7713 16.9738V16.997L16.7839 17.0003V17.0252L16.7975 17.0285V17.0517L16.8088 17.0539V17.0894L16.8362 17.1073L16.8521 17.1567L16.8796 17.1735L16.9035 17.2503L16.9299 17.267V17.2924L16.9564 17.309L16.972 17.3596L16.9954 17.3755V17.4007L17.0478 17.4438V17.4702L17.1034 17.5143V17.5405L17.1425 17.5722L17.1583 17.5964L17.1845 17.6017V17.6142L17.2067 17.6321V17.6563L17.2487 17.6732L17.2634 17.713L17.2875 17.7172L17.3014 17.7447L17.3137 17.7457V17.7709L17.3402 17.789L17.3528 17.8605L17.3684 17.8653V17.8895L17.3832 17.8918V17.9265L17.3948 17.9285L17.422 18.0066L17.4336 18.0099V18.0338L17.4474 18.0361V18.0612L17.4608 18.0623V18.0852L17.4746 18.0864V18.1126L17.4872 18.1139V18.1401L17.5124 18.1683L17.5144 18.1925L17.5431 18.2103L17.565 18.2871L17.6071 18.3166L17.6199 18.3556H17.6335V18.3796L17.6723 18.4133V18.4377L17.7272 18.4828V18.507L17.7786 18.5513V18.5775L17.872 18.6689L17.8836 18.7057L17.9101 18.7077V18.7331L17.9488 18.752V18.7636L18.0171 18.8266V18.8497L18.0425 18.8653V18.8888L18.0561 18.891V18.9172L18.0685 18.9192V18.9547L18.0833 18.958L18.1213 19.055H18.115L18.1057 19.1225L18.0931 19.1212V19.1451L18.0793 19.1421V19.1776L18.0657 19.1748V19.2126L18.0544 19.2104V19.2335L18.0425 19.2295V19.2663L18.0277 19.263L18.0171 19.3083L18.0037 19.304V19.3418L17.9922 19.3398L17.9645 19.406L17.9521 19.403V19.4292L17.9425 19.4239V19.4597L17.9176 19.469V19.4911L17.9038 19.4894V19.5259L17.8776 19.5319V19.5561L17.8657 19.5531V19.5753L17.8416 19.5974V19.6196L17.8154 19.6266L17.7902 19.6929L17.7635 19.7027V19.7246L17.7272 19.7415L17.7156 19.7858L17.6766 19.8044V19.8276L17.6502 19.8341L17.6366 19.8686L17.623 19.8646V19.8895L17.5842 19.9067V19.9306L17.5222 19.9888L17.3767 20.1839L17.3558 20.2212L17.3434 20.2189V20.2524L17.3316 20.2484V20.2968L17.3177 20.2957V20.3323L17.3077 20.3285L17.2875 20.3617L17.2749 20.3577V20.3955L17.2634 20.3922V20.427L17.2487 20.4249V20.4481L17.2362 20.4458V20.4829L17.2233 20.4786V20.504L17.2107 20.4995L17.177 20.5647L17.1677 20.5637L17.1518 20.61L17.1425 20.6047V20.6289L17.1289 20.6269V20.6649L17.116 20.6627L17.0901 20.671L17.0971 20.6732L17.1004 20.6972L17.0823 20.6944L17.0614 20.7614L17.0352 20.7677L17.0088 20.8349L16.9816 20.8435L16.9594 20.9057L16.9342 20.918V20.9372L16.9058 20.9445V20.9707L16.8818 20.9772V21.0011H16.867L16.8541 21.0339L16.8292 21.0402V21.0613L16.7924 21.0799V21.1054L16.7677 21.1107V21.1348L16.7406 21.1434L16.765 21.1578L16.7345 21.1631V21.1895L16.6859 21.2716V21.2955L16.5978 21.3469V21.3743L16.5464 21.3978L16.2789 21.7415L16.2664 21.7395L16.2517 21.7846L16.2432 21.7823V21.808L16.2276 21.805V21.8392L16.2183 21.8372L16.1908 21.9042L16.1772 21.9034V21.9243L16.1656 21.9223V21.9475L16.1518 21.9437L16.1561 21.9677L16.1422 21.9664V21.9896L16.116 22.0067V22.0316L16.0898 22.0399V22.0737L16.077 22.0707L16.0634 22.1064L16.0382 22.1107L16.0246 22.158L16.0024 22.1661V22.1893L15.9878 22.1865V22.2117L15.9637 22.2187V22.2422L15.9249 22.2578L15.9108 22.3041L15.872 22.32V22.3439L15.8362 22.3623V22.3852L15.8113 22.3915V22.4147L15.7577 22.4419V22.4638L15.6934 22.501V22.525L15.502 22.7604L15.4872 22.7594V22.8068L15.4748 22.8025V22.8287L15.461 22.8264L15.4157 22.9254L15.4031 22.9211L15.3917 22.9803L15.3769 22.978V23.0004L15.3676 22.9959V23.0327L15.355 23.0306L15.3275 23.0979L15.3159 23.0949V23.118L15.3021 23.1158V23.1399L15.2895 23.1389V23.1737L15.2633 23.1832V23.2157L15.2409 23.2243V23.2482L15.2275 23.2442V23.2684L15.2137 23.2664V23.2913L15.2024 23.2883V23.3114L15.1762 23.3313V23.3555L15.1515 23.3628L15.1392 23.4071L15.114 23.4134L15.1001 23.4608L15.0623 23.4769L15.0475 23.5204L15.0142 23.5366L15.0006 23.5713L14.9742 23.5809L14.9596 23.6247L14.9203 23.6396V23.665L14.8594 23.7005V23.7237L14.7941 23.7574V23.7836L14.5798 24.0276L14.5675 24.0611L14.5536 24.0581V24.1075L14.5411 24.1032L14.5282 24.1485L14.5189 24.1452L14.505 24.216L14.4917 24.2135L14.4799 24.2727L14.4663 24.2684L14.4539 24.3115L14.4401 24.3092V24.3346L14.4255 24.3316V24.3684L14.4136 24.3651L14.391 24.4333L14.3781 24.4313V24.4545L14.3653 24.4535L14.3381 24.5164L14.3116 24.5225V24.5499L14.2907 24.5681V24.5902L14.2774 24.5872V24.6131L14.2645 24.6121V24.6343L14.2416 24.6426L14.2278 24.6867L14.2023 24.6942V24.7172L14.1734 24.725V24.7489L14.15 24.7542V24.7776L14.1235 24.7869V24.8096L14.0983 24.8174V24.8413L14.0596 24.8569L14.0618 24.8816L14.0369 24.8887V24.9143L13.9848 24.9403V24.9634L13.9198 24.999V25.0201L13.8714 25.0488V25.0622L13.8442 25.0685L13.6221 25.3462L13.6098 25.3671L13.5833 25.4344L13.572 25.4334L13.5617 25.4787L13.5488 25.4767V25.5092L13.535 25.5082V25.5336L13.5229 25.5303V25.5661L13.508 25.5651L13.4637 25.627L13.4509 25.6227V25.6489L13.4398 25.6459V25.6804L13.4151 25.689V25.7121L13.3879 25.73V25.7552L13.3763 25.7542V25.7751L13.3625 25.7731V25.7963L13.3376 25.8172V25.8403L13.3136 25.8471L13.2988 25.8919L13.2743 25.9005V25.9234L13.2494 25.931V25.9531L13.223 25.9602L13.2104 26.0075L13.1693 26.0247L13.1608 26.0685L13.122 26.0854L13.056 26.1569V26.181L13.0349 26.1748L13.0079 26.2188L12.9951 26.2168V26.2377L12.9694 26.2463V26.2586L12.9419 26.2652V26.2914L12.8049 26.3838V26.4052L12.7775 26.4125L12.7153 26.4724L12.6891 26.4691L12.6722 26.4883L12.2653 26.8668L12.2529 26.8625L12.2569 26.8857L12.2436 26.8847V26.9068L12.2182 26.9277V26.9517L12.191 26.9582L12.1774 27.0033L12.1532 27.0108L12.1386 27.0559L12.1006 27.0718L12.091 27.1171L12.0522 27.135L12.0394 27.1803L12.0028 27.1949V27.2191L11.9638 27.2377V27.2601L11.9109 27.2853L11.9016 27.3198L11.887 27.3176V27.341L11.8618 27.3347L11.605 27.5754L11.579 27.5694L11.5662 27.5888L11.4652 27.6427V27.6669L11.4526 27.6638L11.4002 27.69V27.7026L11.3781 27.6973V27.7195L11.3234 27.7354V27.7479L11.2995 27.7416L11.2866 27.7628L11.2728 27.7615L11.2592 27.7837L11.0026 28.0328L10.9804 28.0403L10.9658 28.0854L10.9416 28.0899V28.1171L10.9142 28.1234V28.1473L10.8892 28.1539V28.1771L10.8658 28.1864V28.2075L10.8394 28.2158V28.24L10.8006 28.2546V28.2811L10.7754 28.2874V28.3105L10.7525 28.3156V28.3284L10.7261 28.3377V28.3599L10.6747 28.3873V28.4115L10.5863 28.4652V28.4881L10.4959 28.544L10.482 28.5767L10.4601 28.5734L10.4473 28.6059L10.4075 28.6122L10.2909 28.6838L9.95823 29.0129L9.91013 29.0771V29.1003L9.88293 29.1073L9.87134 29.1529L9.8449 29.1602L9.84717 29.1844L9.82073 29.1917L9.79655 29.2232V29.2453L9.7691 29.2526L9.75021 29.2549L9.72402 29.2599V29.2831L9.69783 29.2914V29.3146L9.65779 29.3335L9.59559 29.4042V29.4272L9.57141 29.4209L9.55681 29.4556L9.51903 29.4715V29.4967L9.45381 29.5322L9.2118 29.7132V29.7351L9.18989 29.7543L9.16017 29.75L9.13725 29.7807L9.00681 29.8404L9.01109 29.8626L8.97205 29.8686L8.89323 29.9014L8.86679 29.9318L8.84186 29.9278L8.80358 29.9447L8.79048 29.9666L8.78268 29.9835L8.77336 30.0054L8.68295 30.0255V30.0497L8.63359 30.052V30.0635L8.60715 30.058L8.59456 30.0791L8.5661 30.0739V30.0877L8.54192 30.0802L8.51573 30.0885L7.7343 30.5977L7.71239 30.5921L7.66933 30.6342L7.64742 30.6291V30.6387L7.60839 30.6586L7.59479 30.6785L7.56734 30.6732L7.55877 30.6974L7.52931 30.6891L7.50287 30.7206L7.47794 30.7165L7.45376 30.747L7.39886 30.749L7.37695 30.7808L7.35076 30.7772L7.33993 30.7964L7.28529 30.7996L7.27143 30.8205L7.22333 30.8236L7.21074 30.8435L7.18355 30.8394L7.15811 30.8616L7.13318 30.854V30.8656L7.10674 30.8616L7.09389 30.8838L7.04025 30.8855L7.04453 30.8974L7.01834 30.8931V30.9024L6.94053 30.914V30.9286L6.90175 30.917V30.9308L6.8753 30.9286V30.9374L6.7995 30.9467V30.9593L6.72295 30.955V30.9676L6.69449 30.9626V30.9762L6.57865 30.9784V30.9878L6.55346 30.9845V30.9961L6.50436 30.9878V30.9971L6.46532 30.9908V31.0046L6.42629 30.9961V31.0099L6.3865 31.0034V31.0129L6.3379 31.0046L6.12031 31.0223L5.99087 31.0109V31.0223L5.21599 30.914V30.9004L4.94149 30.8394L4.42297 30.649V30.6354L4.255 30.5702V30.5589L4.23183 30.5533V30.5397L4.19279 30.5345V30.5219L4.11271 30.4957V30.4841L4.08551 30.4796V30.4692L4.04673 30.4587V30.4483L3.99712 30.4259V30.4156L3.97219 30.4103V30.3977L3.93215 30.3917V30.3811L3.87977 30.3567V30.3451L3.85534 30.3411V30.3315L3.81429 30.3219L3.80271 30.296L3.77224 30.2927V30.2791L3.75007 30.2748V30.262L3.72288 30.259V30.2454L3.69769 30.2401L3.6715 30.2136L3.64607 30.2073L3.63348 30.1821L3.55465 30.1421L3.5408 30.1172L3.48943 30.0973L3.46399 30.0562L3.4378 30.0507L3.42093 30.0248L3.39801 30.0192L3.39474 30.0064L3.35898 29.989L3.34639 29.9615L3.3202 29.9573L3.29476 29.9172L3.26832 29.9119L3.25573 29.8867L3.22778 29.8805L3.20209 29.8414L3.17716 29.8374L3.12452 29.7669L3.09934 29.7636L3.03286 29.6795L3.00692 29.6745L2.83844 29.4778L2.73444 29.3738V29.3496L2.64101 29.2599V29.2378L2.59115 29.1917V29.1695L2.53977 29.1219L2.53574 29.1003L2.50905 29.0821V29.0592L2.47153 29.0285V29.0056L2.44307 28.9885L2.43048 28.9509L2.41889 28.9477V28.9235L2.39144 28.9066V28.8847L2.36626 28.8633V28.8424L2.34334 28.8245L2.31489 28.748L2.28744 28.7334L2.26225 28.6576L2.2348 28.6397L2.2202 28.5913L2.20761 28.5881V28.5641L2.19501 28.5609V28.5374L2.18041 28.5354V28.5112L2.17084 28.5092L2.16656 28.4838L2.15497 28.481V28.4473L2.12778 28.4302V28.3969L2.11518 28.3914L2.10234 28.3433L2.0895 28.342V28.3042H2.07615L2.06356 28.2526L2.05072 28.2496L2.03485 28.1771L2.02024 28.1725V28.1496L2.00765 28.1473V28.0993L1.99506 28.096V28.0738L1.98448 28.0718V28.0255L1.96887 28.0214V27.9844L1.95628 27.9821V27.9456L1.94344 27.9446L1.92681 27.8593L1.9185 27.8572L1.90264 27.7479L1.88778 27.7459V27.6973L1.87821 27.6953V27.6449H1.8626V27.5754L1.849 27.5712L1.83515 27.4017L1.82155 27.3987L1.78906 26.9423L1.80291 26.9456L1.82155 26.5092L1.83515 26.5125V26.4397L1.849 26.443V26.3714L1.8626 26.3745L1.87116 26.2684L1.88476 26.2717L1.88174 26.2128L1.89634 26.215L1.89433 26.1685H1.90893L1.92153 26.0876L1.93311 26.0929V26.0556L1.9457 26.0571V26.0201L1.95955 26.0247V25.9771H1.97189L1.96887 25.9539L1.98448 25.9562L2.00765 25.8529L2.02024 25.8552L2.03485 25.8111L2.04669 25.8151L2.05726 25.7426L2.07313 25.7492L2.09932 25.6804L2.11292 25.6847V25.6595L2.12123 25.6625L2.13382 25.6061L2.16026 25.5973L2.1726 25.5429L2.20131 25.5336L2.19728 25.5092L2.22347 25.4923V25.4651L2.2348 25.4694V25.446L2.24866 25.4482V25.424L2.27182 25.4195L2.3023 25.3482L2.31061 25.3513L2.3232 25.319L2.34939 25.3135V25.2883L2.37684 25.2818V25.2588L2.41562 25.241L2.42821 25.1936L2.46724 25.1823V25.1558L2.503 25.139V25.1148L2.56496 25.0803V25.0559L2.62942 25.0193V24.9972L2.67853 24.9707V24.9446L2.76063 24.9143V24.8897L2.84801 24.836L2.86161 24.8141L2.8868 24.8174L2.91425 24.7992L2.91097 24.7753L3.03915 24.7131V24.6922L3.1414 24.6512L3.15298 24.63L3.18018 24.6343L3.20662 24.6036L3.23155 24.6111L3.258 24.5774L3.28419 24.5817L3.29476 24.5618L3.33279 24.5555V24.5452L3.35898 24.5499L3.37283 24.5268L3.39801 24.5346L3.41161 24.5124L3.4378 24.5164L3.76795 24.2916L3.9596 24.0916H3.97521L4.06235 24.0035L4.07494 24.0045V23.981L4.1253 23.9433L4.16358 23.939L4.255 23.8614L4.6262 23.5952V23.5731L4.64735 23.5429L4.67556 23.5237V23.4985L4.68815 23.4995V23.4769L4.71333 23.4701V23.4482L4.73977 23.426L4.7365 23.4039L4.76168 23.3976V23.3724L4.78888 23.3661V23.3419L4.81457 23.3114L4.84076 23.3029L4.90472 23.2336L4.97926 23.1518V23.1286L5.00646 23.1316L5.07496 23.0979L5.08453 23.0991V23.077L5.13389 23.0485V23.0369L5.15932 23.0306V23.0085L5.2379 22.9604L5.38723 22.8015L5.41267 22.8025L5.49275 22.734L5.51793 22.7405L5.53984 22.672L5.56603 22.6783L5.61866 22.627L5.64485 22.6322L5.65745 22.6111L5.68389 22.6131L5.70806 22.5826L5.81635 22.5081L5.84078 22.4902L5.85639 22.4816L5.9604 22.3713L5.96972 22.325L5.98231 22.327L5.99616 22.2945L6.02159 22.2882V22.2641L6.04577 22.2578V22.2336L6.10143 22.2051L6.11074 22.1601L6.13517 22.1538L6.14852 22.122L6.21475 22.0853V22.0621L6.27695 22.0263V22.0022L6.40312 21.9191L6.41571 21.8866L6.90452 21.3829L6.93121 21.3766L6.95639 21.3104L6.98384 21.3028L7.00802 21.2336L7.01834 21.2368L7.03194 21.2031L7.05839 21.1971L7.06997 21.1515L7.10875 21.1348L7.12134 21.0905L7.15811 21.0729V21.0487L7.19714 21.0339V21.0077L7.22333 21.0011V20.9772L7.28856 20.9422L7.28529 20.919L7.35076 20.8825V20.8604L7.90378 20.0759L7.91965 20.0507L7.94584 20.0454L7.95969 19.9958L7.98563 19.993L7.99847 19.9444L8.02466 19.9392V19.914L8.05085 19.9067L8.04758 19.8822L8.07301 19.8772V19.852L8.0992 19.8457V19.8236L8.13622 19.8044V19.7835L8.17601 19.7634L8.174 19.7415L8.24023 19.7077V19.6803L8.30319 19.6478V19.6239L8.35683 19.5974L8.35381 19.5722L8.38252 19.5531L8.40644 19.5596" fill="#00B0A9"/>
<path fill-rule="evenodd" clip-rule="evenodd" d="M18.1361 19.0022L18.1742 18.8655L18.1973 18.871L18.2371 18.7124L18.2613 18.7008L18.2739 18.6703L18.2878 18.6713L18.3013 18.6386L18.3265 18.6404L18.3794 18.5562L18.4056 18.5618L18.454 18.4618L18.4801 18.4671L18.5315 18.3558L18.558 18.3611L18.6106 18.2734V18.2369L18.6368 18.2326L18.6338 18.1971L18.6577 18.1886L18.6715 18.1296L18.6854 18.1349V18.1095L18.7113 18.1024L18.7242 18.0317L18.7501 18.037L18.763 17.9561L18.7861 17.9478L18.8 17.8539L18.8252 17.8468L18.8378 17.7521L18.8652 17.7459V17.6857L18.8745 17.6889V17.6418L18.904 17.6323L18.9133 17.4902L18.9395 17.4829L18.9357 17.3872L18.9483 17.3893V17.3535L18.9629 17.3568L18.9755 17.2999L18.9881 17.3021L19.0143 17.2936L19.0269 17.2369L19.0649 17.2329L19.0626 17.1979L19.0888 17.2001L19.1047 17.142L19.1447 17.1382L19.1402 17.1002L19.1669 17.1075L19.1931 17.0286L19.2185 17.0332L19.2341 16.9634L19.2583 16.9687L19.3477 16.768L19.3716 16.7728L19.3855 16.7038L19.4109 16.7078L19.4245 16.6267L19.4487 16.6333L19.4613 16.526L19.4852 16.532L19.5242 16.3693L19.5378 16.3714L19.5504 16.2525L19.5746 16.2482L19.5844 16.0823L19.6126 16.075V16.0269H19.6265L19.6622 15.9511L19.6884 15.9561L19.726 15.9276L19.7922 15.7954L19.8146 15.8002L19.8672 15.6869L19.8934 15.6929L20.2467 14.6921L20.2606 14.6934L20.2709 14.668H20.2833V14.6934L20.2971 14.6944V14.7206L20.3097 14.7216V14.7448L20.3213 14.747V14.771L20.3359 14.7742V14.7984L20.3485 14.8004V14.8256L20.3613 14.8279V14.8508L20.3742 14.8521L20.4014 14.9276L20.4152 14.9319L20.6514 15.3419V15.3693L20.7028 15.4134V15.4366L20.7418 15.466V15.4902L20.7811 15.5219V15.5481L20.8071 15.563V15.5869L20.8348 15.6038L20.8474 15.6428H20.8597V15.668L20.8894 15.6942V15.7184L20.901 15.7206V15.7478L20.928 15.7627L20.9418 15.813L20.9514 15.8163L20.9796 15.8931L20.9944 15.8946V15.9322H21.006L21.0184 15.9813L21.0322 15.9845L21.2573 16.2981V16.322L21.3206 16.3819V16.4051L21.3737 16.4512V16.4746L21.413 16.5048V16.5282L21.4402 16.5459V16.5716L21.4782 16.6018V16.6267L21.5044 16.6416L21.517 16.6932L21.5442 16.7091L21.5696 16.7846L21.5968 16.8038L21.6087 16.8508L21.6212 16.8544L21.6379 16.9045L21.6505 16.9057V16.9423H21.6641L21.6777 16.9949L21.6895 16.9972L21.7021 17.0591L21.7169 17.0604L21.9375 17.3757V17.4001L22.0028 17.4598L22.0048 17.4817L22.0438 17.5144V17.5376L22.0796 17.5693V17.5932L22.107 17.6081L22.1239 17.6469L22.1365 17.6502V17.6721L22.1627 17.6889L22.1753 17.7403L22.1972 17.7552L22.2266 17.8342L22.2395 17.835V17.8574L22.2531 17.8607V17.8856H22.269V17.9121L22.2803 17.9143L22.3047 17.9896L22.3191 17.9919V18.0277L22.3319 18.0309V18.0538L22.3435 18.0559L22.3478 18.0916L22.3601 18.0929V18.1188L22.374 18.1223V18.1551L22.3866 18.1591V18.1926L22.4004 18.1971V18.2326L22.412 18.2347L22.4908 18.3558L22.556 18.4512L22.5686 18.4545L22.5822 18.4925L22.6213 18.5243V18.5452L22.6507 18.5651V18.5872L22.6862 18.6187V18.6404L22.7127 18.6587L22.7273 18.6975H22.7386L22.7547 18.7489L22.7809 18.769V18.7899L22.8071 18.8194V18.8436L22.821 18.8446V18.8688L22.8295 18.871L22.8323 18.8962L22.8587 18.9111V18.9468L22.8716 18.9486V18.973L22.8849 18.9771L22.8978 19.0257L22.9104 19.0284V19.0644L22.9242 19.0657V19.0899L22.9366 19.0916L22.9524 19.1549H22.966V19.1916L22.9796 19.1949L23.1342 19.4737L23.1859 19.5165V19.5437L23.2277 19.5734V19.5976L23.2529 19.6134V19.6366L23.3438 19.7859L23.3697 19.8016V19.8267L23.3992 19.8562V19.8774L23.412 19.8816V19.9046L23.4256 19.9068V19.933H23.4382V19.9549L23.4498 19.9572L23.477 20.034L23.4908 20.0393L23.7117 20.3526L23.7379 20.3946L23.7505 20.3956V20.4188L23.8071 20.4621V20.4893L23.8419 20.5198V20.5429L23.884 20.5747V20.5966L23.9094 20.6165V20.6386L23.9366 20.6545L23.9502 20.6933L23.963 20.6956L23.9754 20.7469L24.0018 20.7628L24.0134 20.8132L24.0796 20.9424H24.0985L24.0952 20.9549L24.0565 20.9708V20.9821L24.0345 20.9804V20.993L24.0038 20.9857L23.9819 21.0184L23.966 21.0139V21.0403L23.9567 21.0383L23.9386 21.0572L23.9164 21.0539L23.9028 21.0877L23.8638 21.1171L23.8482 21.1141V21.1274L23.825 21.1212V21.1327L23.7862 21.1516V21.1738L23.7621 21.1823V21.2065L23.7084 21.2327L23.6432 21.2811V21.3045L23.6296 21.303V21.3264L23.5916 21.3453V21.3549L23.5644 21.3516L23.5518 21.3745L23.5002 21.3768L23.3697 21.4125L23.3299 21.44V21.4523L23.3055 21.4473V21.4589L23.2793 21.4536L23.2529 21.4848L23.2277 21.482L23.2131 21.5019L23.1859 21.4997L23.1091 21.5661L23.0849 21.5641L23.0448 21.6052L23.0051 21.6092L22.9912 21.6427L22.9524 21.648V21.6714L22.9134 21.7016L22.9041 21.6976V21.7102L22.862 21.7162L22.8527 21.7344L22.8104 21.7288L22.8001 21.7535L22.7736 21.7467V21.7606L22.7454 21.7553V21.7648L22.6928 21.7565V21.7671L22.6135 21.7777V21.791L22.5747 21.7825L22.5769 21.7973L22.5528 21.791L22.5372 21.8119L22.4845 21.8152L22.3478 21.9043L22.169 21.9897L21.8736 22.1358L21.8335 22.1622L21.6777 22.3043L21.6411 22.3317L21.5233 22.3463L21.4984 22.3778L21.3782 22.3916L21.3676 22.4148H21.314L21.2898 22.4483L21.2636 22.4443L21.2511 22.4639L21.1941 22.4684L21.1712 22.4989L21.1196 22.5251L21.0934 22.5198V22.5437L21.069 22.5387L21.0415 22.5725L21.0121 22.5662L21.0166 22.5777L20.9891 22.5725V22.584L20.9607 22.5946L20.964 22.6155L20.9375 22.6248V22.6357L20.8861 22.6394L20.8736 22.6576L20.6054 22.6815L20.454 22.4904L20.4152 22.4596L20.4014 22.4241L20.3467 22.3768V22.3549L20.3097 22.3201V22.3012L20.2666 22.2675V22.2431L20.2412 22.2267V22.2013L20.214 22.1867L20.2014 22.138L20.1762 22.1182L20.1626 22.0698L20.1511 22.0685L20.1372 22.0184L20.1246 22.0129V21.9907L20.11 21.9875L20.0881 21.9603L20.0785 21.9592L19.9584 21.7973L19.8627 21.683V21.6671L19.8083 21.6238V21.6029L19.6811 21.4694V21.446L19.6494 21.403V21.379L19.6232 21.3629V21.34L19.5925 21.3209V21.3012L19.5676 21.2811V21.2589L19.5421 21.243V21.2191L19.5159 21.201V21.1761L19.5023 21.1748L19.4885 21.1244L19.4636 21.1086L19.4487 21.0572H19.4371L19.3875 20.9774L19.3739 20.9741V20.9373L19.3656 20.9363L19.3497 20.8847L19.3351 20.8827L19.0888 20.5397V20.5157L19.0236 20.4588V20.4337L18.9848 20.4022V20.3777L18.945 20.3483V20.3241L18.9196 20.3092V20.282L18.8934 20.2672L18.8765 20.2284L18.8672 20.2251L18.8378 20.1476L18.8136 20.1327L18.5517 19.6701L18.5358 19.629L18.4318 19.5293V19.5046L18.3794 19.4598V19.4367L18.3265 19.3916V19.3651L18.3013 19.3485L18.2878 19.3095H18.2739V19.2863L18.2497 19.2687V19.2453L18.2225 19.2284V19.2035L18.1973 19.1856V19.1652L18.1309 19.0697V19.0612L18.1384 19.0634L18.1361 19.0022Z" fill="#B9C125"/>
<path fill-rule="evenodd" clip-rule="evenodd" d="M18.0695 18.9551V18.9193L18.0569 18.9176V18.8911L18.0433 18.8889V18.8657L18.0182 18.8501V18.8267L17.9497 18.7637V18.7521L17.9109 18.7332V18.7081L17.8847 18.706L17.8731 18.669L17.7797 18.5779V18.5514L17.7283 18.5073V18.4832L17.6734 18.4378V18.4137L17.6344 18.3799V18.3557H17.621L17.6082 18.317L17.5661 18.2875L17.544 18.2107L17.5155 18.1928L17.5135 18.1686L17.488 18.1404V18.114L17.4757 18.1127V18.0868L17.4619 18.0855V18.0624L17.4483 18.0614V18.0364L17.4347 18.0342V18.01L17.4231 18.0067L17.3956 17.9289L17.384 17.9269V17.8919L17.3694 17.8899V17.8657L17.3536 17.8606L17.2075 17.6567V17.6322L17.1853 17.6146V17.602L17.1594 17.5965L17.1433 17.5725L17.1045 17.5408V17.5144L17.0486 17.4703V17.4441L16.9962 17.4008V17.3759L16.9731 17.3598L16.9574 17.3094L16.931 17.2925V17.2673L16.9046 17.2505L16.8804 17.1739L16.8532 17.1568L16.8371 17.1074L16.8099 17.0898V17.054L16.7983 17.0518V17.0288L16.7847 17.0256V17.0004L16.7723 16.9974V16.9742L16.7608 16.9697L16.7321 16.8941L16.7185 16.8931V16.8576L16.7071 16.8543V16.8302L16.69 16.8281L16.4926 16.4904V16.4683L16.4263 16.4086V16.3819L16.3727 16.3378L16.3609 16.298L16.3344 16.2812L16.3188 16.2328L16.28 16.2003L16.2526 16.1212L16.2284 16.1064V16.0837L16.2012 16.052V16.0308L16.1843 16.0268V16.0014L16.176 16.0006V15.9772L16.1634 15.9742V15.9497L16.1508 15.948L16.1214 15.8709L16.1075 15.8677L16.0939 15.7931L16.0811 15.7911L16.0687 15.7647L16.0561 15.7249L15.974 15.5662L15.932 15.4987L15.9078 15.4967V15.4841L15.869 15.4526V15.4272L15.8396 15.4093V15.3861L15.8005 15.3534V15.3325L15.7764 15.3275L15.7617 15.2882L15.7489 15.2864L15.7373 15.2484L15.7101 15.2305L15.6943 15.1791L15.6575 15.1484L15.6321 15.0726L15.6028 15.055V15.0318L15.5754 15.0014V14.9794L15.5641 14.9772V14.951L15.5512 14.95V14.9258L15.5364 14.9213L15.5346 14.8963H15.524V14.8722L15.5124 14.8709L15.482 14.7933L15.4694 14.7911V14.7563L15.4555 14.7525V14.7153L15.4439 14.7143V14.6775L15.4283 14.6752V14.6375H15.4167V14.6019L15.4041 14.5984V14.5632L15.3926 14.5586L15.3885 14.5229L15.378 14.5198L15.3737 14.4735L15.3621 14.4695V14.4219L15.3492 14.4199L15.3462 14.3728L15.3359 14.3705L15.32 14.2244L15.3052 14.2212L15.2906 13.9761H15.2812L15.2875 13.7006L15.3032 13.7037L15.3233 13.4682L15.4495 13.097H15.4621L15.4883 13.03L15.5031 13.0328V13.0099L15.5155 13.0129V12.9857L15.5283 12.99V12.9678L15.5419 12.9696V12.9469H15.5545V12.9227L15.5807 12.9036L15.5754 12.8784L15.6028 12.8678L15.6321 12.8046L15.6681 12.7878L15.6786 12.7427L15.7071 12.7354L15.7197 12.7016L15.7333 12.7029L15.7459 12.6701L15.7733 12.6764L15.7983 12.6324L15.8081 12.6344V12.6082L15.8728 12.5503L15.8992 12.5556V12.542L15.9257 12.5344V12.5112L15.9647 12.5092V12.483L16.0163 12.4692L16.0811 12.4082L16.1032 12.4125V12.4022L16.1727 12.3768L16.1697 12.3536L16.2075 12.3473V12.338L16.2505 12.3314L16.2591 12.3115L16.3125 12.3075L16.3399 12.2778L16.4168 12.2672L16.4304 12.2446L16.4555 12.2506L16.4817 12.2315L16.5084 12.2367V12.2234L16.5346 12.2274V12.2158L16.5598 12.2201L16.5736 12.2012L16.625 12.1957V12.1876L16.6996 12.1748V12.1635L16.7416 12.1715L17.5231 12.1592L17.9413 12.2506V12.2599L18.0844 12.2997L18.3863 12.441L18.4639 12.4659V12.4785L18.4903 12.483V12.4946L18.6072 12.5535L18.6198 12.5797L18.646 12.5848L18.6724 12.6142L18.7006 12.6198V12.6324L18.725 12.6344L18.7417 12.6608L18.7658 12.6656V12.6787L18.7898 12.6827L18.8205 12.7132L18.8447 12.7165V12.7291L18.8837 12.7459L18.897 12.7752L18.9764 12.8119L18.9887 12.8406L19.0308 12.8583V12.8678L19.0655 12.89V12.9119L19.1318 12.9625V12.9731L19.1612 12.9781L19.2264 13.0625L19.2791 13.097V13.1202L19.304 13.1262L19.3179 13.1632L19.4115 13.2536V13.2778L19.4493 13.3083V13.3325L19.4894 13.3632V13.3874L19.5168 13.4052L19.5294 13.444L19.5818 13.4871V13.5135L19.6241 13.5453L19.65 13.6216L19.6755 13.6377V13.6626L19.7016 13.6913V13.7152L19.7132 13.7163V13.7417L19.7268 13.745V13.7679L19.7437 13.7712V13.7941L19.7533 13.7973V13.8215H19.7701L19.8089 13.9026L20.0469 14.3191V14.3423L20.0592 14.3453L20.089 14.3861L20.1277 14.4168V14.4428L20.1539 14.4597V14.4848L20.193 14.5123L20.2063 14.5647L20.2454 14.5954L20.2579 14.6261V14.6302L20.2715 14.647V14.6682L20.2612 14.6934L20.2474 14.6921L19.894 15.6931L19.8681 15.6868L19.8155 15.8004L19.7931 15.7954L19.7268 15.9278L19.5752 16.2484L19.5513 16.2527L19.5387 16.3713L19.5249 16.3693L19.4861 16.5322L19.4619 16.5259L19.4493 16.6332L19.4254 16.6269L19.4115 16.7078L19.3864 16.704L19.3725 16.773L19.3483 16.7679L19.2592 16.9687L19.235 16.9636L19.2191 17.0331L19.194 17.0288L19.1675 17.1074L19.1454 17.1381L19.0897 17.2001L19.0655 17.2328L18.9404 17.4829L18.9046 17.6322L18.8751 17.6418V17.6891L18.8658 17.6859V17.7458L18.8386 17.7524L18.826 17.847L18.8006 17.8541L18.787 17.9478L18.7638 17.9561L18.751 18.0369L18.725 18.0319L18.7122 18.1024L18.686 18.1097V18.1349L18.6724 18.1299L18.6586 18.1885L18.6344 18.1971L18.6377 18.2329L18.6112 18.2369V18.2736L18.5586 18.3613L18.5324 18.3557L18.481 18.4673L18.4546 18.462L18.4065 18.5617L18.1982 18.871L18.137 19.0022L18.139 19.0636L18.1317 19.0614V19.0571L18.1224 19.0551L18.0844 18.9584L18.0695 18.9551Z" fill="#008D93"/>
<path fill-rule="evenodd" clip-rule="evenodd" d="M28.5093 24.1221L28.4967 24.073L28.4579 24.0412L28.444 23.9783L28.4314 23.976L28.377 23.8929L28.2076 23.7783V23.7519L28.1675 23.7343L28.1549 23.7076L28.1255 23.7028L28.0864 23.6479L28.0592 23.6426L27.9963 23.5693L27.9658 23.5273L27.9436 23.5237L27.9006 23.4545L27.8762 23.4512L27.8099 23.3555L27.7943 23.3517V23.3273L27.7142 23.2525V23.2296L27.6933 23.2117V23.1863L27.6639 23.1694V23.1465L27.6122 23.1233L27.5168 22.9151L27.4924 22.9098L27.3811 22.6617L27.3536 22.6416V22.6197L27.342 22.6154L27.3287 22.5408L27.3158 22.5386V22.5026L27.3032 22.501V22.4638L27.2884 22.4618V22.4263L27.276 22.424L27.2738 22.3756L27.2634 22.3736L27.2463 22.2976L27.234 22.2945V22.2701L27.2214 22.2673V22.2198L27.2075 22.2187L27.2053 22.1452L27.1937 22.1434L27.1919 22.0812L27.1803 22.0792L27.1781 21.9825L27.1655 21.9803L26.9728 21.3189L26.9605 21.1958L26.9466 21.1938V21.1684L26.9348 21.1676L26.9308 21.0832L26.9046 21.0633V20.9329L26.8764 20.918L26.8711 20.5395L26.8985 20.5365V20.3985L26.9237 20.4051L26.9348 20.2882H26.9466V20.2421L26.9605 20.2451V20.1819L26.9854 20.1759V20.1273L27.0119 20.1222L27.0245 20.0391L27.0519 20.0454L27.0867 19.9173L27.1129 19.9213V19.8878L27.1393 19.8908L27.2433 19.7301L27.2692 19.7362L27.3083 19.6574L27.3347 19.6627V19.6365L27.3602 19.6405L27.4241 19.5574L27.4483 19.5617V19.5375L27.4924 19.5468L27.5301 19.5163L27.5251 19.4922L27.5523 19.4977V19.4745L27.5787 19.4776L27.6059 19.4473L27.6304 19.4501L27.645 19.4302L27.683 19.4239V19.3997L27.7482 19.365L27.8646 19.3494V19.327L27.9963 19.3166V19.2902L28.1129 19.2746L28.1549 19.2849V19.2723L28.1801 19.2746V19.263L28.2295 19.2723L28.2453 19.2514L28.3864 19.2663L28.3979 19.2451L28.5186 19.2663L28.5324 19.2451L28.7407 19.2849L28.7702 19.2746L29.1205 19.3554V19.3788L29.4113 19.469V19.4922L29.4778 19.5045V19.5292L29.6911 19.5944L30.2066 19.8717L30.2937 19.9213V19.9329L30.3461 19.9432L30.3592 19.9676L30.4116 19.9787V19.9931L30.4506 20.0004V20.0097L30.4914 20.018V20.0318L30.5448 20.0401V20.0527L30.7299 20.1326V20.159L30.99 20.3041V20.3262L31.0361 20.3481L31.0855 20.4083V20.4164L31.1119 20.4232L31.1245 20.4849L31.1401 20.4861V20.5365L31.1495 20.5395V20.5597L31.1666 20.5637V20.6007L31.1792 20.6025V20.6541H31.1928V20.6773L31.2054 20.6795V20.7402L31.2318 20.7564L31.2348 20.8435L31.2613 20.8604V20.9707L31.2862 20.982L31.2895 21.1893L31.3189 21.3547L31.3063 21.3469V21.3978L31.2928 21.3945V21.6028L31.2676 21.6091L31.2696 21.7171L31.2441 21.7226V21.8085L31.218 21.8163V21.877L31.2054 21.8752V21.8972L31.1928 21.8961V21.9437L31.1822 21.9425V21.9664L31.1696 21.9634L31.154 22.0465L31.1424 22.0422L31.1308 22.1001L31.1036 22.0979V22.1442L31.0792 22.1412V22.1883L31.053 22.1832L31.0298 22.2641L31.0004 22.2578L30.9775 22.325L30.9374 22.3431V22.3797L30.886 22.4419L30.8573 22.4376L30.8606 22.4595L30.8339 22.4567V22.4817L30.8112 22.4766L30.7166 22.5902L30.6911 22.5879V22.6111L30.5735 22.6617V22.6849L30.4947 22.7078V22.7317L30.2771 22.8972L30.2487 22.8896L30.2517 22.9276L30.2247 22.9339V22.9594L30.1832 22.9757V22.9969L30.1431 23.0168V23.0402L30.095 23.0667L30.0686 23.0979V23.1233L30.0437 23.118L29.991 23.1684L29.9784 23.1661V23.1896L29.9381 23.2064L29.9248 23.2283L29.9004 23.2243L29.4841 23.5313L29.4735 23.5293L29.4599 23.5628L29.4347 23.5711V23.5942L29.4096 23.6018V23.626L29.3824 23.6333V23.6572L29.3421 23.6743V23.7005L29.304 23.7154L29.2904 23.7496L29.2391 23.7763L29.1602 23.835L29.1635 23.8582L29.1205 23.8647L29.0454 23.9352L29.0192 23.9277L29.0046 23.9508L28.9782 23.9445L28.9437 23.9866L28.9006 23.9909L28.8868 24.0128L28.8648 24.0085L28.848 24.0276L28.8258 24.0254L28.8122 24.0475L28.787 24.0412V24.0548L28.749 24.0581L28.7344 24.0813L28.708 24.0768L28.6818 24.1075L28.6566 24.1022L28.5871 24.1737L28.5914 24.1979H28.5871L28.5788 24.1863V24.1757L28.5596 24.178L28.5261 24.1256L28.5093 24.1221Z" fill="#5FAD4D"/>
<path fill-rule="evenodd" clip-rule="evenodd" d="M20.8863 22.6395L20.9377 22.6354V22.6246L20.9641 22.6153L20.9609 22.5944L20.9893 22.5838V22.5722L21.0168 22.5778L21.0122 22.5662L21.0417 22.5722L21.0692 22.5387L21.0936 22.5438V22.5196L21.1198 22.5251L21.1714 22.4987L21.1943 22.4682L21.2512 22.4639L21.2638 22.4443L21.2903 22.4481L21.3142 22.4146H21.3678L21.3784 22.3917L21.4985 22.3778L21.5235 22.3463L21.6413 22.3315L21.6781 22.3043L21.8337 22.162L21.8738 22.1358L22.1072 21.9973L22.1493 22.0046V21.9827L22.3281 21.8951L22.4847 21.8152L22.5373 21.812L22.5529 21.7911L22.5771 21.7971L22.5749 21.7825L22.6136 21.7911V21.7775L22.693 21.7669V21.7563L22.7456 21.7646V21.755L22.7738 21.7606V21.7467L22.8002 21.7533L22.8106 21.7289L22.8529 21.7341L22.8622 21.7163L22.9042 21.7102V21.6976L22.9136 21.7014L22.9526 21.6712V21.6478L22.9914 21.6427L23.0052 21.609L23.045 21.6052L23.0851 21.5639L23.1092 21.5659L23.186 21.4997L23.2132 21.5017L23.2279 21.4818L23.253 21.4848L23.2795 21.4536L23.3057 21.4589V21.4473L23.3301 21.4523V21.4398L23.3699 21.4126L23.5003 21.3765L23.7086 21.2327L23.7622 21.2066V21.1824L23.7864 21.1738V21.1517L23.8252 21.1328V21.1212L23.8484 21.1275V21.1139L23.864 21.1172L23.903 21.0877L23.9166 21.0539L23.9388 21.0572L23.9569 21.0383L23.9662 21.0401V21.0139L23.9821 21.0184L24.004 20.9857L24.0347 20.993V20.9804L24.0566 20.9822V20.9708L24.0954 20.955L24.0987 20.9424H24.1093V20.9434V20.9708L24.1639 21.0046V21.0278L24.2682 21.1086V21.1318L24.2964 21.1368V21.1612L24.3226 21.1675V21.1894L24.348 21.196L24.35 21.2189L24.3765 21.2254L24.4404 21.3327L24.4669 21.3368L24.4963 21.401L24.5235 21.4093V21.4312L24.5477 21.4357L24.6414 21.5851L24.8295 21.7911V21.8152L24.8799 21.8354V21.8593L24.9453 21.8963V21.9192L24.9715 21.9245V21.95L24.9977 21.953L25 21.9804L25.0662 22.0487L25.0934 22.056V22.0792L25.1189 22.0854V22.1066L25.145 22.1126L25.2385 22.2642L25.2649 22.2673V22.2947L25.2911 22.2977V22.3325L25.3153 22.338L25.6603 22.7281V22.752L25.6875 22.7566L25.7275 22.8236L25.7537 22.8289L25.756 22.855L25.7822 22.8593L25.8222 22.9256L25.8474 22.9288V22.9563L25.8726 22.9596L25.9159 23.053L25.9431 23.056V23.0845L25.9683 23.0862L26.0071 23.1761L26.0325 23.1832V23.2182L26.0589 23.2242L26.0746 23.261L26.0859 23.2633L26.1007 23.3272L26.1272 23.3431V23.369L26.1536 23.3862V23.4219L26.1826 23.4375L26.1944 23.5146L26.2219 23.5292V23.5808L26.2332 23.5818L26.2481 23.6438L26.2755 23.6481L26.2904 23.7722L26.303 23.7765V23.7994L26.3156 23.8004V23.874L26.3428 23.8911L26.4102 24.1223L26.4374 24.1255L26.4636 24.2275L26.4878 24.2305L26.5067 24.3179L26.5309 24.324L26.5475 24.4474L26.5719 24.4537L26.616 24.8815L26.6021 24.8795L26.6067 25.0719L26.5928 25.0696V25.156L26.5792 25.1528V25.2263L26.5573 25.2316L26.5457 25.3263L26.5183 25.321L26.4561 25.5134L26.4266 25.5083L26.3269 25.6849L26.2997 25.6899L26.2838 25.6889L26.2868 25.7239L26.2609 25.7204V25.7332L26.2083 25.7607L26.17 25.7869L26.1733 25.8239L26.0786 25.8531V25.8743L26.0725 25.872L26.0683 25.878H26.066L26.0421 25.8899H26.0325L26.0116 25.9067L25.9841 25.9047V25.914L25.958 25.9108V25.9236L25.9315 25.9176L25.9189 25.9415L25.8414 25.9498L25.8275 25.971L25.8041 25.9657L25.7928 25.9876L25.7243 26.0256L25.6875 26.0246V26.0475L25.4543 26.0646V26.0876L25.202 26.0667V26.0792L25.1778 26.0729V26.0855L25.0073 26.0551L24.5361 25.9176V25.8929L24.4309 25.8639L24.4183 25.8375L24.389 25.8312V25.8183L24.3226 25.8068V25.7932L24.2835 25.7869V25.7753L24.1546 25.7544L24.142 25.7272L23.9959 25.6977L23.9821 25.6735L23.8904 25.6534V25.6428L23.839 25.6335V25.6209L23.801 25.6123V25.5998L23.7318 25.5904L23.7179 25.5617L23.6527 25.5484V25.527L23.6003 25.5156L23.5887 25.4902L23.4983 25.4607V25.4366L23.4414 25.4272V25.4021L23.389 25.3822V25.3706L23.35 25.3588V25.3484L23.2848 25.3147V25.2885L23.2427 25.2819V25.2588L23.0344 25.0719L23.0093 25.0686V25.0435L22.9398 24.9709L22.9136 24.9679V24.9427L22.8894 24.9372V24.9143L22.6371 24.7113L22.5824 24.6743L22.5718 24.6511L22.5466 24.6448L22.5446 24.6345L22.5172 24.6292V24.6174L22.4638 24.5725L22.292 24.4547V24.4313L22.2691 24.4265V24.4L22.2268 24.3937V24.3683L22.1974 24.3653V24.3411L22.0558 24.1824L22.0284 24.1769V24.153L21.7735 23.8898V23.8656L21.7264 23.8553V23.8319L21.6834 23.811V23.7994L21.6579 23.7941L21.6446 23.7702L21.6056 23.7606L21.592 23.7344L21.5013 23.6805V23.6564L21.4751 23.6503V23.6269L21.4076 23.5911V23.5672L21.3814 23.5617L21.3784 23.5368L21.2741 23.4567V23.4325L21.2459 23.4305L21.183 23.3209L21.1553 23.3139V23.2915L21.1303 23.2864L21.1009 23.2199L21.0744 23.2149V23.1917L21.0493 23.1854V23.1517L21.0241 23.1338V23.1096L21.0105 23.1076L20.983 23.0414L20.9546 23.0371V23.0006L20.9281 22.9951L20.8896 22.953L20.8757 22.9256V22.9152L20.838 22.9062V22.8815L20.7307 22.814V22.7921L20.6254 22.7216V22.6994L20.6035 22.6861H20.6106L20.6055 22.6815L20.8737 22.6574L20.8863 22.6395Z" fill="#669D25"/>
</svg>
