<svg width="40" height="40" viewBox="0 0 40 40" fill="none" xmlns="http://www.w3.org/2000/svg">
<path fill-rule="evenodd" clip-rule="evenodd" d="M20.0083 20.1437L26.0388 23.6703V23.6805L25.9852 23.6497C23.8287 25.3534 21.7705 25.9169 19.9903 25.9174C18.2101 25.9169 16.152 25.3534 13.9954 23.6497L13.9418 23.6805V23.6703L20.0083 20.1437ZM16.9439 7.78243H16.9772L16.9439 15.0193L10.895 18.4067L10.8864 18.3965C9.65347 9.76587 16.9439 7.78243 16.9439 7.78243V7.78243ZM29.0946 18.3965L29.086 18.4067L23.0371 15.0193L23.004 7.78243H23.0371C23.0371 7.78243 30.3275 9.76587 29.0946 18.3965V18.3965ZM34.8228 22.2901C33.2028 26.317 30.4882 27.4557 30.4882 27.4557C38.4755 19.3613 33.5973 10.0338 33.5973 10.0338C32.418 7.94314 33.919 7.03184 33.919 7.03184C30.4882 7.88954 31.5603 10.7307 31.5603 10.7307C33.2843 14.8367 32.9371 18.1724 32.3516 20.2353L31.2211 19.6022L31.2386 19.5757C31.2386 19.5757 33.9172 9.02127 22.9925 5.31966L22.9833 3.33301H20.6782V16.4129L31.3995 22.5239C31.2041 22.9207 30.9972 23.2941 30.7814 23.6474L20.013 17.4094L9.1993 23.6474C8.98359 23.2941 8.77656 22.9207 8.58122 22.5239L19.3025 16.4129V3.33301H16.9974L16.9883 5.31966C6.06344 9.02127 8.74204 19.5757 8.74204 19.5757L8.75973 19.6022L7.62917 20.2353C7.04369 18.1724 6.69642 14.8367 8.4204 10.7307C8.4204 10.7307 9.49253 7.88954 6.06173 7.03184C6.06173 7.03184 7.5627 7.94314 6.38336 10.0338C6.38336 10.0338 1.5052 19.3613 9.49253 27.4557C9.49253 27.4557 6.77791 26.317 5.15803 22.2901C5.15803 22.2901 4.23911 20.3262 1.66602 20.755C1.66602 20.755 2.63704 21.1949 3.20741 22.9745C3.20741 22.9745 5.52566 30.3504 14.4779 31.4762V35.5503H18.8736V29.5464C18.8736 29.5464 14.2104 29.5093 10.6503 25.5918L11.7551 24.9469C11.961 25.1416 15.3459 28.2741 19.9635 28.3562V28.358C19.9725 28.3578 19.9813 28.3572 19.9903 28.3569C19.9993 28.3572 20.0081 28.3578 20.0171 28.358V28.3562C24.6349 28.2741 28.0198 25.1416 28.2257 24.9469L29.3304 25.5918C25.7704 29.5093 21.1071 29.5464 21.1071 29.5464V35.5503H25.5028V31.4762C34.455 30.3504 36.7733 22.9745 36.7733 22.9745C37.3436 21.1949 38.3147 20.755 38.3147 20.755C35.7416 20.3262 34.8228 22.2901 34.8228 22.2901V22.2901Z" fill="#AB924B"/>
</svg>
