<svg width="40" height="40" viewBox="0 0 40 40" fill="none" xmlns="http://www.w3.org/2000/svg">
<g clip-path="url(#clip0_1408_1528)">
<path d="M13.9483 26.8195L13.8912 26.8775C12.9951 27.8361 11.9581 28.3425 10.89 28.3425C8.65906 28.3425 7.04072 26.5855 7.04072 24.1619C7.04072 21.7421 8.65906 19.9823 10.89 19.9823C11.9581 19.9823 12.9951 20.4915 13.8912 21.4538L13.9483 21.5109L15.3829 19.6893L15.3446 19.6406C14.1516 18.1606 12.7196 17.4408 10.9595 17.4408C9.19493 17.4408 7.57927 18.0652 6.41657 19.1894C5.15043 20.4082 4.48438 22.1269 4.48438 24.1619C4.48438 26.197 5.15043 27.9194 6.41657 29.1382C7.57927 30.269 9.19493 30.8887 10.9595 30.8887C12.7196 30.8887 14.1516 30.1679 15.3446 28.687L15.3829 28.6421L13.9483 26.8195Z" fill="#004685"/>
<path d="M16.8301 30.6387H19.3641V17.6495H16.8301V30.6387Z" fill="#004685"/>
<path d="M29.2893 27.8171C28.6126 28.2496 27.984 28.4677 27.4187 28.4677C26.5992 28.4677 26.2283 28.0127 26.2283 27.0018V20.1093H28.8114V17.6642H26.2283V13.6222L23.7451 15.0188V17.6642H21.6016V20.1093H23.7451V27.4408C23.7451 29.4375 24.8721 30.8042 26.5555 30.8397C27.6977 30.8631 28.3861 30.5055 28.8034 30.2434L28.8301 30.2257L29.4391 27.7207L29.2893 27.8171Z" fill="#004685"/>
<path d="M31.3906 30.6387H33.9283V17.6495H31.3906V30.6387Z" fill="#004685"/>
<path d="M35.4075 15.3719C33.0919 11.929 29.2471 9.87518 25.3355 9.87518C21.4247 9.87518 17.5791 11.929 15.2679 15.3719L15.1484 15.5488H18.0641L18.0962 15.5123C20.0801 13.3612 22.6712 12.2248 25.3355 12.2248C27.9997 12.2248 30.5891 13.3612 32.5774 15.5123L32.6095 15.5488H35.5234L35.4075 15.3719Z" fill="#EE1C25"/>
</g>
<defs>
<clipPath id="clip0_1408_1528">
<rect width="31.4583" height="21.4516" fill="white" transform="translate(4.27148 9.6543)"/>
</clipPath>
</defs>
</svg>
