<svg width="40" height="40" viewBox="0 0 40 40" fill="none" xmlns="http://www.w3.org/2000/svg">
<path fill-rule="evenodd" clip-rule="evenodd" d="M38.1997 19.2468C38.1997 28.9508 30.0167 36.8111 19.9367 36.8111C9.84708 36.8111 1.66602 28.9508 1.66602 19.2468C1.66602 9.54645 9.84708 1.68066 19.9367 1.68066C30.0167 1.68066 38.1997 9.54645 38.1997 19.2468" fill="#FEFEFE"/>
<path fill-rule="evenodd" clip-rule="evenodd" d="M19.9375 35.9258C29.5509 35.9258 37.3399 28.4361 37.3399 19.1921C37.3399 9.94261 29.5509 2.44922 19.9375 2.44922C10.3202 2.44922 2.5293 9.94261 2.5293 19.1921C2.5293 28.4397 10.3202 35.9258 19.9375 35.9258" fill="#0083C9"/>
<mask id="mask0_1408_1547" style="mask-type:luminance" maskUnits="userSpaceOnUse" x="2" y="2" width="36" height="34">
<path fill-rule="evenodd" clip-rule="evenodd" d="M19.9337 2.44531C29.5548 2.44531 37.3343 9.93688 37.3343 19.1863C37.3343 28.4358 29.5548 35.9274 19.9337 35.9274C10.3127 35.9274 2.5332 28.4358 2.5332 19.1863" fill="white"/>
</mask>
<g mask="url(#mask0_1408_1547)">
<path fill-rule="evenodd" clip-rule="evenodd" d="M20.0103 27.2636C27.6616 27.2636 34.221 29.3227 37.0226 32.2343C37.9692 30.1496 38.4837 27.8587 38.4837 25.4437C38.4837 15.8437 30.207 8.06738 20.0103 8.06738C9.81936 8.06738 1.5293 15.8528 1.5293 25.4528C1.5293 27.8587 2.04755 30.1496 2.9999 32.2343C5.79576 29.3227 12.359 27.2636 20.0103 27.2636" fill="#0083C9"/>
<path fill-rule="evenodd" clip-rule="evenodd" d="M20.0036 27.2899C27.632 27.2899 34.1742 29.3234 36.9758 32.2039C37.9186 30.1467 38.4349 27.8722 38.4349 25.4864C38.4349 15.9594 30.1754 8.21777 20.0036 8.21777C9.83751 8.21777 1.57422 15.9594 1.57422 25.4864C1.57422 27.8758 2.09247 30.1467 3.03717 32.2039C5.8273 29.3234 12.3695 27.2899 20.0036 27.2899" fill="#0084CB"/>
<path fill-rule="evenodd" clip-rule="evenodd" d="M20.0046 27.302C27.612 27.302 34.1331 29.3228 36.929 32.1814C37.8679 30.1405 38.3862 27.8898 38.3862 25.5113C38.3862 16.0628 30.1439 8.36133 20.0046 8.36133C9.86148 8.36133 1.62305 16.0683 1.62305 25.5204C1.62305 27.8934 2.13938 30.1405 3.07644 32.1814C5.86465 29.3228 12.3934 27.302 20.0046 27.302" fill="#0086CC"/>
<path fill-rule="evenodd" clip-rule="evenodd" d="M20.0017 27.3167C27.5937 27.3167 34.0958 29.3229 36.8801 32.1614C37.8191 30.137 38.3354 27.9027 38.3354 25.5479C38.3354 16.1834 30.1161 8.5166 20.0017 8.5166C9.88341 8.5166 1.66602 16.1834 1.66602 25.5588C1.66602 27.9027 2.17661 30.137 3.11367 32.1614C5.89041 29.3229 12.4115 27.3167 20.0017 27.3167" fill="#0088CD"/>
<path fill-rule="evenodd" clip-rule="evenodd" d="M19.9969 27.3382C27.5717 27.3382 34.0623 29.3225 36.839 32.1428C37.7761 30.133 38.2886 27.9132 38.2886 25.5767C38.2886 16.2907 30.0922 8.66406 19.9969 8.66406C9.90538 8.66406 1.71094 16.2907 1.71094 25.5913C1.71094 27.9132 2.22919 30.133 3.15668 32.1428C5.93724 29.3225 12.4297 27.3382 19.9969 27.3382" fill="#0089CE"/>
<path fill-rule="evenodd" clip-rule="evenodd" d="M19.996 27.3569C27.5478 27.3569 34.0154 29.3302 36.7903 32.1176C37.7273 30.1298 38.2341 27.921 38.2341 25.6246C38.2341 16.3934 30.0607 8.81055 19.996 8.81055C9.92931 8.81055 1.75781 16.3934 1.75781 25.6246C1.75781 27.921 2.2665 30.1298 3.19973 32.1176C5.96691 29.3302 12.4421 27.3569 19.996 27.3569" fill="#008BCF"/>
<path fill-rule="evenodd" clip-rule="evenodd" d="M19.9929 27.3773C27.5276 27.3773 33.9761 29.3305 36.7471 32.1015C37.6784 30.1264 38.1852 27.9396 38.1852 25.6523C38.1852 16.5105 30.0386 8.95508 19.9929 8.95508C9.95499 8.95508 1.79688 16.5105 1.79688 25.6559C1.79688 27.9396 2.31512 30.1264 3.24262 32.1015C5.99832 29.3305 12.4583 27.3773 19.9929 27.3773" fill="#008DD1"/>
<path fill-rule="evenodd" clip-rule="evenodd" d="M19.9921 27.3915C27.5 27.3915 33.9466 29.3338 36.6984 32.0738C37.624 30.1224 38.1346 27.9592 38.1346 25.6884C38.1346 16.6178 30.009 9.10254 19.9921 9.10254C9.98091 9.10254 1.84766 16.6215 1.84766 25.6939C1.84766 27.9592 2.35443 30.126 3.28001 32.0738C6.03572 29.3338 12.4784 27.3915 19.9921 27.3915" fill="#008FD2"/>
<path fill-rule="evenodd" clip-rule="evenodd" d="M19.9911 27.4122C27.4837 27.4122 33.9073 29.3344 36.6592 32.0561C37.5809 30.1138 38.0839 27.9653 38.0839 25.7182C38.0839 16.7334 29.9793 9.25098 19.9911 9.25098C10.0067 9.25098 1.89062 16.7334 1.89062 25.7218C1.89062 27.9744 2.40314 30.1138 3.3268 32.0561C6.07104 29.3344 12.4927 27.4122 19.9911 27.4122" fill="#0091D3"/>
<path fill-rule="evenodd" clip-rule="evenodd" d="M19.9844 27.4298C27.4541 27.4298 33.8758 29.3338 36.6104 32.0372C37.5303 30.1059 38.0447 27.9811 38.0447 25.7541C38.0447 16.835 29.9478 9.40918 19.9844 9.40918C10.0249 9.40918 1.9375 16.8387 1.9375 25.7541C1.9375 27.9811 2.4481 30.1059 3.36794 32.0372C6.10835 29.3338 12.5186 27.4298 19.9844 27.4298" fill="#0093D4"/>
<path fill-rule="evenodd" clip-rule="evenodd" d="M19.9835 27.454C27.434 27.454 33.8308 29.3342 36.5617 32.0139C37.4873 30.1009 37.9845 27.9943 37.9845 25.7837C37.9845 16.9487 29.922 9.55566 19.9835 9.55566C10.0488 9.55566 1.98438 16.9487 1.98438 25.7874C1.98438 27.9962 2.4835 30.1009 3.40717 32.0139C6.13993 29.3342 12.5348 27.454 19.9835 27.454" fill="#0094D6"/>
<path fill-rule="evenodd" clip-rule="evenodd" d="M19.9749 27.4683C27.4178 27.4683 33.7878 29.3376 36.5149 31.9899C37.4309 30.1006 37.9396 28.0123 37.9396 25.8163C37.9396 17.0524 29.8924 9.70508 19.9749 9.70508C10.0784 9.70508 2.03125 17.0597 2.03125 25.8163C2.03125 28.0123 2.53038 30.1006 3.45213 31.9899C6.17341 29.3376 12.5473 27.4683 19.9749 27.4683" fill="#0096D7"/>
<path fill-rule="evenodd" clip-rule="evenodd" d="M19.9758 27.4879C27.3976 27.4879 33.7581 29.3371 36.466 31.9766C37.3821 30.0928 37.8888 28.0154 37.8888 25.845C37.8888 17.1633 29.8684 9.85059 19.9758 9.85059C10.0966 9.85059 2.07422 17.1724 2.07422 25.8578C2.07422 28.0191 2.57334 30.0964 3.48745 31.9766C6.203 29.3371 12.5635 27.4879 19.9758 27.4879" fill="#0098D8"/>
<path fill-rule="evenodd" clip-rule="evenodd" d="M19.9768 27.4993C27.3738 27.4993 33.7114 29.3412 36.4288 31.9497C37.3334 30.0932 37.8382 28.0451 37.8382 25.8801C37.8382 17.2805 29.8427 9.99707 19.9768 9.99707C10.1224 9.99707 2.12305 17.2805 2.12305 25.8856C2.12305 28.0451 2.62026 30.0932 3.53054 31.9497C6.23844 29.3412 12.5817 27.4993 19.9768 27.4993" fill="#009AD9"/>
<path fill-rule="evenodd" clip-rule="evenodd" d="M19.9757 27.527C27.3479 27.527 33.6759 29.3415 36.3838 31.9336C37.2845 30.0844 37.7836 28.0527 37.7836 25.9133C37.7836 17.3922 29.8072 10.1416 19.9757 10.1416C10.1462 10.1416 2.16406 17.3922 2.16406 25.9133C2.16406 28.0527 2.65554 30.0844 3.56773 31.9336C6.2718 29.3415 12.5979 27.527 19.9757 27.527" fill="#009CDB"/>
<path fill-rule="evenodd" clip-rule="evenodd" d="M19.971 27.5472C27.3278 27.5472 33.6348 29.3416 36.3293 31.9082C37.2415 30.0845 37.7368 28.0656 37.7368 25.9481C37.7368 17.5019 29.7776 10.2969 19.971 10.2969C10.1778 10.2969 2.21094 17.5019 2.21094 25.9518C2.21094 28.0656 2.71197 30.0845 3.61461 31.9082C6.30529 29.3416 12.6161 27.5472 19.971 27.5472" fill="#009EDC"/>
<path fill-rule="evenodd" clip-rule="evenodd" d="M19.97 27.5631C27.3115 27.5631 33.5993 29.3411 36.2843 31.8839C37.1927 30.0767 37.6918 28.0724 37.6918 25.9786C37.6918 17.609 29.7498 10.4424 19.97 10.4424C10.194 10.4424 2.25391 17.6127 2.25391 25.9786C2.25391 28.0724 2.74921 30.0804 3.65566 31.8839C6.34252 29.3411 12.6399 27.5631 19.97 27.5631" fill="#00A0DD"/>
<path fill-rule="evenodd" clip-rule="evenodd" d="M19.969 27.5855C27.2819 27.5855 33.5659 29.3525 36.2451 31.8661C37.1439 30.0772 37.643 28.0911 37.643 26.0192C37.643 17.719 29.7278 10.5889 19.969 10.5889C10.2198 10.5889 2.29883 17.719 2.29883 26.0192C2.29883 28.0911 2.79795 30.0772 3.69485 31.8661C6.38171 29.3525 12.66 27.5855 19.969 27.5855" fill="#00A2DE"/>
<path fill-rule="evenodd" clip-rule="evenodd" d="M19.9603 27.6019C27.2617 27.6019 33.5189 29.3525 36.1962 31.8515C37.095 30.0662 37.5884 28.1039 37.5884 26.0429C37.5884 17.8303 29.6942 10.7422 19.9603 10.7422C10.2341 10.7422 2.3418 17.8303 2.3418 26.0484C2.3418 28.1039 2.84092 30.0662 3.7359 31.8515C6.40938 29.3525 12.6704 27.6019 19.9603 27.6019" fill="#00A4E0"/>
<path fill-rule="evenodd" clip-rule="evenodd" d="M19.9614 27.6196C27.2398 27.6196 33.4875 29.3519 36.1495 31.8272C37.0521 30.062 37.5378 28.1179 37.5378 26.0808C37.5378 17.9485 29.6723 10.8877 19.9614 10.8877C10.2638 10.8877 2.39062 17.9485 2.39062 26.0808C2.39062 28.1125 2.88593 30.0657 3.78282 31.8272C6.44673 29.3519 12.6963 27.6196 19.9614 27.6196" fill="#00A6E1"/>
<path fill-rule="evenodd" clip-rule="evenodd" d="M19.9603 27.6348C27.21 27.6348 33.4405 29.3598 36.0986 31.8004C37.0013 30.0571 37.4966 28.1404 37.4966 26.1105C37.4966 18.0513 29.6406 11.0361 19.9603 11.0361C10.2895 11.0361 2.42969 18.0513 2.42969 26.1105C2.42969 28.1404 2.9269 30.0571 3.82188 31.8004C6.47815 29.3598 12.7124 27.6348 19.9603 27.6348" fill="#00A8E2"/>
<path fill-rule="evenodd" clip-rule="evenodd" d="M19.9575 27.6565C27.1919 27.6565 33.4051 29.3597 36.0538 31.7784C36.9564 30.0497 37.4402 28.1476 37.4402 26.1487C37.4402 18.1552 29.6091 11.1875 19.9575 11.1875C10.3154 11.1875 2.47852 18.1643 2.47852 26.1487C2.47852 28.1439 2.97382 30.0533 3.85924 31.7784C6.51359 29.3597 12.7249 27.6565 19.9575 27.6565" fill="#00AAE4"/>
<path fill-rule="evenodd" clip-rule="evenodd" d="M19.9564 27.6727C27.1718 27.6727 33.364 29.3594 36.0107 31.7635C36.9037 30.0494 37.3837 28.1564 37.3837 26.1758C37.3837 18.2681 29.5852 11.3369 19.9564 11.3369C10.3373 11.3369 2.52148 18.2717 2.52148 26.1758C2.52148 28.1564 3.01296 30.0494 3.90603 31.7635C6.54699 29.3594 12.7411 27.6727 19.9564 27.6727" fill="#00ADE5"/>
<path fill-rule="evenodd" clip-rule="evenodd" d="M19.9517 27.6896C27.1555 27.6896 33.3324 29.3653 35.9677 31.7366C36.8493 30.048 37.3407 28.1751 37.3407 26.211C37.3407 18.3744 29.5536 11.4834 19.9517 11.4834C10.3631 11.4834 2.56836 18.3835 2.56836 26.211C2.56836 28.1715 3.05983 30.0499 3.94908 31.7366C6.58048 29.3653 12.7593 27.6896 19.9517 27.6896" fill="#00AFE6"/>
<path fill-rule="evenodd" clip-rule="evenodd" d="M19.9508 27.7127C27.124 27.7127 33.2933 29.3647 35.917 31.7176C36.7986 30.0383 37.2844 28.1781 37.2844 26.2432C37.2844 18.4924 29.5221 11.627 19.9508 11.627C10.3852 11.627 2.61719 18.4924 2.61719 26.2432C2.61719 28.1781 3.09719 30.0474 3.98452 31.7176C6.61401 29.3647 12.7795 27.7127 19.9508 27.7127" fill="#00B1E8"/>
<path fill-rule="evenodd" clip-rule="evenodd" d="M19.9516 27.7243C27.1096 27.7243 33.2482 29.3672 35.8758 31.691C36.7612 30.039 37.2412 28.1989 37.2412 26.2731C37.2412 18.5953 29.4943 11.7773 19.9516 11.7773C10.4089 11.7773 2.65625 18.5953 2.65625 26.2731C2.65625 28.1989 3.14008 30.039 4.02741 31.691C6.65116 29.3672 12.7956 27.7243 19.9516 27.7243" fill="#00B3E9"/>
<path fill-rule="evenodd" clip-rule="evenodd" d="M19.947 27.7498C27.0782 27.7498 33.2111 29.3672 35.8253 31.6782C36.7088 30.0335 37.1926 28.2099 37.1926 26.3151C37.1926 18.7121 29.4725 11.9307 19.947 11.9307C10.4349 11.9307 2.71094 18.7121 2.71094 26.3151C2.71094 28.2099 3.19094 30.0389 4.0668 31.6782C6.68673 29.3672 12.812 27.7498 19.947 27.7498" fill="#00B5EA"/>
<path fill-rule="evenodd" clip-rule="evenodd" d="M19.9383 27.7607C27.0618 27.7607 33.1737 29.3671 35.784 31.6562C36.6637 30.0224 37.1437 28.2244 37.1437 26.3424C37.1437 18.8216 29.4446 12.0693 19.9383 12.0693C10.4625 12.0693 2.75 18.8216 2.75 26.3424C2.75 28.2244 3.23 30.0334 4.11351 31.6562C6.71623 29.3671 12.8339 27.7607 19.9383 27.7607" fill="#00B8EC"/>
<path fill-rule="evenodd" clip-rule="evenodd" d="M19.9374 27.7876C27.036 27.7876 33.1345 29.3666 35.7315 31.6338C36.6131 30.0183 37.095 28.2458 37.095 26.3748C37.095 18.9343 29.4188 12.2295 19.9374 12.2295C10.4808 12.2295 2.79883 18.9343 2.79883 26.3748C2.79883 28.2422 3.27118 30.022 4.14704 31.6338C6.75358 29.3666 12.8425 27.7876 19.9374 27.7876" fill="#03BAED"/>
<path fill-rule="evenodd" clip-rule="evenodd" d="M19.9383 27.8045C27.014 27.8045 33.0953 29.3671 35.6884 31.6032C36.5624 30.0188 37.0405 28.2554 37.0405 26.4135C37.0405 19.0461 29.3891 12.376 19.9383 12.376C10.5008 12.376 2.8418 19.0461 2.8418 26.4135C2.8418 28.2554 3.31989 30.0188 4.19575 31.6032C6.78699 29.3671 12.8587 27.8045 19.9383 27.8045" fill="#12BCEF"/>
<path fill-rule="evenodd" clip-rule="evenodd" d="M19.9374 27.826C26.9901 27.826 33.06 29.3703 35.6397 31.5901C36.5156 30.0056 36.9918 28.2733 36.9918 26.4442C36.9918 19.1516 29.3576 12.5234 19.9374 12.5234C10.5286 12.5234 2.89062 19.1516 2.89062 26.4442C2.89062 28.2678 3.36106 30.0184 4.23119 31.5901C6.82243 29.3703 12.8827 27.826 19.9374 27.826" fill="#1BBFF0"/>
<path fill-rule="evenodd" clip-rule="evenodd" d="M19.9344 27.8405C26.9719 27.8405 33.0149 29.3738 35.5966 31.5625C36.4667 30 36.9372 28.2859 36.9372 26.4732C36.9372 19.2628 29.3298 12.6748 19.9344 12.6748C10.5466 12.6748 2.93164 19.2628 2.93164 26.4732C2.93164 28.2804 3.4059 30.0054 4.27794 31.5625C6.8558 29.3738 12.8988 27.8405 19.9344 27.8405" fill="#20C3F3"/>
<path fill-rule="evenodd" clip-rule="evenodd" d="M19.9331 27.8794C26.9552 27.8794 33.004 29.4072 35.58 31.585C36.4443 30.0388 36.9129 28.3248 36.9129 26.5285C36.9129 19.3582 29.3189 12.8086 19.9331 12.8086C10.5625 12.8086 2.95898 19.3582 2.95898 26.5285C2.95898 28.3211 3.43134 30.0388 4.29763 31.585C6.86784 29.4072 12.9071 27.8794 19.9331 27.8794" fill="#32C5F3"/>
<path fill-rule="evenodd" clip-rule="evenodd" d="M19.9372 27.9211C26.9517 27.9211 32.9814 29.4399 35.5535 31.603C36.4179 30.0624 36.8959 28.3647 36.8959 26.5831C36.8959 19.4603 29.3039 12.9453 19.9372 12.9453C10.5724 12.9453 2.97266 19.4603 2.97266 26.5831C2.97266 28.3611 3.45266 30.066 4.31513 31.603C6.88343 29.4399 12.9169 27.9211 19.9372 27.9211" fill="#3FC6F3"/>
<path fill-rule="evenodd" clip-rule="evenodd" d="M19.9378 27.9646C26.937 27.9646 32.9667 29.4688 35.5311 31.621C36.3955 30.0931 36.8736 28.3991 36.8736 26.6284C36.8736 19.5531 29.293 13.0801 19.9378 13.0801C10.5902 13.0801 3.00195 19.5531 3.00195 26.6284C3.00195 28.3991 3.47431 30.0931 4.33678 31.621C6.91081 29.4688 12.929 27.9646 19.9378 27.9646" fill="#4AC8F4"/>
<path fill-rule="evenodd" clip-rule="evenodd" d="M19.9382 28.0164C26.9355 28.0164 32.948 29.506 35.5086 31.6381C36.3768 30.123 36.8492 28.4454 36.8492 26.682C36.8492 19.6596 29.2782 13.2158 19.9382 13.2158C10.604 13.2158 3.02344 19.6596 3.02344 26.682C3.02344 28.4399 3.4977 30.1266 4.35635 31.6381C6.92273 29.506 12.9352 28.0164 19.9382 28.0164" fill="#54C9F4"/>
<path fill-rule="evenodd" clip-rule="evenodd" d="M19.9368 28.052C26.9246 28.052 32.9294 29.5324 35.49 31.6609C36.3487 30.1458 36.8287 28.4792 36.8287 26.7341C36.8287 19.7554 29.2653 13.3555 19.9368 13.3555C10.6122 13.3555 3.04883 19.7554 3.04883 26.7341C3.04883 28.4792 3.51736 30.1494 4.38174 31.6609C6.9443 29.5324 12.9357 28.052 19.9368 28.052" fill="#5CCBF4"/>
<path fill-rule="evenodd" clip-rule="evenodd" d="M19.9373 28.0962C26.9174 28.0962 32.9146 29.5694 35.4695 31.6777C36.3281 30.1717 36.7986 28.5216 36.7986 26.7892C36.7986 19.8562 29.2562 13.4873 19.9373 13.4873C10.6222 13.4873 3.07227 19.8562 3.07227 26.7892C3.07227 28.5216 3.54079 30.1827 4.39944 31.6777C6.95626 29.5694 12.9591 28.0962 19.9373 28.0962" fill="#64CDF5"/>
<path fill-rule="evenodd" clip-rule="evenodd" d="M19.9377 28.1432C26.9083 28.1432 32.9016 29.6018 35.447 31.6901C36.3094 30.2023 36.7818 28.5613 36.7818 26.8344C36.7818 19.9489 29.2356 13.6201 19.9377 13.6201C10.6456 13.6201 3.0918 19.958 3.0918 26.8344C3.0918 28.5613 3.56224 30.2023 4.41897 31.6901C6.97962 29.6018 12.9653 28.1432 19.9377 28.1432" fill="#6CCEF5"/>
<path fill-rule="evenodd" clip-rule="evenodd" d="M19.9382 28.178C26.901 28.178 32.881 29.6347 35.4321 31.7175C36.285 30.2353 36.765 28.5978 36.765 26.8892C36.765 20.0494 29.2265 13.7607 19.9382 13.7607C10.6517 13.7607 3.11133 20.0494 3.11133 26.8892C3.11133 28.5978 3.58942 30.2389 4.44042 31.7175C6.99532 29.6347 12.9753 28.178 19.9382 28.178" fill="#73D0F5"/>
<path fill-rule="evenodd" clip-rule="evenodd" d="M19.9368 28.2226C26.8825 28.2226 32.8567 29.6647 35.4039 31.7329C36.2664 30.2689 36.7369 28.6424 36.7369 26.9375C36.7369 20.1487 29.2156 13.8984 19.9368 13.8984C10.6638 13.8984 3.13867 20.1487 3.13867 26.9375C3.13867 28.6424 3.60911 30.2689 4.46011 31.7329C7.01119 29.6647 12.9797 28.2226 19.9368 28.2226" fill="#7AD2F6"/>
<path fill-rule="evenodd" clip-rule="evenodd" d="M19.9372 28.2683C26.8829 28.2683 32.8437 29.7013 35.3814 31.753C36.2438 30.2872 36.7105 28.6808 36.7105 26.9941C36.7105 20.251 29.2025 14.0391 19.9372 14.0391C10.6795 14.0391 3.15625 20.251 3.15625 26.9941C3.15625 28.6808 3.63434 30.2909 4.48343 31.753C7.02686 29.7013 12.9877 28.2738 19.9372 28.2683" fill="#81D3F6"/>
<path fill-rule="evenodd" clip-rule="evenodd" d="M19.9378 28.3006C26.872 28.3006 32.8233 29.739 35.3686 31.7707C36.212 30.3177 36.6862 28.7204 36.6862 27.0447C36.6862 20.3454 29.1917 14.1699 19.9378 14.1699C10.6897 14.1699 3.1875 20.3454 3.1875 27.0447C3.1875 28.7204 3.65603 30.3232 4.50703 31.7707C7.04472 29.739 12.9998 28.3042 19.9378 28.3006" fill="#87D5F6"/>
<path fill-rule="evenodd" clip-rule="evenodd" d="M19.9381 28.3515C26.8608 28.3515 32.8083 29.7626 35.3441 31.7833C36.197 30.3504 36.6693 28.7622 36.6693 27.0993C36.6693 20.4364 29.1767 14.3066 19.9381 14.3066C10.7053 14.3066 3.20117 20.4364 3.20117 27.0993C3.20117 28.7622 3.67352 30.354 4.52261 31.7833C7.06413 29.7626 13.0135 28.3515 19.9381 28.3515" fill="#8ED7F7"/>
<path fill-rule="evenodd" clip-rule="evenodd" d="M19.9368 28.3902C26.8519 28.3902 32.7878 29.7995 35.3198 31.8056C36.1708 30.3745 36.6431 28.7991 36.6431 27.1453C36.6431 20.5427 29.1639 14.4385 19.9368 14.4385C10.7154 14.4385 3.22852 20.5427 3.22852 27.1453C3.22852 28.7991 3.69513 30.3781 4.5423 31.8056C7.08 29.7995 13.0217 28.3902 19.9368 28.3902" fill="#94D9F7"/>
<path fill-rule="evenodd" clip-rule="evenodd" d="M19.9373 28.4391C26.841 28.4391 32.7731 29.8283 35.2974 31.8271C36.1484 30.4033 36.6265 28.8371 36.6265 27.2015C36.6265 20.6409 29.153 14.5859 19.9373 14.5859C10.7236 14.5859 3.25586 20.6445 3.25586 27.2015C3.25586 28.8371 3.71865 30.4033 4.57156 31.8271C7.10352 29.8283 13.0318 28.4391 19.9373 28.4391" fill="#9ADBF7"/>
<path fill-rule="evenodd" clip-rule="evenodd" d="M19.9377 28.4794C26.8375 28.4794 32.7505 29.8631 35.2767 31.851C36.1239 30.4327 36.5962 28.8792 36.5962 27.2473C36.5962 20.7323 29.1323 14.7139 19.9377 14.7139C10.7373 14.7139 3.27148 20.7323 3.27148 27.2473C3.27148 28.8847 3.74575 30.4363 4.58527 31.851C7.11341 29.8631 13.0398 28.4794 19.9377 28.4794" fill="#A0DDF8"/>
<path fill-rule="evenodd" clip-rule="evenodd" d="M19.9364 28.5214C26.8209 28.5214 32.73 29.8977 35.2639 31.8656C36.0977 30.4636 36.5662 28.9193 36.5662 27.302C36.5662 20.8436 29.1233 14.8525 19.9364 14.8525C10.7494 14.8525 3.30078 20.8454 3.30078 27.302C3.30078 28.9193 3.76166 30.4636 4.60501 31.8656C7.13314 29.8977 13.0481 28.5214 19.9364 28.5214" fill="#A6DEF8"/>
<path fill-rule="evenodd" clip-rule="evenodd" d="M19.9387 28.5673C26.8155 28.5673 32.7228 29.9272 35.2414 31.8786C36.0847 30.4895 36.5552 28.9579 36.5552 27.357C36.5552 20.9333 29.1103 14.9824 19.9387 14.9824C10.7632 14.9824 3.32031 20.9333 3.32031 27.3479C3.32031 28.9579 3.78693 30.4949 4.63793 31.8786C7.15459 29.9272 13.0599 28.5673 19.9387 28.5673" fill="#ACE0F9"/>
<path fill-rule="evenodd" clip-rule="evenodd" d="M19.9373 28.607C26.8027 28.607 32.6985 29.9597 35.2189 31.9038C36.0527 30.5201 36.5232 29.0013 36.5232 27.4041C36.5232 21.0406 29.1013 15.1299 19.9373 15.1299C10.7733 15.1299 3.3457 21.0406 3.3457 27.4041C3.3457 29.0013 3.81232 30.5237 4.65184 31.9038C7.1685 29.9597 13.0681 28.607 19.9373 28.607" fill="#B2E2F9"/>
<path fill-rule="evenodd" clip-rule="evenodd" d="M19.9378 28.6569C26.7936 28.6569 32.6817 29.9912 35.1907 31.9226C36.0341 30.548 36.5045 29.0402 36.5045 27.4539C36.5045 21.1288 29.0865 15.2637 19.9378 15.2637C10.789 15.2637 3.36719 21.1343 3.36719 27.4539C3.36719 29.0439 3.82998 30.548 4.67141 31.9226C7.18808 29.9912 13.0724 28.6569 19.9378 28.6569" fill="#B8E4F9"/>
<path fill-rule="evenodd" clip-rule="evenodd" d="M19.9382 28.697C26.7844 28.697 32.6649 30.0332 35.172 31.9389C36.0135 30.579 36.4839 29.0766 36.4839 27.5068C36.4839 21.2291 29.0793 15.4023 19.9382 15.4023C10.8067 15.4023 3.38867 21.2328 3.38867 27.5068C3.38867 29.0803 3.8572 30.579 4.69672 31.9389C7.20573 30.0332 13.0901 28.697 19.9382 28.697" fill="#BDE6FA"/>
<path fill-rule="evenodd" clip-rule="evenodd" d="M19.9369 28.7352C26.7735 28.7352 32.6426 30.0623 35.1458 31.9589C35.9892 30.6026 36.4558 29.1222 36.4558 27.5633C36.4558 21.3331 29.0645 15.541 19.9369 15.541C10.8073 15.541 3.41602 21.3331 3.41602 27.5633C3.41602 29.1277 3.87498 30.6026 4.71068 31.9589C7.2216 30.0623 13.0964 28.7444 19.9369 28.7352" fill="#C3E8FA"/>
<path fill-rule="evenodd" clip-rule="evenodd" d="M19.9373 28.7769C26.7644 28.7769 32.6296 30.093 35.1272 31.9769C35.9724 30.6352 36.439 29.1602 36.439 27.6141C36.439 21.4332 29.0497 15.6758 19.9373 15.6758C10.8288 15.6758 3.4375 21.4332 3.4375 27.6141C3.4375 29.1639 3.90029 30.6352 4.73599 31.9769C7.23544 30.093 13.1064 28.7824 19.9373 28.7769" fill="#C9EAFA"/>
<path fill-rule="evenodd" clip-rule="evenodd" d="M19.9378 28.8214C26.7553 28.8214 32.6186 30.1302 35.1066 31.9903C35.9442 30.6651 36.4127 29.2011 36.4127 27.6659C36.4127 21.5306 29.0368 15.8115 19.9378 15.8115C10.8369 15.8115 3.46094 21.5306 3.46094 27.6659C3.46094 29.2047 3.9199 30.6651 4.7556 31.9903C7.26079 30.1302 13.1126 28.8214 19.9378 28.8214" fill="#CEECFB"/>
<path fill-rule="evenodd" clip-rule="evenodd" d="M19.9383 28.8666C26.752 28.8666 32.5924 30.159 35.0918 32.01C35.9275 30.6956 36.3941 29.2389 36.3941 27.7129C36.3941 21.6287 29.0277 15.9443 19.9383 15.9443C10.8489 15.9443 3.48438 21.6287 3.48438 27.7129C3.48438 29.2444 3.94908 30.6956 4.77713 32.01C7.27849 30.159 13.1284 28.8666 19.9383 28.8666" fill="#D4EEFB"/>
<path fill-rule="evenodd" clip-rule="evenodd" d="M19.9367 28.9054C26.7408 28.9054 32.5716 30.1924 35.0711 32.0269C35.901 30.7236 36.3715 29.2778 36.3715 27.7682C36.3715 21.7297 29.0108 16.0781 19.9367 16.0781C10.8568 16.0781 3.49805 21.7297 3.49805 27.7609C3.49805 29.2815 3.96084 30.7309 4.80036 32.0269C7.29407 30.1924 13.1325 28.9127 19.9367 28.9054" fill="#D9F0FB"/>
<path fill-rule="evenodd" clip-rule="evenodd" d="M19.9372 28.9506C26.7318 28.9506 32.5607 30.2302 35.0468 32.052C35.8748 30.7487 36.3433 29.323 36.3433 27.8189C36.3433 21.8296 28.9999 16.2109 19.9372 16.2109C10.8708 16.2109 3.52539 21.8296 3.52539 27.8134C3.52539 29.323 3.98818 30.7487 4.82006 32.052C7.31186 30.2302 13.1484 28.9506 19.9372 28.9506" fill="#DFF2FC"/>
<path fill-rule="evenodd" clip-rule="evenodd" d="M19.9378 28.9904C26.7191 28.9904 32.5441 30.2609 35.0187 32.0644C35.8506 30.7793 36.3153 29.3646 36.3153 27.8677C36.3153 21.9241 28.9833 16.3584 19.9378 16.3584C10.8867 16.3584 3.55469 21.9241 3.55469 27.8677C3.55469 29.3664 4.01174 30.7793 4.83597 32.0644C7.32777 30.2609 13.1605 28.9904 19.9378 28.9904" fill="#E5F4FC"/>
<path fill-rule="evenodd" clip-rule="evenodd" d="M19.9381 29.0397C26.7117 29.0397 32.5233 30.2865 35.0018 32.0864C35.8317 30.8104 36.3003 29.403 36.3003 27.9207C36.3003 22.021 28.9683 16.499 19.9381 16.499C10.8984 16.499 3.56836 22.021 3.56836 27.9171C3.56836 29.4066 4.03306 30.8104 4.85729 32.0864C7.34909 30.2865 13.1684 29.0397 19.9381 29.0397" fill="#EAF6FD"/>
<path fill-rule="evenodd" clip-rule="evenodd" d="M19.9367 29.0765C26.7008 29.0765 32.5028 30.3233 34.9832 32.1013C35.8093 30.8326 36.274 29.4398 36.274 27.974C36.274 22.1235 28.9573 16.6289 19.9367 16.6289C10.9085 16.6289 3.59375 22.1235 3.59375 27.974C3.59375 29.4416 4.05272 30.8326 4.87885 32.1013C7.36492 30.3233 13.1747 29.0765 19.9367 29.0765" fill="#F0F8FD"/>
<path fill-rule="evenodd" clip-rule="evenodd" d="M19.9373 29.1218C26.6879 29.1218 32.4785 30.354 34.9627 32.1137C35.7888 30.867 36.2554 29.476 36.2554 28.0248C36.2554 22.2162 28.9407 16.7637 19.9373 16.7637C10.9224 16.7637 3.61914 22.2162 3.61914 28.0193C3.61914 29.4869 4.08002 30.867 4.89851 32.1137C7.38457 30.354 13.1828 29.1273 19.9373 29.1218" fill="#F6FBFD"/>
<path fill-rule="evenodd" clip-rule="evenodd" d="M19.9379 29.1646C26.6866 29.1646 32.4657 30.3931 34.9422 32.1437C35.7626 30.8896 36.2273 29.5169 36.2273 28.073C36.2273 22.3229 28.9393 16.9014 19.9379 16.9014C10.9345 16.9014 3.64844 22.3229 3.64844 28.073C3.64844 29.526 4.10358 30.8896 4.92398 32.1437C7.40622 30.3931 13.1873 29.1646 19.9379 29.1646" fill="#FEFEFE"/>
</g>
<path fill-rule="evenodd" clip-rule="evenodd" d="M19.9383 23.4121C14.0425 23.4121 8.55784 24.3778 4.0332 25.9969C6.75066 31.8584 12.8434 35.9254 19.9383 35.9254C27.0331 35.9254 33.1316 31.8547 35.8433 25.9969C31.3225 24.3778 25.8398 23.4121 19.9383 23.4121" fill="#0083C9"/>
</svg>
