<svg width="40" height="40" viewBox="0 0 40 40" fill="none" xmlns="http://www.w3.org/2000/svg">
<path fill-rule="evenodd" clip-rule="evenodd" d="M33.286 11.667H9.89314C8.5883 11.667 7.67525 12.4885 7.45744 13.5042C7.34037 14.0648 7.55228 14.5573 7.98134 14.898L16.3859 20.4457L16.3918 20.4431L16.3931 20.4457L33.3011 11.7285C33.3685 11.6958 33.3619 11.667 33.286 11.667ZM33.7268 16.6433H23.7898L22.1756 24.2487H32.11C32.1852 24.2487 32.1937 24.2173 32.1323 24.1767L26.4812 20.4512L33.7419 16.7068C33.8073 16.6728 33.8001 16.6433 33.7268 16.6433ZM16.3934 20.4457L29.5758 29.1531C29.6393 29.1937 29.6281 29.2264 29.5542 29.2264H6.16199C4.85389 29.2264 4.29075 28.4036 4.50855 27.3891C4.62628 26.8332 5.04945 26.3348 5.62109 25.9973L16.3862 20.4457L16.3907 20.4476L16.3934 20.4457Z" fill="#E32313"/>
<path fill-rule="evenodd" clip-rule="evenodd" d="M36.7819 16.6426H35.3554C35.2828 16.6426 35.1677 16.672 35.103 16.706L27.9515 20.3903C27.8855 20.4217 27.8835 20.4845 27.945 20.5257L33.4914 24.176C33.5535 24.2152 33.6667 24.2479 33.7393 24.2479H35.1651C35.2403 24.2479 35.2482 24.2165 35.1873 24.176L29.5272 20.4505L36.7976 16.706C36.8624 16.672 36.8552 16.6426 36.7819 16.6426" fill="#EE7D00"/>
<path fill-rule="evenodd" clip-rule="evenodd" d="M39.8316 16.6426H38.4051C38.3312 16.6426 38.2187 16.672 38.1514 16.706L31.0025 20.3903C30.9352 20.4217 30.9352 20.4845 30.996 20.5257L36.5424 24.176C36.6026 24.2152 36.7151 24.2479 36.7896 24.2479H38.2148C38.2894 24.2479 38.3005 24.2165 38.237 24.176L32.5769 20.4505L39.8467 16.706C39.9127 16.672 39.9068 16.6426 39.8316 16.6426" fill="#FAB900"/>
</svg>
