<svg width="18" height="17" viewBox="0 0 18 17" fill="none" xmlns="http://www.w3.org/2000/svg">
<path d="M7.76581 1.41798L6.51838 1.88621C6.41912 1.92274 6.35294 2.01905 6.35294 2.12531C6.35294 2.23158 6.41912 2.32788 6.51838 2.36441L7.76581 2.83264L8.23235 4.08458C8.26875 4.18421 8.36471 4.25062 8.47059 4.25062C8.57647 4.25062 8.67243 4.18421 8.70882 4.08458L9.17537 2.83264L10.4228 2.36441C10.5221 2.32788 10.5882 2.23158 10.5882 2.12531C10.5882 2.01905 10.5221 1.92274 10.4228 1.88621L9.17537 1.41798L8.70882 0.16604C8.67243 0.066416 8.57647 0 8.47059 0C8.36471 0 8.26875 0.066416 8.23235 0.16604L7.76581 1.41798ZM1.52537 13.1304C0.906618 13.7514 0.906618 14.761 1.52537 15.3853L2.67022 16.5343C3.28897 17.1552 4.29485 17.1552 4.91691 16.5343L17.5335 3.86873C18.1522 3.24774 18.1522 2.23822 17.5335 1.61391L16.3886 0.468233C15.7699 -0.152757 14.764 -0.152757 14.1419 0.468233L1.52537 13.1304ZM16.0346 2.74298L12.5603 6.22982L11.7893 5.45607L15.2636 1.96923L16.0346 2.74298ZM0.248162 3.89198C0.0992647 3.94843 0 4.09122 0 4.25062C0 4.41002 0.0992647 4.55282 0.248162 4.60927L2.11765 5.31328L2.81912 7.18953C2.87537 7.33897 3.01765 7.43859 3.17647 7.43859C3.33529 7.43859 3.47757 7.33897 3.53382 7.18953L4.23529 5.31328L6.10478 4.60927C6.25368 4.55282 6.35294 4.41002 6.35294 4.25062C6.35294 4.09122 6.25368 3.94843 6.10478 3.89198L4.23529 3.18797L3.53382 1.31172C3.47757 1.16228 3.33529 1.06266 3.17647 1.06266C3.01765 1.06266 2.87537 1.16228 2.81912 1.31172L2.11765 3.18797L0.248162 3.89198ZM11.8952 12.3932C11.7463 12.4497 11.6471 12.5925 11.6471 12.7519C11.6471 12.9113 11.7463 13.0541 11.8952 13.1105L13.7647 13.8145L14.4662 15.6908C14.5224 15.8402 14.6647 15.9398 14.8235 15.9398C14.9824 15.9398 15.1246 15.8402 15.1809 15.6908L15.8824 13.8145L17.7518 13.1105C17.9007 13.0541 18 12.9113 18 12.7519C18 12.5925 17.9007 12.4497 17.7518 12.3932L15.8824 11.6892L15.1809 9.81296C15.1246 9.66353 14.9824 9.5639 14.8235 9.5639C14.6647 9.5639 14.5224 9.66353 14.4662 9.81296L13.7647 11.6892L11.8952 12.3932Z" fill="white"/>
</svg>
