<svg width="28" height="28" viewBox="0 0 28 28" fill="none" xmlns="http://www.w3.org/2000/svg">
<circle cx="14" cy="14" r="14" fill="#730EF4" fill-opacity="0.61"/>
<g clip-path="url(#clip0_262_663)">
<path d="M18.6745 8.13134C18.9112 8.2954 19.0354 8.579 18.9909 8.86259L17.4909 18.6126C17.4557 18.8399 17.3174 19.0392 17.1159 19.1517C16.9143 19.2642 16.6729 19.2782 16.4596 19.1892L13.6565 18.0243L12.051 19.761C11.8424 19.9884 11.5143 20.0634 11.226 19.9509C10.9377 19.8384 10.7502 19.5595 10.7502 19.2501V17.2907C10.7502 17.197 10.7854 17.1079 10.8487 17.0399L14.7768 12.7532C14.9127 12.6056 14.9081 12.3782 14.7674 12.2376C14.6268 12.097 14.3995 12.0876 14.2518 12.2212L9.48462 16.4563L7.41509 15.4204C7.16665 15.2962 7.00728 15.0477 7.00024 14.7712C6.99321 14.4946 7.13853 14.2368 7.37759 14.0985L17.8776 8.09853C18.1284 7.95556 18.4377 7.96962 18.6745 8.13134Z" fill="white"/>
</g>
<defs>
<clipPath id="clip0_262_663">
<rect width="12" height="12" fill="white" transform="translate(7 8)"/>
</clipPath>
</defs>
</svg>
