<svg width="22" height="22" viewBox="0 0 22 22" fill="none" xmlns="http://www.w3.org/2000/svg">
<g clip-path="url(#clip0_1128_1629)">
<path d="M11.0004 1.375C11.6105 1.375 12.1734 1.69727 12.4828 2.22578L21.764 18.0383C22.0777 18.5711 22.0777 19.2285 21.7726 19.7613C21.4676 20.2941 20.8961 20.625 20.2816 20.625H1.71912C1.10466 20.625 0.53318 20.2941 0.228102 19.7613C-0.0769766 19.2285 -0.0726797 18.5668 0.236695 18.0383L9.51795 2.22578C9.82732 1.69727 10.3902 1.375 11.0004 1.375ZM11.0004 6.875C10.4289 6.875 9.96912 7.33477 9.96912 7.90625V12.7188C9.96912 13.2902 10.4289 13.75 11.0004 13.75C11.5719 13.75 12.0316 13.2902 12.0316 12.7188V7.90625C12.0316 7.33477 11.5719 6.875 11.0004 6.875ZM12.3754 16.5C12.3754 16.1353 12.2305 15.7856 11.9726 15.5277C11.7148 15.2699 11.365 15.125 11.0004 15.125C10.6357 15.125 10.286 15.2699 10.0281 15.5277C9.77023 15.7856 9.62537 16.1353 9.62537 16.5C9.62537 16.8647 9.77023 17.2144 10.0281 17.4723C10.286 17.7301 10.6357 17.875 11.0004 17.875C11.365 17.875 11.7148 17.7301 11.9726 17.4723C12.2305 17.2144 12.3754 16.8647 12.3754 16.5Z" fill="#730EF4"/>
</g>
<defs>
<clipPath id="clip0_1128_1629">
<rect width="22" height="22" fill="white"/>
</clipPath>
</defs>
</svg>
