<svg width="58" height="59" viewBox="0 0 58 59" fill="none" xmlns="http://www.w3.org/2000/svg">
<circle cx="29" cy="25.375" r="25" fill="#D9D9D9"/>
<g filter="url(#filter0_d_1259_2432)">
<path d="M54 25.375C54 39.175 42.8125 50.375 29 50.375C15.1875 50.375 4 39.175 4 25.375C4 11.5625 15.1875 0.375 29 0.375C42.8125 0.375 54 11.5625 54 25.375Z" fill="#283544"/>
</g>
<path d="M42.1242 18.2898C41.9714 18.3789 38.3341 20.26 38.3341 24.4307C38.5056 29.1872 42.9242 30.8552 43 30.8552C42.9242 30.9444 42.3329 33.1276 40.5814 35.4161C39.1913 37.3874 37.6484 39.375 35.3056 39.375C33.077 39.375 32.277 38.0612 29.7056 38.0612C26.9441 38.0612 26.1627 39.375 24.0484 39.375C21.7055 39.375 20.0484 37.2809 18.5825 35.3281C16.6782 32.7722 15.0596 28.7612 15.0024 24.9099C14.9639 22.8691 15.3838 20.8631 16.4496 19.1591C17.954 16.7803 20.6397 15.1655 23.5726 15.1122C25.8198 15.0416 27.8198 16.5499 29.1913 16.5499C30.5056 16.5499 32.9627 15.1122 35.7428 15.1122C36.9428 15.1134 40.1429 15.4502 42.1242 18.2898ZM29.0012 14.7048C28.6012 12.8411 29.7056 10.9774 30.7341 9.78854C32.0484 8.35084 34.1242 7.375 35.9143 7.375C36.0286 9.2387 35.3043 11.0665 34.0099 12.3977C32.8484 13.8354 30.8484 14.9178 29.0012 14.7048Z" fill="white"/>
<defs>
<filter id="filter0_d_1259_2432" x="0" y="0.375" width="58" height="58" filterUnits="userSpaceOnUse" color-interpolation-filters="sRGB">
<feFlood flood-opacity="0" result="BackgroundImageFix"/>
<feColorMatrix in="SourceAlpha" type="matrix" values="0 0 0 0 0 0 0 0 0 0 0 0 0 0 0 0 0 0 127 0" result="hardAlpha"/>
<feOffset dy="4"/>
<feGaussianBlur stdDeviation="2"/>
<feComposite in2="hardAlpha" operator="out"/>
<feColorMatrix type="matrix" values="0 0 0 0 0 0 0 0 0 0 0 0 0 0 0 0 0 0 0.25 0"/>
<feBlend mode="normal" in2="BackgroundImageFix" result="effect1_dropShadow_1259_2432"/>
<feBlend mode="normal" in="SourceGraphic" in2="effect1_dropShadow_1259_2432" result="shape"/>
</filter>
</defs>
</svg>
