<svg width="20" height="25" viewBox="0 0 20 25" fill="none" xmlns="http://www.w3.org/2000/svg">
<path d="M19.3636 8.5225C19.2211 8.635 16.7052 10.0775 16.7052 13.285C16.7052 16.995 19.9066 18.3075 20.0025 18.34C19.9877 18.42 19.4939 20.1375 18.3145 21.8875C17.2629 23.4275 16.1646 24.965 14.4939 24.965C12.8231 24.965 12.3931 23.9775 10.4644 23.9775C8.58477 23.9775 7.91646 24.9975 6.38821 24.9975C4.85995 24.9975 3.79361 23.5725 2.56757 21.8225C1.14742 19.7675 0 16.575 0 13.545C0 8.685 3.10565 6.1075 6.16216 6.1075C7.78624 6.1075 9.14005 7.1925 10.1597 7.1925C11.1302 7.1925 12.6437 6.0425 14.4914 6.0425C15.1916 6.0425 17.7076 6.1075 19.3636 8.5225ZM13.6142 3.985C14.3784 3.0625 14.9189 1.7825 14.9189 0.5025C14.9189 0.325 14.9042 0.145 14.8722 0C13.629 0.0475 12.1499 0.8425 11.258 1.895C10.5577 2.705 9.90418 3.985 9.90418 5.2825C9.90418 5.4775 9.93612 5.6725 9.95086 5.735C10.0295 5.75 10.1572 5.7675 10.285 5.7675C11.4005 5.7675 12.8034 5.0075 13.6142 3.985Z" fill="black"/>
</svg>
