<svg width="37" height="37" viewBox="0 0 37 37" fill="none" xmlns="http://www.w3.org/2000/svg">
<g clip-path="url(#clip0_647_1791)">
<path d="M17.5889 0.188184L1.40145 7.12568C0.389729 7.55928 -0.173943 8.64326 0.0500806 9.71279C0.274104 10.7823 1.21356 11.5628 2.31199 11.5628V12.1409C2.31199 13.1021 3.08524 13.8753 4.04637 13.8753H32.9526C33.9138 13.8753 34.687 13.1021 34.687 12.1409V11.5628C35.7854 11.5628 36.7321 10.7895 36.9489 9.71279C37.1657 8.63603 36.602 7.55205 35.5975 7.12568L19.41 0.188184C18.8319 -0.0575195 18.1671 -0.0575195 17.5889 0.188184ZM9.24949 16.1878H4.62449V30.3735C4.58114 30.3952 4.53778 30.4241 4.49442 30.453L1.02567 32.7655C0.180159 33.3292 -0.202849 34.3843 0.09344 35.3599C0.389729 36.3354 1.29305 37.0003 2.31199 37.0003H34.687C35.7059 37.0003 36.602 36.3354 36.8983 35.3599C37.1946 34.3843 36.8188 33.3292 35.9661 32.7655L32.4973 30.453C32.454 30.4241 32.4106 30.4024 32.3673 30.3735V16.1878H27.7495V30.0628H24.8589V16.1878H20.2339V30.0628H16.7651V16.1878H12.1401V30.0628H9.24949V16.1878ZM18.4995 4.62529C19.1128 4.62529 19.701 4.86893 20.1347 5.30261C20.5684 5.73629 20.812 6.32448 20.812 6.93779C20.812 7.55111 20.5684 8.1393 20.1347 8.57298C19.701 9.00665 19.1128 9.25029 18.4995 9.25029C17.8862 9.25029 17.298 9.00665 16.8643 8.57298C16.4306 8.1393 16.187 7.55111 16.187 6.93779C16.187 6.32448 16.4306 5.73629 16.8643 5.30261C17.298 4.86893 17.8862 4.62529 18.4995 4.62529Z" fill="black" fill-opacity="0.7"/>
</g>
<defs>
<clipPath id="clip0_647_1791">
<rect width="37" height="37" fill="white"/>
</clipPath>
</defs>
</svg>
