<svg width="20" height="18" viewBox="0 0 20 18" fill="none" xmlns="http://www.w3.org/2000/svg">
<path d="M8.79514 1.23393C9.00694 0.81908 8.84722 0.309313 8.44097 0.094859C8.03472 -0.119595 7.52778 0.0421244 7.31597 0.453454L4.08333 6.74996H1.11111C0.496528 6.74996 0 7.2527 0 7.87496C0 8.49723 0.496528 8.99997 1.11111 8.99997L2.91319 16.2949C3.15972 17.2969 4.04861 18 5.06944 18H14.9306C15.9514 18 16.8403 17.2969 17.0868 16.2949L18.8889 8.99997C19.5035 8.99997 20 8.49723 20 7.87496C20 7.2527 19.5035 6.74996 18.8889 6.74996H15.9167L12.684 0.453454C12.4722 0.0421244 11.9688 -0.119595 11.559 0.094859C11.1493 0.309313 10.9931 0.81908 11.2049 1.23393L14.0382 6.74996H5.96181L8.79514 1.23393ZM6.66667 10.6875V14.0625C6.66667 14.3719 6.41667 14.625 6.11111 14.625C5.80556 14.625 5.55556 14.3719 5.55556 14.0625V10.6875C5.55556 10.3781 5.80556 10.125 6.11111 10.125C6.41667 10.125 6.66667 10.3781 6.66667 10.6875ZM10 10.125C10.3056 10.125 10.5556 10.3781 10.5556 10.6875V14.0625C10.5556 14.3719 10.3056 14.625 10 14.625C9.69444 14.625 9.44444 14.3719 9.44444 14.0625V10.6875C9.44444 10.3781 9.69444 10.125 10 10.125ZM14.4444 10.6875V14.0625C14.4444 14.3719 14.1944 14.625 13.8889 14.625C13.5833 14.625 13.3333 14.3719 13.3333 14.0625V10.6875C13.3333 10.3781 13.5833 10.125 13.8889 10.125C14.1944 10.125 14.4444 10.3781 14.4444 10.6875Z" fill="#616161"/>
</svg>
