<svg width="15" height="20" viewBox="0 0 15 20" fill="none" xmlns="http://www.w3.org/2000/svg">
<path d="M13.3818 5.88281C13.8701 5.39453 13.8701 4.60156 13.3818 4.11328C12.8936 3.625 12.1006 3.625 11.6123 4.11328L7.49902 8.23047L3.38184 4.11719C2.89355 3.62891 2.10059 3.62891 1.6123 4.11719C1.12402 4.60547 1.12402 5.39844 1.6123 5.88672L5.72949 10L1.61621 14.1172C1.12793 14.6055 1.12793 15.3984 1.61621 15.8867C2.10449 16.375 2.89746 16.375 3.38574 15.8867L7.49902 11.7695L11.6162 15.8828C12.1045 16.3711 12.8975 16.3711 13.3857 15.8828C13.874 15.3945 13.874 14.6016 13.3857 14.1133L9.26855 10L13.3818 5.88281Z" fill="white"/>
</svg>
