<svg width="15" height="18" viewBox="0 0 15 18" fill="none" xmlns="http://www.w3.org/2000/svg">
<path d="M8.57087 2.8125C8.57087 2.19023 8.09208 1.6875 7.49944 1.6875C6.90681 1.6875 6.42801 2.19023 6.42801 2.8125V7.875H1.60658C1.01395 7.875 0.535156 8.37773 0.535156 9C0.535156 9.62227 1.01395 10.125 1.60658 10.125H6.42801V15.1875C6.42801 15.8098 6.90681 16.3125 7.49944 16.3125C8.09208 16.3125 8.57087 15.8098 8.57087 15.1875V10.125H13.3923C13.9849 10.125 14.4637 9.62227 14.4637 9C14.4637 8.37773 13.9849 7.875 13.3923 7.875H8.57087V2.8125Z" fill="white"/>
</svg>
