<svg width="14" height="14" viewBox="0 0 14 14" fill="none" xmlns="http://www.w3.org/2000/svg">
<path d="M3.5 1.75C3.5 0.784766 4.28477 0 5.25 0H9.625V3.5C9.625 3.98398 10.016 4.375 10.5 4.375H14V12.25C14 13.2152 13.2152 14 12.25 14H5.25C4.28477 14 3.5 13.2152 3.5 12.25V9.1875H8.26055L7.19414 10.2539C6.93711 10.5109 6.93711 10.9266 7.19414 11.1809C7.45117 11.4352 7.8668 11.4379 8.12109 11.1809L10.3086 8.99336C10.5656 8.73633 10.5656 8.3207 10.3086 8.06641L8.12109 5.87891C7.86406 5.62187 7.44844 5.62187 7.19414 5.87891C6.93984 6.13594 6.93711 6.55156 7.19414 6.80586L8.26055 7.87227H3.5V1.75ZM3.5 7.875V9.1875H0.65625C0.292578 9.1875 0 8.89492 0 8.53125C0 8.16758 0.292578 7.875 0.65625 7.875H3.5ZM14 3.5H10.5V0L14 3.5Z" fill="#ECECEC"/>
</svg>
