<svg width="12" height="12" viewBox="0 0 12 12" fill="none" xmlns="http://www.w3.org/2000/svg">
<path d="M11.6745 0.13134C11.9112 0.295402 12.0354 0.578996 11.9909 0.86259L10.4909 10.6126C10.4557 10.8399 10.3174 11.0392 10.1159 11.1517C9.91431 11.2642 9.6729 11.2782 9.45962 11.1892L6.65649 10.0243L5.05103 11.761C4.84243 11.9884 4.51431 12.0634 4.22603 11.9509C3.93774 11.8384 3.75024 11.5595 3.75024 11.2501V9.29071C3.75024 9.19696 3.7854 9.1079 3.84868 9.03993L7.77681 4.75321C7.91274 4.60556 7.90806 4.37821 7.76743 4.23759C7.62681 4.09696 7.39946 4.08759 7.25181 4.22118L2.48462 8.45634L0.415088 7.4204C0.16665 7.29618 0.00727536 7.04775 0.000244114 6.77118C-0.00678714 6.49462 0.138525 6.23681 0.377588 6.09853L10.8776 0.0985271C11.1284 -0.0444416 11.4377 -0.0303791 11.6745 0.13134Z" fill="white"/>
</svg>
