<svg width="133" height="36" viewBox="0 0 133 36" fill="none" xmlns="http://www.w3.org/2000/svg">
<g opacity="0.5">
<rect width="133" height="36" rx="18" fill="#3876C0"/>
<g clip-path="url(#clip0_1559_751)">
<path d="M24.0714 11.6562C24.0714 11.2926 23.7848 11 23.4286 11C23.0723 11 22.7857 11.2926 22.7857 11.6562V12.75H21.7143C20.7688 12.75 20 13.5348 20 14.5V14.9375V16.25V23.25C20 24.2152 20.7688 25 21.7143 25H30.2857C31.2312 25 32 24.2152 32 23.25V16.25V14.9375V14.5C32 13.5348 31.2312 12.75 30.2857 12.75H29.2143V11.6562C29.2143 11.2926 28.9277 11 28.5714 11C28.2152 11 27.9286 11.2926 27.9286 11.6562V12.75H24.0714V11.6562ZM21.2857 16.25H30.7143V23.25C30.7143 23.4906 30.5214 23.6875 30.2857 23.6875H21.7143C21.4786 23.6875 21.2857 23.4906 21.2857 23.25V16.25Z" fill="white"/>
</g>
<path d="M51.5938 13.2881V22.9131H50.6162V17.9824H49.3809V22.4189H48.4248V13.4814H49.3809V17.1445H50.6162V13.2881H51.5938ZM44.8262 14.4268V19.5615C45.7178 19.5562 46.6899 19.4863 47.7803 19.2715L47.8877 20.1631C46.5664 20.3994 45.46 20.4639 44.4287 20.4639H43.8057V14.4268H44.8262ZM63.3564 18.4121V19.2285H56.6533V14.083H63.2598V14.9102H57.6846V16.21H63.0557V17.0156H57.6846V18.4121H63.3564ZM64.3555 20.8613V21.6992H55.5469V20.8613H64.3555ZM73.2607 13.2988V19.293H72.2939V16.6504H71.1123V19.2178H70.1562V13.4707H71.1123V15.8125H72.2939V13.2988H73.2607ZM73.2607 19.7549V22.9131H72.251V20.582H66.7188V19.7549H73.2607ZM69.1143 13.9756V16.7471H66.4717V18.0146C67.6641 18.0039 68.5718 17.9502 69.6299 17.7354L69.7373 18.5732C68.5234 18.7881 67.5244 18.8311 66.1172 18.8311H65.4834V15.9844H68.1367V14.792H65.4619V13.9756H69.1143ZM85.2705 13.2988V20.3457H84.25V16.7256H82.4131V15.8984H84.25V13.2988H85.2705ZM85.5283 21.8818V22.709H79.0186V19.7119H80.0391V21.8818H85.5283ZM80.6943 15.2432C80.6943 16.4463 81.5645 17.6494 83.0146 18.1328L82.4883 18.9492C81.4087 18.5679 80.6084 17.7944 80.1895 16.8438C79.7705 17.9019 78.9272 18.7559 77.7832 19.1641L77.2568 18.3369C78.7393 17.832 79.6523 16.5645 79.6523 15.2432V14.8672H77.5684V14.0293H82.7568V14.8672H80.6943V15.2432ZM91.6406 16.6611V18.0039H95.5293V18.8311H86.7529V18.0039H90.6309V16.6611H91.6406ZM91.6514 13.8467C91.6514 15.0713 93.1553 16.1455 95.0137 16.3818L94.6162 17.1875C93.0854 16.9458 91.7373 16.1992 91.1357 15.1357C90.5181 16.1992 89.1699 16.9458 87.6338 17.1875L87.2578 16.3818C89.1055 16.1455 90.6094 15.0605 90.6201 13.8467V13.4385H91.6514V13.8467ZM91.1357 19.54C93.2197 19.54 94.4551 20.1416 94.4551 21.2266C94.4551 22.3008 93.2197 22.9023 91.1357 22.8916C89.041 22.9023 87.7949 22.3008 87.7949 21.2266C87.7949 20.1416 89.041 19.54 91.1357 19.54ZM91.1357 20.3242C89.6533 20.3242 88.8262 20.6357 88.8262 21.2266C88.8262 21.8066 89.6533 22.1182 91.1357 22.1182C92.5967 22.1182 93.4346 21.8066 93.4346 21.2266C93.4346 20.6357 92.5967 20.3242 91.1357 20.3242Z" fill="white"/>
</g>
<defs>
<clipPath id="clip0_1559_751">
<rect width="12" height="14" fill="white" transform="translate(20 11)"/>
</clipPath>
</defs>
</svg>
