<svg width="133" height="36" viewBox="0 0 133 36" fill="none" xmlns="http://www.w3.org/2000/svg">
<g opacity="0.5">
<rect width="133" height="36" rx="18" fill="#3876C0"/>
<path d="M52.2812 14.6953V15.5332H50.917V16.7578H52.2812V17.6172H50.917V18.9922H49.8965V13.2881H50.917V14.6953H52.2812ZM50.917 19.4219V22.9131H49.8965V20.249H44.5576V19.4219H50.917ZM46.0615 13.8467C47.5332 13.8467 48.6182 14.792 48.6289 16.1455C48.6182 17.499 47.5332 18.4443 46.0615 18.4443C44.5898 18.4443 43.4941 17.499 43.5049 16.1455C43.4941 14.792 44.5898 13.8467 46.0615 13.8467ZM46.0615 14.7168C45.1592 14.7168 44.4932 15.2861 44.5039 16.1455C44.4932 17.0156 45.1592 17.585 46.0615 17.5742C46.9639 17.585 47.6299 17.0156 47.6299 16.1455C47.6299 15.2861 46.9639 14.7168 46.0615 14.7168ZM61.6592 18.0684V18.9062H52.8613V18.0684H56.7393V16.6611H57.749V18.0684H61.6592ZM57.7598 13.8467C57.7598 15.0713 59.2637 16.1455 61.1221 16.3818L60.7246 17.1875C59.1938 16.9458 57.8457 16.1992 57.2441 15.1357C56.6265 16.1992 55.2783 16.9458 53.7422 17.1875L53.3662 16.3818C55.2139 16.1455 56.7178 15.0605 56.7285 13.8467V13.4385H57.7598V13.8467ZM60.5635 19.7549V22.9131H59.5322V20.5605H53.8389V19.7549H60.5635ZM72.627 13.2988V16.1562H74.002V16.9941H72.627V19.7764H71.6064V13.2988H72.627ZM64.9893 18.7021C65.7358 18.7021 66.6006 18.7021 67.5029 18.6699V18.0254C66.4072 17.9126 65.709 17.397 65.7197 16.6182C65.709 15.7373 66.6221 15.1895 68.0078 15.2002C69.3828 15.1895 70.2959 15.7373 70.2959 16.6182C70.2959 17.3916 69.6084 17.9072 68.5234 18.0254V18.6377C69.3828 18.5947 70.2529 18.5249 71.0586 18.4121L71.1445 19.1426C69.0713 19.5078 66.7939 19.5186 65.0967 19.5186L64.9893 18.7021ZM72.627 20.2275V22.9131H71.6064V21.0225H66.1924V20.2275H72.627ZM70.79 14.1152V14.8779H65.2363V14.1152H67.5029V13.2129H68.5234V14.1152H70.79ZM68.0078 15.8984C67.1807 15.8877 66.6865 16.1562 66.6865 16.6182C66.6865 17.0693 67.1807 17.3594 68.0078 17.3594C68.8242 17.3594 69.3184 17.0693 69.3184 16.6182C69.3184 16.1562 68.8242 15.8877 68.0078 15.8984ZM82.585 13.2881V19.0137H81.5645V16.5752H79.7705V15.7373H81.5645V13.2881H82.585ZM79.3623 19.2822C81.3818 19.2822 82.6172 19.9482 82.6172 21.0977C82.6172 22.2471 81.3818 22.9023 79.3623 22.9131C77.3428 22.9023 76.0967 22.2471 76.1074 21.0977C76.0967 19.9482 77.3428 19.2822 79.3623 19.2822ZM79.3623 20.0771C77.9551 20.0771 77.1172 20.4424 77.1172 21.0977C77.1172 21.7422 77.9551 22.1182 79.3623 22.1074C80.7695 22.1182 81.6074 21.7422 81.6074 21.0977C81.6074 20.4424 80.7695 20.0771 79.3623 20.0771ZM78.0088 14.9854C78.0088 16.21 78.8789 17.3916 80.3291 17.8857L79.8027 18.6914C78.7231 18.3154 77.9282 17.5474 77.5146 16.5967C77.0903 17.6763 76.2471 18.541 75.0977 18.96L74.5605 18.1436C76.0537 17.6279 76.9668 16.3281 76.9668 14.9961V14.7812H74.8828V13.9541H80.0713V14.7812H78.0088V14.9854ZM95.5615 20.8613V21.71H86.7529V20.8613H88.8584V18.3477C88.0688 17.9126 87.5908 17.2197 87.5908 16.3604C87.5908 14.8457 89.0732 13.8467 91.1357 13.8467C93.209 13.8467 94.6914 14.8457 94.6914 16.3604C94.6914 17.209 94.2295 17.8911 93.4561 18.3262V20.8613H95.5615ZM91.1357 14.6631C89.6211 14.6631 88.5791 15.3184 88.5791 16.3604C88.5791 17.3916 89.6211 18.0684 91.1357 18.0684C92.6396 18.0684 93.7031 17.3916 93.7031 16.3604C93.7031 15.3184 92.6396 14.6631 91.1357 14.6631ZM89.8682 20.8613H92.4248V18.7129C92.0327 18.8149 91.5977 18.8633 91.1357 18.8633C90.6846 18.8633 90.2549 18.8149 89.8682 18.7236V20.8613ZM99.6328 15.3398C99.6328 16.4678 100.567 17.5312 102.028 17.9395L101.545 18.7344C100.433 18.4175 99.5898 17.73 99.1494 16.8438C98.7305 17.8374 97.8926 18.6216 96.7432 18.9814L96.2598 18.1973C97.7207 17.7246 98.623 16.5752 98.623 15.3398V15.2217H96.5283V14.4053H98.623V13.2451H99.6436V14.4053H101.728V15.2217H99.6328V15.3398ZM104.284 13.2881V19.1211H103.264V16.8223H101.427V15.9844H103.264V13.2881H104.284ZM101.062 19.3359C103.07 19.3359 104.316 19.9805 104.316 21.1084C104.316 22.2471 103.07 22.9023 101.062 22.8916C99.042 22.9023 97.7959 22.2471 97.8066 21.1084C97.7959 19.9805 99.042 19.3359 101.062 19.3359ZM101.062 20.1309C99.6543 20.1309 98.8164 20.4854 98.8164 21.1084C98.8164 21.7314 99.6543 22.1074 101.062 22.1074C102.479 22.1074 103.307 21.7314 103.307 21.1084C103.307 20.4854 102.479 20.1309 101.062 20.1309Z" fill="white"/>
<path d="M20 11.4803C20 10.663 20.6719 10 21.5 10V11.4803V23.6123L25.5656 20.7473C25.825 20.5623 26.1781 20.5623 26.4375 20.7473L30.5 23.6123V11.4803H21.5V10H30.5C31.3281 10 32 10.663 32 11.4803V25.0493C32 25.3269 31.8438 25.5798 31.5938 25.7062C31.3438 25.8326 31.0437 25.8111 30.8156 25.6507L26 22.2584L21.1844 25.6507C20.9563 25.8111 20.6562 25.8326 20.4062 25.7062C20.1562 25.5798 20 25.3269 20 25.0493V11.4803Z" fill="white"/>
</g>
</svg>
