<svg width="133" height="36" viewBox="0 0 133 36" fill="none" xmlns="http://www.w3.org/2000/svg">
<g opacity="0.5">
<rect width="133" height="36" rx="18" fill="#3876C0"/>
<path d="M52.2812 14.6953V15.5332H50.917V16.7578H52.2812V17.6172H50.917V18.9922H49.8965V13.2881H50.917V14.6953H52.2812ZM50.917 19.4219V22.9131H49.8965V20.249H44.5576V19.4219H50.917ZM46.0615 13.8467C47.5332 13.8467 48.6182 14.792 48.6289 16.1455C48.6182 17.499 47.5332 18.4443 46.0615 18.4443C44.5898 18.4443 43.4941 17.499 43.5049 16.1455C43.4941 14.792 44.5898 13.8467 46.0615 13.8467ZM46.0615 14.7168C45.1592 14.7168 44.4932 15.2861 44.5039 16.1455C44.4932 17.0156 45.1592 17.585 46.0615 17.5742C46.9639 17.585 47.6299 17.0156 47.6299 16.1455C47.6299 15.2861 46.9639 14.7168 46.0615 14.7168ZM61.6592 18.0684V18.9062H52.8613V18.0684H56.7393V16.6611H57.749V18.0684H61.6592ZM57.7598 13.8467C57.7598 15.0713 59.2637 16.1455 61.1221 16.3818L60.7246 17.1875C59.1938 16.9458 57.8457 16.1992 57.2441 15.1357C56.6265 16.1992 55.2783 16.9458 53.7422 17.1875L53.3662 16.3818C55.2139 16.1455 56.7178 15.0605 56.7285 13.8467V13.4385H57.7598V13.8467ZM60.5635 19.7549V22.9131H59.5322V20.5605H53.8389V19.7549H60.5635ZM68.7705 15.1465C68.7705 16.0596 69.6299 16.8438 71.0371 17.1445L70.6182 17.9395C69.5117 17.6924 68.7007 17.1392 68.2764 16.4033C67.8628 17.2036 67.0356 17.8052 65.8916 18.0684L65.4619 17.2734C66.8799 16.9727 67.75 16.1025 67.75 15.1465H65.6768V14.3408H67.75V13.3096H68.7705V14.3408H70.833V15.1465H68.7705ZM73.0566 13.2988V22.9131H72.0469V13.2988H73.0566ZM65.043 18.6592C66.8691 18.6592 69.2861 18.6484 71.3809 18.3799L71.4561 19.1211C70.5752 19.2661 69.6675 19.3574 68.7812 19.4111V22.623H67.7607V19.4648C66.8369 19.5024 65.9561 19.5078 65.1826 19.5078L65.043 18.6592ZM83.3691 20.8506V21.6885H74.5605V20.8506H78.417V18.5625H79.4268V20.8506H83.3691ZM79.4482 14.6309C79.4482 16.1562 81.124 17.585 82.9824 17.8965L82.542 18.7344C80.9844 18.4229 79.5503 17.4614 78.9111 16.1348C78.2773 17.4561 76.8594 18.4336 75.3125 18.7344L74.8613 17.8965C76.709 17.585 78.374 16.1562 78.374 14.6309V13.9004H79.4482V14.6309ZM95.5615 20.8613V21.71H86.7529V20.8613H88.8584V18.3477C88.0688 17.9126 87.5908 17.2197 87.5908 16.3604C87.5908 14.8457 89.0732 13.8467 91.1357 13.8467C93.209 13.8467 94.6914 14.8457 94.6914 16.3604C94.6914 17.209 94.2295 17.8911 93.4561 18.3262V20.8613H95.5615ZM91.1357 14.6631C89.6211 14.6631 88.5791 15.3184 88.5791 16.3604C88.5791 17.3916 89.6211 18.0684 91.1357 18.0684C92.6396 18.0684 93.7031 17.3916 93.7031 16.3604C93.7031 15.3184 92.6396 14.6631 91.1357 14.6631ZM89.8682 20.8613H92.4248V18.7129C92.0327 18.8149 91.5977 18.8633 91.1357 18.8633C90.6846 18.8633 90.2549 18.8149 89.8682 18.7236V20.8613ZM99.6328 15.3398C99.6328 16.4678 100.567 17.5312 102.028 17.9395L101.545 18.7344C100.433 18.4175 99.5898 17.73 99.1494 16.8438C98.7305 17.8374 97.8926 18.6216 96.7432 18.9814L96.2598 18.1973C97.7207 17.7246 98.623 16.5752 98.623 15.3398V15.2217H96.5283V14.4053H98.623V13.2451H99.6436V14.4053H101.728V15.2217H99.6328V15.3398ZM104.284 13.2881V19.1211H103.264V16.8223H101.427V15.9844H103.264V13.2881H104.284ZM101.062 19.3359C103.07 19.3359 104.316 19.9805 104.316 21.1084C104.316 22.2471 103.07 22.9023 101.062 22.8916C99.042 22.9023 97.7959 22.2471 97.8066 21.1084C97.7959 19.9805 99.042 19.3359 101.062 19.3359ZM101.062 20.1309C99.6543 20.1309 98.8164 20.4854 98.8164 21.1084C98.8164 21.7314 99.6543 22.1074 101.062 22.1074C102.479 22.1074 103.307 21.7314 103.307 21.1084C103.307 20.4854 102.479 20.1309 101.062 20.1309Z" fill="white"/>
<path d="M30.7066 14.7062C31.0973 14.3155 31.0973 13.6812 30.7066 13.2905C30.316 12.8999 29.6816 12.8999 29.291 13.2905L26.0004 16.5843L22.7066 13.2937C22.316 12.903 21.6816 12.903 21.291 13.2937C20.9004 13.6843 20.9004 14.3187 21.291 14.7093L24.5848 17.9999L21.2941 21.2937C20.9035 21.6843 20.9035 22.3187 21.2941 22.7093C21.6848 23.0999 22.3191 23.0999 22.7098 22.7093L26.0004 19.4155L29.2941 22.7062C29.6848 23.0968 30.3191 23.0968 30.7098 22.7062C31.1004 22.3155 31.1004 21.6812 30.7098 21.2905L27.416 17.9999L30.7066 14.7062Z" fill="white"/>
</g>
</svg>
