<svg width="14" height="13" viewBox="0 0 14 13" fill="none" xmlns="http://www.w3.org/2000/svg">
<g clip-path="url(#clip0_70_1412)">
<path d="M6.99939 0.8125C5.0355 0.8125 3.46293 1.74687 2.31814 2.85898C1.18064 3.96094 0.419879 5.28125 0.0601563 6.1877C-0.0200521 6.38828 -0.0200521 6.61172 0.0601563 6.8123C0.419879 7.71875 1.18064 9.03906 2.31814 10.141C3.46293 11.2531 5.0355 12.1875 6.99939 12.1875C8.96328 12.1875 10.5359 11.2531 11.6806 10.141C12.8181 9.03652 13.5789 7.71875 13.9411 6.8123C14.0213 6.61172 14.0213 6.38828 13.9411 6.1877C13.5789 5.28125 12.8181 3.96094 11.6806 2.85898C10.5359 1.74687 8.96328 0.8125 6.99939 0.8125ZM3.49939 6.5C3.49939 5.5303 3.86814 4.60032 4.52452 3.91464C5.1809 3.22896 6.07114 2.84375 6.99939 2.84375C7.92765 2.84375 8.81789 3.22896 9.47427 3.91464C10.1306 4.60032 10.4994 5.5303 10.4994 6.5C10.4994 7.4697 10.1306 8.39968 9.47427 9.08536C8.81789 9.77104 7.92765 10.1562 6.99939 10.1562C6.07114 10.1562 5.1809 9.77104 4.52452 9.08536C3.86814 8.39968 3.49939 7.4697 3.49939 6.5ZM6.99939 4.875C6.99939 5.77129 6.30182 6.5 5.44384 6.5C5.27127 6.5 5.10599 6.46953 4.95043 6.41621C4.81675 6.37051 4.6612 6.45684 4.66606 6.6041C4.67335 6.7793 4.69766 6.95449 4.74384 7.12969C5.07682 8.42969 6.35773 9.20156 7.60217 8.85371C8.84661 8.50586 9.5855 7.16777 9.25252 5.86777C8.98273 4.81406 8.09071 4.10566 7.09905 4.0625C6.95807 4.05742 6.87544 4.21738 6.91919 4.35957C6.97023 4.52207 6.99939 4.69473 6.99939 4.875Z" fill="#616161"/>
</g>
<defs>
<clipPath id="clip0_70_1412">
<rect width="14" height="13" fill="white"/>
</clipPath>
</defs>
</svg>
