<svg width="59" height="58" viewBox="0 0 59 58" fill="none" xmlns="http://www.w3.org/2000/svg">
<circle cx="30" cy="25.375" r="25" fill="#D9D9D9"/>
<g filter="url(#filter0_d_1259_2430)">
<circle cx="29.625" cy="25" r="25" fill="url(#paint0_linear_1259_2430)"/>
</g>
<path d="M39.4498 33.1353L40.577 25.9733H33.5257V21.3277C33.5257 19.3678 34.5089 17.4563 37.6672 17.4563H40.875V11.3589C40.875 11.3589 37.965 10.875 35.1842 10.875C29.3744 10.875 25.5805 14.306 25.5805 20.5147V25.9733H19.125V33.1353H25.5805V50.45C26.8765 50.6484 28.2024 50.75 29.5531 50.75C30.9038 50.75 32.2297 50.6484 33.5257 50.45V33.1353H39.4498Z" fill="white"/>
<defs>
<filter id="filter0_d_1259_2430" x="0.625" y="0" width="58" height="58" filterUnits="userSpaceOnUse" color-interpolation-filters="sRGB">
<feFlood flood-opacity="0" result="BackgroundImageFix"/>
<feColorMatrix in="SourceAlpha" type="matrix" values="0 0 0 0 0 0 0 0 0 0 0 0 0 0 0 0 0 0 127 0" result="hardAlpha"/>
<feOffset dy="4"/>
<feGaussianBlur stdDeviation="2"/>
<feComposite in2="hardAlpha" operator="out"/>
<feColorMatrix type="matrix" values="0 0 0 0 0 0 0 0 0 0 0 0 0 0 0 0 0 0 0.25 0"/>
<feBlend mode="normal" in2="BackgroundImageFix" result="effect1_dropShadow_1259_2430"/>
<feBlend mode="normal" in="SourceGraphic" in2="effect1_dropShadow_1259_2430" result="shape"/>
</filter>
<linearGradient id="paint0_linear_1259_2430" x1="29.625" y1="0" x2="29.625" y2="49.8517" gradientUnits="userSpaceOnUse">
<stop stop-color="#18ACFE"/>
<stop offset="1" stop-color="#0163E0"/>
</linearGradient>
</defs>
</svg>
