<svg width="22" height="22" viewBox="0 0 22 22" fill="none" xmlns="http://www.w3.org/2000/svg">
<g clip-path="url(#clip0_62_186)">
<path d="M15.125 11C15.125 11.9539 15.0734 12.8734 14.9832 13.75H7.0168C6.92227 12.8734 6.875 11.9539 6.875 11C6.875 10.0461 6.92656 9.12656 7.0168 8.25H14.9832C15.0777 9.12656 15.125 10.0461 15.125 11ZM16.3625 8.25H21.652C21.8797 9.13086 22 10.0504 22 11C22 11.9496 21.8797 12.8691 21.652 13.75H16.3625C16.4527 12.8648 16.5 11.9453 16.5 11C16.5 10.0547 16.4527 9.13516 16.3625 8.25ZM21.2008 6.875H16.1863C15.7566 4.1293 14.9059 1.83047 13.8102 0.360937C17.1746 1.25039 19.9117 3.69102 21.1965 6.875H21.2008ZM14.7941 6.875H7.20586C7.46797 5.31094 7.87187 3.92734 8.36602 2.80586C8.81719 1.7918 9.31992 1.05703 9.80547 0.592969C10.2867 0.1375 10.6863 0 11 0C11.3137 0 11.7133 0.1375 12.1945 0.592969C12.6801 1.05703 13.1828 1.7918 13.634 2.80586C14.1324 3.92305 14.532 5.30664 14.7941 6.875ZM5.81367 6.875H0.799219C2.08828 3.69102 4.82109 1.25039 8.18984 0.360937C7.09414 1.83047 6.24336 4.1293 5.81367 6.875ZM0.348047 8.25H5.6375C5.54727 9.13516 5.5 10.0547 5.5 11C5.5 11.9453 5.54727 12.8648 5.6375 13.75H0.348047C0.120313 12.8691 0 11.9496 0 11C0 10.0504 0.120313 9.13086 0.348047 8.25ZM8.36602 19.1898C7.86758 18.0727 7.46797 16.6891 7.20586 15.125H14.7941C14.532 16.6891 14.1281 18.0727 13.634 19.1898C13.1828 20.2039 12.6801 20.9387 12.1945 21.4027C11.7133 21.8625 11.3137 22 11 22C10.6863 22 10.2867 21.8625 9.80547 21.407C9.31992 20.943 8.81719 20.2082 8.36602 19.1941V19.1898ZM5.81367 15.125C6.24336 17.8707 7.09414 20.1695 8.18984 21.6391C4.82109 20.7496 2.08828 18.309 0.799219 15.125H5.81367ZM21.2008 15.125C19.9117 18.309 17.1789 20.7496 13.8145 21.6391C14.9102 20.1695 15.7566 17.8707 16.1906 15.125H21.2008Z" fill="white"/>
</g>
<defs>
<clipPath id="clip0_62_186">
<rect width="22" height="22" fill="white"/>
</clipPath>
</defs>
</svg>
