<svg width="20" height="25" viewBox="0 0 20 25" fill="none" xmlns="http://www.w3.org/2000/svg">
<path d="M0.488453 25C0.162802 24.8032 0 24.3111 0 23.8189C0 23.7205 0 23.5236 0 23.4252C0 16.1418 0 8.85824 0 1.67319C0 1.27948 0.0814011 0.984243 0.162802 0.590534C0.24425 0.393652 0.407052 0.196826 0.569901 0C4.07056 4.23227 7.48983 8.46453 10.9091 12.6969C7.40843 16.6338 3.98916 20.7677 0.488453 25Z" fill="black"/>
<path d="M14.5454 8.77016C13.5788 9.97987 12.5316 11.1895 11.565 12.5C8.34292 8.36693 5.04028 4.23386 1.81818 0.100794C1.81818 0.100794 1.81818 0 1.89872 0C6.08746 2.92337 10.2762 5.8468 14.5454 8.77016Z" fill="black"/>
<path d="M1.81818 24.9999C5.0608 21.1537 8.38447 17.3076 11.6271 13.4614C12.5188 14.5191 13.4916 15.5768 14.5454 16.7306C10.33 19.5191 6.11465 22.3076 1.89923 24.9999H1.81818Z" fill="black"/>
<path d="M15.1976 16.3461C14.0415 15.1154 12.9743 13.8846 11.8182 12.6539C12.9743 11.3205 14.1305 9.98716 15.2865 8.65381C15.6423 8.85891 15.998 9.06407 16.3538 9.37173C17.2431 9.98716 18.2214 10.5 19.1107 11.1153C19.3775 11.2179 19.5553 11.4231 19.7332 11.7307C20.0889 12.2435 20.0889 12.7564 19.7332 13.2692C19.5553 13.4743 19.3775 13.6795 19.1107 13.782C17.8656 14.7051 16.5316 15.5256 15.1976 16.3461Z" fill="black"/>
</svg>
