<svg width="40" height="40" viewBox="0 0 40 40" fill="none" xmlns="http://www.w3.org/2000/svg">
<g clip-path="url(#clip0_1117_489)">
<path d="M22.5001 2.5C22.5001 1.11719 21.3829 0 20.0001 0C18.6172 0 17.5001 1.11719 17.5001 2.5V18.75C17.5001 19.4375 16.9376 20 16.2501 20C15.5626 20 15.0001 19.4375 15.0001 18.75V5C15.0001 3.61719 13.8829 2.5 12.5001 2.5C11.1172 2.5 10.0001 3.61719 10.0001 5V26.25C10.0001 26.3672 10.0001 26.4922 10.0079 26.6094L5.2813 22.1094C4.0313 20.9219 2.05474 20.9688 0.85943 22.2188C-0.335882 23.4688 -0.281195 25.4453 0.968805 26.6406L9.75006 35C13.1172 38.2109 17.5938 40 22.2501 40H23.7501C31.3438 40 37.5001 33.8438 37.5001 26.25V10C37.5001 8.61719 36.3829 7.5 35.0001 7.5C33.6172 7.5 32.5001 8.61719 32.5001 10V18.75C32.5001 19.4375 31.9376 20 31.2501 20C30.5626 20 30.0001 19.4375 30.0001 18.75V5C30.0001 3.61719 28.8829 2.5 27.5001 2.5C26.1172 2.5 25.0001 3.61719 25.0001 5V18.75C25.0001 19.4375 24.4376 20 23.7501 20C23.0626 20 22.5001 19.4375 22.5001 18.75V2.5Z" fill="#730EF4"/>
</g>
<defs>
<clipPath id="clip0_1117_489">
<rect width="40" height="40" fill="white"/>
</clipPath>
</defs>
</svg>
