<svg width="80" height="80" viewBox="0 0 80 80" fill="none" xmlns="http://www.w3.org/2000/svg">
<g id="hand-solid 1" clip-path="url(#clip0_235_100)">
<path id="Vector" d="M45.0001 5C45.0001 2.23438 42.7657 0 40.0001 0C37.2345 0 35.0001 2.23438 35.0001 5V37.5C35.0001 38.875 33.8751 40 32.5001 40C31.1251 40 30.0001 38.875 30.0001 37.5V10C30.0001 7.23438 27.7657 5 25.0001 5C22.2345 5 20.0001 7.23438 20.0001 10V52.5C20.0001 52.7344 20.0001 52.9844 20.0157 53.2188L10.5626 44.2188C8.06261 41.8438 4.10949 41.9375 1.71886 44.4375C-0.671765 46.9375 -0.56239 50.8906 1.93761 53.2812L19.5001 70C26.2345 76.4219 35.1876 80 44.5001 80H47.5001C62.6876 80 75.0001 67.6875 75.0001 52.5V20C75.0001 17.2344 72.7657 15 70.0001 15C67.2345 15 65.0001 17.2344 65.0001 20V37.5C65.0001 38.875 63.8751 40 62.5001 40C61.1251 40 60.0001 38.875 60.0001 37.5V10C60.0001 7.23438 57.7657 5 55.0001 5C52.2345 5 50.0001 7.23438 50.0001 10V37.5C50.0001 38.875 48.8751 40 47.5001 40C46.1251 40 45.0001 38.875 45.0001 37.5V5Z" fill="#3876c0"/>
</g>
<defs>
<clipPath id="clip0_235_100">
<rect width="80" height="80" fill="white"/>
</clipPath>
</defs>
</svg>
