<svg width="40" height="40" viewBox="0 0 40 40" fill="none" xmlns="http://www.w3.org/2000/svg">
<g clip-path="url(#clip0_1117_509)">
<path d="M21.1484 0.757812C20.9531 0.296875 20.5 0 20 0C19.5 0 19.0469 0.296875 18.8516 0.757812L15.4062 8.79688C15.1406 9.42188 15 10.0859 15 10.7656V16.7812L3.75 23.3438V21.875C3.75 20.8359 2.91406 20 1.875 20C0.835938 20 0 20.8359 0 21.875V26.25V28.75V30.625C0 31.6641 0.835938 32.5 1.875 32.5C2.91406 32.5 3.75 31.6641 3.75 30.625V30H15V32.5547L10.4297 36.5625C10.1562 36.7969 10 37.1406 10 37.5V38.75C10 39.4375 10.5625 40 11.25 40H18.75V35C18.75 34.3125 19.3125 33.75 20 33.75C20.6875 33.75 21.25 34.3125 21.25 35V40H28.75C29.4375 40 30 39.4375 30 38.75V37.5C30 37.1406 29.8438 36.7969 29.5703 36.5625L25 32.5547V30H36.25V30.625C36.25 31.6641 37.0859 32.5 38.125 32.5C39.1641 32.5 40 31.6641 40 30.625V28.75V26.25V21.875C40 20.8359 39.1641 20 38.125 20C37.0859 20 36.25 20.8359 36.25 21.875V23.3438L25 16.7812V10.7656C25 10.0859 24.8594 9.42188 24.5938 8.79688L21.1484 0.757812Z" fill="black" fill-opacity="0.7"/>
</g>
<defs>
<clipPath id="clip0_1117_509">
<rect width="40" height="40" fill="white"/>
</clipPath>
</defs>
</svg>
