<svg width="27" height="27" viewBox="0 0 27 27" fill="none" xmlns="http://www.w3.org/2000/svg">
<g clip-path="url(#clip0_79_451)">
<path d="M6.51797 20.635C7.19824 20.1393 8.07891 20.0127 8.86992 20.2975C10.2674 20.8037 11.8336 21.0938 13.5 21.0938C20.076 21.0938 24.4688 16.8486 24.4688 12.6562C24.4688 8.46387 20.076 4.21875 13.5 4.21875C6.92403 4.21875 2.53125 8.46387 2.53125 12.6562C2.53125 14.3438 3.18516 15.968 4.41387 17.3602C4.86738 17.8717 5.08887 18.5467 5.03613 19.2322C4.96231 20.1867 4.73555 21.0621 4.44024 21.8373C5.33672 21.4207 6.08028 20.9566 6.51797 20.6402V20.635ZM1.11797 22.776C1.21289 22.6336 1.30254 22.4912 1.38692 22.3488C1.91426 21.4734 2.41524 20.3238 2.51543 19.0318C0.9334 17.2336 1.34343e-06 15.0346 1.34343e-06 12.6562C1.34343e-06 6.59707 6.04336 1.6875 13.5 1.6875C20.9566 1.6875 27 6.59707 27 12.6562C27 18.7154 20.9566 23.625 13.5 23.625C11.5436 23.625 9.68731 23.2875 8.01035 22.6811C7.38281 23.1398 6.35977 23.7674 5.14688 24.2947C4.35059 24.6428 3.44356 24.9592 2.50488 25.1437C2.4627 25.1543 2.42051 25.1596 2.37832 25.1701C2.14629 25.2123 1.91953 25.2492 1.68223 25.2703C1.67168 25.2703 1.65586 25.2756 1.64531 25.2756C1.37637 25.302 1.10742 25.3178 0.838478 25.3178C0.495705 25.3178 0.189845 25.1121 0.0580092 24.7957C-0.0738268 24.4793 1.33226e-06 24.1207 0.237306 23.8781C0.453517 23.6566 0.648634 23.4193 0.833205 23.1662C0.922853 23.0449 1.00723 22.9236 1.08633 22.8023C1.0916 22.7918 1.09688 22.7865 1.10215 22.776H1.11797Z" fill="black"/>
</g>
<defs>
<clipPath id="clip0_79_451">
<rect width="27" height="27" fill="white"/>
</clipPath>
</defs>
</svg>
