<svg width="50" height="50" viewBox="0 0 50 50" fill="none" xmlns="http://www.w3.org/2000/svg">
<circle cx="25" cy="25" r="25" fill="white"/>
<path d="M40.2424 25.321C40.2424 24.2446 40.1382 23.1335 39.9646 22.0918H24.9297V28.2377H33.5409C33.1937 30.2169 32.0478 31.953 30.3464 33.0641L35.4854 37.0572C38.5062 34.2447 40.2424 30.1474 40.2424 25.321Z" fill="#4280EF"/>
<path d="M24.9286 40.8757C29.2342 40.8757 32.8454 39.4521 35.4843 37.0215L30.3454 33.0631C28.9217 34.0353 27.0814 34.5909 24.9286 34.5909C20.7619 34.5909 17.255 31.7784 15.9702 28.0283L10.6924 32.0909C13.4007 37.4729 18.8869 40.8757 24.9286 40.8757Z" fill="#34A353"/>
<path d="M15.9706 27.9946C15.3108 26.0154 15.3108 23.8626 15.9706 21.8834L10.6927 17.7861C8.43576 22.3001 8.43576 27.6126 10.6927 32.0918L15.9706 27.9946Z" fill="#F6B704"/>
<path d="M24.9286 15.3201C27.1856 15.2854 29.4079 16.1535 31.0398 17.716L35.5885 13.1326C32.7065 10.4242 28.887 8.96588 24.9286 9.00061C18.8869 9.00061 13.4007 12.4034 10.6924 17.7854L15.9702 21.8827C17.255 18.0979 20.7619 15.3201 24.9286 15.3201Z" fill="#E54335"/>
<path d="M40.2424 25.321C40.2424 24.2446 40.1382 23.1335 39.9646 22.0918H24.9297V28.2377H33.5409C33.1937 30.2169 32.0478 31.953 30.3464 33.0641L35.4854 37.0572C38.5062 34.2447 40.2424 30.1474 40.2424 25.321Z" fill="#4280EF"/>
<path d="M24.9286 40.8757C29.2342 40.8757 32.8454 39.4521 35.4843 37.0215L30.3454 33.0631C28.9217 34.0353 27.0814 34.5909 24.9286 34.5909C20.7619 34.5909 17.255 31.7784 15.9702 28.0283L10.6924 32.0909C13.4007 37.4729 18.8869 40.8757 24.9286 40.8757Z" fill="#34A353"/>
<path d="M15.9706 27.9946C15.3108 26.0154 15.3108 23.8626 15.9706 21.8834L10.6927 17.7861C8.43576 22.3001 8.43576 27.6126 10.6927 32.0918L15.9706 27.9946Z" fill="#F6B704"/>
<path d="M24.9286 15.3201C27.1856 15.2854 29.4079 16.1535 31.0398 17.716L35.5885 13.1326C32.7065 10.4242 28.887 8.96588 24.9286 9.00061C18.8869 9.00061 13.4007 12.4034 10.6924 17.7854L15.9702 21.8827C17.255 18.0979 20.7619 15.3201 24.9286 15.3201Z" fill="#E54335"/>
</svg>
