<svg width="50" height="50" viewBox="0 0 50 50" fill="none" xmlns="http://www.w3.org/2000/svg">
<circle cx="25" cy="25" r="25" fill="black"/>
<path d="M38.1242 18.9148C37.9714 19.0039 34.3341 20.885 34.3341 25.0557C34.5056 29.8122 38.9242 31.4802 39 31.4802C38.9242 31.5694 38.3329 33.7526 36.5814 36.0411C35.1913 38.0124 33.6484 40 31.3056 40C29.077 40 28.277 38.6862 25.7056 38.6862C22.9441 38.6862 22.1627 40 20.0484 40C17.7055 40 16.0484 37.9059 14.5825 35.9531C12.6782 33.3972 11.0596 29.3862 11.0024 25.5349C10.9639 23.4941 11.3838 21.4881 12.4496 19.7841C13.954 17.4053 16.6397 15.7905 19.5726 15.7372C21.8198 15.6666 23.8198 17.1749 25.1913 17.1749C26.5056 17.1749 28.9627 15.7372 31.7428 15.7372C32.9428 15.7384 36.1429 16.0752 38.1242 18.9148ZM25.0012 15.3298C24.6012 13.4661 25.7056 11.6024 26.7341 10.4135C28.0484 8.97584 30.1242 8 31.9143 8C32.0286 9.8637 31.3043 11.6915 30.0099 13.0227C28.8484 14.4604 26.8484 15.5428 25.0012 15.3298Z" fill="white"/>
</svg>
