<svg width="52" height="52" viewBox="0 0 52 52" fill="none" xmlns="http://www.w3.org/2000/svg">
<circle cx="26" cy="26" r="22" stroke="#F0E4FF" stroke-width="8"/>
<mask id="path-2-inside-1_1671_913" fill="white">
<path d="M52 26C52 29.4144 51.3275 32.7953 50.0209 35.9498C48.7142 39.1042 46.7991 41.9705 44.3848 44.3848C41.9705 46.7991 39.1042 48.7142 35.9498 50.0209C32.7953 51.3275 29.4144 52 26 52L26 44.0719C28.3732 44.0719 30.7232 43.6044 32.9158 42.6962C35.1084 41.788 37.1006 40.4569 38.7787 38.7787C40.4569 37.1006 41.788 35.1084 42.6962 32.9158C43.6044 30.7232 44.0719 28.3732 44.0719 26H52Z"/>
</mask>
<path d="M52 26C52 29.4144 51.3275 32.7953 50.0209 35.9498C48.7142 39.1042 46.7991 41.9705 44.3848 44.3848C41.9705 46.7991 39.1042 48.7142 35.9498 50.0209C32.7953 51.3275 29.4144 52 26 52L26 44.0719C28.3732 44.0719 30.7232 43.6044 32.9158 42.6962C35.1084 41.788 37.1006 40.4569 38.7787 38.7787C40.4569 37.1006 41.788 35.1084 42.6962 32.9158C43.6044 30.7232 44.0719 28.3732 44.0719 26H52Z" stroke="#864FCD" stroke-width="24" mask="url(#path-2-inside-1_1671_913)"/>
</svg>
