<svg width="20" height="20" viewBox="0 0 20 20" fill="none" xmlns="http://www.w3.org/2000/svg">
<mask id="path-1-inside-1_1222_430" fill="white">
<path d="M20 10C20 12.1026 19.3373 14.1517 18.106 15.856C16.8747 17.5604 15.1375 18.8333 13.1414 19.4938C11.1452 20.1543 8.99165 20.1688 6.98679 19.5352C4.98192 18.9017 3.22776 17.6523 1.97363 15.9647C0.719505 14.2771 0.0292255 12.2371 0.000907026 10.1347C-0.0274114 8.03229 0.607672 5.97445 1.81589 4.25367C3.02411 2.53289 4.74398 1.23672 6.73106 0.549391C8.71813 -0.137933 10.8713 -0.18144 12.8845 0.425055L12.0084 3.33328C10.6067 2.911 9.10748 2.94129 7.72394 3.41985C6.34041 3.89841 5.14291 4.80089 4.30167 5.99902C3.46043 7.19714 3.01824 8.62994 3.03796 10.0938C3.05768 11.5576 3.53829 12.978 4.4115 14.153C5.28471 15.328 6.50608 16.1979 7.902 16.6391C9.29792 17.0802 10.7974 17.0701 12.1872 16.6102C13.5771 16.1503 14.7866 15.2641 15.6439 14.0774C16.5012 12.8907 16.9627 11.464 16.9627 10H20Z"/>
</mask>
<path d="M20 10C20 12.1026 19.3373 14.1517 18.106 15.856C16.8747 17.5604 15.1375 18.8333 13.1414 19.4938C11.1452 20.1543 8.99165 20.1688 6.98679 19.5352C4.98192 18.9017 3.22776 17.6523 1.97363 15.9647C0.719505 14.2771 0.0292255 12.2371 0.000907026 10.1347C-0.0274114 8.03229 0.607672 5.97445 1.81589 4.25367C3.02411 2.53289 4.74398 1.23672 6.73106 0.549391C8.71813 -0.137933 10.8713 -0.18144 12.8845 0.425055L12.0084 3.33328C10.6067 2.911 9.10748 2.94129 7.72394 3.41985C6.34041 3.89841 5.14291 4.80089 4.30167 5.99902C3.46043 7.19714 3.01824 8.62994 3.03796 10.0938C3.05768 11.5576 3.53829 12.978 4.4115 14.153C5.28471 15.328 6.50608 16.1979 7.902 16.6391C9.29792 17.0802 10.7974 17.0701 12.1872 16.6102C13.5771 16.1503 14.7866 15.2641 15.6439 14.0774C16.5012 12.8907 16.9627 11.464 16.9627 10H20Z" stroke="white" stroke-width="6" mask="url(#path-1-inside-1_1222_430)"/>
</svg>
