<svg width="15" height="15" viewBox="0 0 15 15" fill="none" xmlns="http://www.w3.org/2000/svg">
<path d="M11.0713 3.10254L14.6689 6.7002C14.8799 6.91113 15 7.20117 15 7.5C15 7.79883 14.8799 8.08887 14.6689 8.2998L11.0713 11.8975C10.8838 12.085 10.6318 12.1875 10.3682 12.1875C9.82031 12.1875 9.375 11.7422 9.375 11.1943V9.375H5.625C5.10645 9.375 4.6875 8.95605 4.6875 8.4375V6.5625C4.6875 6.04395 5.10645 5.625 5.625 5.625H9.375V3.80566C9.375 3.25781 9.82031 2.8125 10.3682 2.8125C10.6318 2.8125 10.8838 2.91797 11.0713 3.10254ZM4.6875 2.8125H2.8125C2.29395 2.8125 1.875 3.23145 1.875 3.75V11.25C1.875 11.7686 2.29395 12.1875 2.8125 12.1875H4.6875C5.20605 12.1875 5.625 12.6064 5.625 13.125C5.625 13.6436 5.20605 14.0625 4.6875 14.0625H2.8125C1.25977 14.0625 0 12.8027 0 11.25V3.75C0 2.19727 1.25977 0.9375 2.8125 0.9375H4.6875C5.20605 0.9375 5.625 1.35645 5.625 1.875C5.625 2.39355 5.20605 2.8125 4.6875 2.8125Z" fill="black" fill-opacity="0.7"/>
</svg>
