<svg width="366" height="117" viewBox="0 0 366 117" fill="none" xmlns="http://www.w3.org/2000/svg">
<g filter="url(#filter0_d_235_342)">
<rect x="18" y="27" width="330" height="72" rx="10" fill="white"/>
<rect x="19.5" y="28.5" width="327" height="69" rx="8.5" stroke="#F4F4F4" stroke-width="3"/>
</g>
<path d="M51.8945 4.7832C51.8945 6.28711 53.002 7.70898 54.875 8.26953L54.2324 9.32227C52.8447 8.88477 51.8125 7.96191 51.2656 6.79297C50.7256 8.05762 49.6729 9.04199 48.2441 9.54102L47.5879 8.50195C49.4609 7.90039 50.6094 6.41016 50.6094 4.7832V4.56445H47.9434V3.51172H50.6094V1.99414H51.9082V3.51172H54.5605V4.56445H51.8945V4.7832ZM57.2266 1.89844V5.6582H59.0039V6.73828H57.2266V10.9766H55.9277V1.89844H57.2266ZM57.7461 12.8496V13.9023H49.4609V10.1836H50.7598V12.8496H57.7461ZM70.8711 8.81641V9.86914H65.8945V14.1484H64.623V9.86914H59.7012V8.81641H70.8711ZM69.8184 2.63672V3.67578H66.0312C66.0518 5.19336 67.9385 6.54688 70.2559 6.86133L69.7773 7.88672C67.7676 7.57227 66.0312 6.58105 65.293 5.17969C64.5342 6.58105 62.8047 7.57227 60.8223 7.88672L60.3301 6.86133C62.6201 6.54688 64.5068 5.19336 64.5547 3.67578H60.7402V2.63672H69.8184ZM81.6992 2.67773C81.6992 5.82227 79.4707 8.02344 75.8477 8.98047L75.3281 7.95508C78.2812 7.18945 80.0723 5.6582 80.3047 3.7168H76.0117V2.67773H81.6992ZM85.377 1.92578V8.81641H84.0781V1.92578H85.377ZM85.377 9.36328V13.998H77.3516V9.36328H85.377ZM78.6367 10.4023V12.959H84.1055V10.4023H78.6367ZM91.4746 9.22656C91.4883 6.65625 92.2129 4.50977 93.498 2.67773H94.8379C93.8945 4.03125 92.9922 6.79297 92.9922 9.22656C92.9922 11.6738 93.8945 14.4219 94.8379 15.7891H93.498C92.2129 13.957 91.4883 11.8105 91.4746 9.22656ZM103 6.32812C102.754 5.05664 101.701 4.3457 100.443 4.3457C98.7344 4.3457 97.4629 5.6582 97.4629 8.05078C97.4629 10.457 98.748 11.7559 100.443 11.7559C101.688 11.7559 102.74 11.0586 103 9.80078L104.518 9.81445C104.203 11.7695 102.604 13.1367 100.43 13.1367C97.8457 13.1367 95.9727 11.209 95.9727 8.05078C95.9727 4.87891 97.8594 2.96484 100.43 2.96484C102.521 2.96484 104.176 4.19531 104.518 6.32812H103ZM107.484 8.59766V13H106.021V3.10156H107.457V6.79297H107.553C107.908 5.98633 108.592 5.48047 109.754 5.48047C111.285 5.48047 112.297 6.42383 112.297 8.2832V13H110.834V8.46094C110.834 7.36719 110.246 6.73828 109.262 6.73828C108.236 6.73828 107.484 7.4082 107.484 8.59766ZM113.719 10.9082C113.719 9.21289 115.154 8.77539 116.494 8.67969C116.986 8.64551 118.101 8.58398 118.449 8.57031L118.436 7.98242C118.436 7.14844 117.93 6.65625 116.932 6.65625C116.07 6.65625 115.551 7.05273 115.4 7.59961H113.951C114.088 6.36914 115.236 5.48047 116.986 5.48047C118.162 5.48047 119.898 5.91797 119.898 8.06445V13H118.477V11.9883H118.422C118.135 12.5488 117.451 13.1641 116.221 13.1641C114.812 13.1641 113.719 12.3574 113.719 10.9082ZM115.141 10.9219C115.141 11.6328 115.729 12.002 116.549 12.002C117.738 12.002 118.449 11.209 118.449 10.3203V9.63672C118.107 9.66406 117.041 9.73926 116.699 9.75977C115.742 9.82812 115.141 10.1836 115.141 10.9219ZM123.125 8.59766V13H121.662V5.57617H123.07V6.79297H123.152C123.508 6 124.232 5.48047 125.34 5.48047C126.871 5.48047 127.869 6.4375 127.869 8.2832V13H126.42V8.46094C126.42 7.38086 125.832 6.73828 124.848 6.73828C123.85 6.73828 123.125 7.4082 123.125 8.59766ZM129.646 5.57617H131.109V13.4785C131.109 14.9824 130.275 15.7891 128.744 15.7891C128.648 15.7891 128.553 15.7891 128.443 15.7754V14.5312H128.676C129.359 14.5312 129.646 14.1484 129.646 13.4648V5.57617ZM130.371 4.42773C129.865 4.42773 129.441 4.04492 129.441 3.56641C129.441 3.08789 129.865 2.70508 130.371 2.70508C130.863 2.70508 131.287 3.08789 131.287 3.56641C131.287 4.04492 130.863 4.42773 130.371 4.42773ZM137.604 9.91016V5.57617H139.053V13H137.631V11.7148H137.549C137.207 12.5078 136.441 13.0957 135.334 13.0957C133.898 13.0957 132.887 12.1387 132.887 10.293V5.57617H134.35V10.1152C134.35 11.127 134.965 11.7695 135.854 11.7695C136.66 11.7695 137.604 11.1816 137.604 9.91016ZM144.371 13V3.10156H145.875V7.81836H145.998L150.141 3.10156H152.027L148.035 7.55859L152.041 13H150.223L147.037 8.58398L145.875 9.92383V13H144.371ZM153.613 13V5.57617H155.076V13H153.613ZM154.352 4.42773C153.846 4.42773 153.422 4.04492 153.422 3.56641C153.422 3.08789 153.846 2.70508 154.352 2.70508C154.844 2.70508 155.268 3.08789 155.268 3.56641C155.268 4.04492 154.844 4.42773 154.352 4.42773ZM156.854 13V5.57617H158.262V6.79297H158.344C158.658 5.95898 159.383 5.48047 160.367 5.48047C161.352 5.48047 162.049 5.97266 162.363 6.79297H162.445C162.801 5.98633 163.594 5.48047 164.674 5.48047C166.014 5.48047 166.971 6.32812 166.971 8.02344V13H165.508V8.16016C165.508 7.16211 164.879 6.73828 164.113 6.73828C163.17 6.73828 162.637 7.38086 162.637 8.26953V13H161.188V8.07812C161.188 7.27148 160.627 6.73828 159.834 6.73828C159.014 6.73828 158.316 7.42188 158.316 8.41992V13H156.854ZM171.66 9.22656C171.646 11.8105 170.922 13.957 169.637 15.7891H168.297C169.24 14.4219 170.143 11.6738 170.143 9.22656C170.143 6.79297 169.24 4.03125 168.297 2.67773H169.637C170.922 4.50977 171.646 6.65625 171.66 9.22656Z" fill="black"/>
<g clip-path="url(#clip0_235_342)">
<path d="M33.6895 11.2559C33.042 10.1309 31.8262 9.375 30.4375 9.375H28.5625C27.1738 9.375 25.958 10.1309 25.3105 11.2559C26.3418 12.4043 27.8359 13.125 29.5 13.125C31.1641 13.125 32.6582 12.4014 33.6895 11.2559ZM22 7.5C22 5.51088 22.7902 3.60322 24.1967 2.1967C25.6032 0.790176 27.5109 0 29.5 0C31.4891 0 33.3968 0.790176 34.8033 2.1967C36.2098 3.60322 37 5.51088 37 7.5C37 9.48912 36.2098 11.3968 34.8033 12.8033C33.3968 14.2098 31.4891 15 29.5 15C27.5109 15 25.6032 14.2098 24.1967 12.8033C22.7902 11.3968 22 9.48912 22 7.5ZM29.5 7.96875C30.0594 7.96875 30.596 7.74651 30.9916 7.35093C31.3871 6.95534 31.6094 6.41882 31.6094 5.85938C31.6094 5.29993 31.3871 4.76341 30.9916 4.36782C30.596 3.97224 30.0594 3.75 29.5 3.75C28.9406 3.75 28.404 3.97224 28.0084 4.36782C27.6129 4.76341 27.3906 5.29993 27.3906 5.85938C27.3906 6.41882 27.6129 6.95534 28.0084 7.35093C28.404 7.74651 28.9406 7.96875 29.5 7.96875Z" fill="black"/>
</g>
<path d="M47.4111 47.6504C50.0361 47.6641 51.9365 48.9492 51.9365 50.9043C51.9365 52.7432 50.3438 53.9531 48.0537 54.1445V56.5508H53.0439V57.6309H41.833V56.5508H46.7686V54.1445C44.4922 53.9531 42.8994 52.7432 42.8994 50.9043C42.8994 48.9492 44.7998 47.6641 47.4111 47.6504ZM47.4111 48.7168C45.5244 48.7031 44.1572 49.5781 44.1572 50.9043C44.1572 52.2852 45.5244 53.1328 47.4111 53.1465C49.3115 53.1328 50.6787 52.2852 50.6787 50.9043C50.6787 49.5781 49.3115 48.7031 47.4111 48.7168ZM63.8174 49.7012V50.7539H55.4092V47.0898H56.6807V49.7012H63.8174ZM65.1299 51.834V52.873H53.9189V51.834H65.1299ZM63.7217 53.8574V56.8516H56.6123V57.9863H64.1455V59.0117H55.3135V55.8945H62.4365V54.8691H55.2861V53.8574H63.7217ZM75.7529 47.623V48.5801H78.3643V46.9121H79.6494V53.9258H78.3643V51.9023H75.7529V52.8867H69.9971V47.623H75.7529ZM71.2822 48.6484V51.875H74.4678V48.6484H71.2822ZM79.9092 54.6914V55.6758H76.3408C76.4023 56.749 78.125 57.8701 80.3604 58.123L79.9229 59.1074C78.002 58.8682 76.4092 58.0479 75.6709 56.9609C74.9326 58.0752 73.3057 58.8818 71.3779 59.1074L70.9404 58.123C73.1895 57.9111 74.9463 56.8037 75.0146 55.6758H71.4326V54.6914H75.0146V53.5566H76.3408V54.6914H79.9092ZM75.7529 50.8906H78.3643V49.5918H75.7529V50.8906ZM89.4658 50.0293C89.4521 52.2715 90.8057 54.5137 92.7061 55.3613L91.9268 56.3867C90.5186 55.7168 89.4043 54.3428 88.8369 52.668C88.2627 54.459 87.1348 55.9424 85.665 56.6602L84.8721 55.5664C86.7998 54.7051 88.1533 52.3672 88.1533 50.0293V47.9375H89.4658V50.0293ZM95.1123 46.9121V59.1895H93.8135V46.9121H95.1123ZM107.608 46.9121V59.1621H106.364V46.9121H107.608ZM105.12 47.1445V58.5605H103.876V52.6543H102.495C102.386 55.0469 101.36 56.5371 99.8428 56.5234C98.2432 56.5371 97.2041 54.8555 97.2041 52.2031C97.2041 49.5508 98.2432 47.8828 99.8428 47.8965C101.333 47.8828 102.345 49.2979 102.495 51.6016H103.876V47.1445H105.12ZM99.8428 49.1133C98.9541 49.1133 98.4072 50.248 98.4072 52.2031C98.4072 54.1582 98.9541 55.293 99.8428 55.293C100.745 55.293 101.306 54.1582 101.306 52.2031C101.306 50.248 100.745 49.1133 99.8428 49.1133ZM117.083 50.0293C117.069 52.2715 118.423 54.5137 120.323 55.3613L119.544 56.3867C118.136 55.7168 117.021 54.3428 116.454 52.668C115.88 54.459 114.752 55.9424 113.282 56.6602L112.489 55.5664C114.417 54.7051 115.771 52.3672 115.771 50.0293V47.9375H117.083V50.0293ZM122.729 46.9121V59.1895H121.431V46.9121H122.729ZM134.31 46.9121V50.5352H136.087V51.6152H134.31V55.8125H132.997V46.9121H134.31ZM130.987 47.8418C130.987 51.0547 128.8 53.3926 125.218 54.4727L124.671 53.4336C127.535 52.5723 129.319 50.9453 129.579 48.9219H125.19V47.8418H130.987ZM134.815 57.8496V58.9023H126.53V54.8965H127.843V57.8496H134.815ZM144.085 52.0938V53.1602H141.501V55.4297C142.636 55.375 143.777 55.2998 144.851 55.1836L144.946 56.1406C142.253 56.5508 139.341 56.5781 137.017 56.5918L136.853 55.5117C137.885 55.5117 139.026 55.5049 140.202 55.4707V53.1602H137.741V48.0469H144.03V49.0996H139.026V52.0938H144.085ZM146.915 46.9121V59.1895H145.616V46.9121H146.915ZM152.616 50.2617C152.616 52.2168 153.437 54.3086 155.077 55.3066L154.353 56.3047C153.204 55.6143 152.425 54.3906 152.015 52.9688C151.557 54.5273 150.716 55.8535 149.526 56.5781L148.72 55.6074C150.456 54.5684 151.358 52.4082 151.358 50.3164V48.0332H152.616V50.2617ZM159.425 46.9121V59.1621H158.181V46.9121H159.425ZM156.882 47.1445V58.5605H155.651V52.2988H153.751V51.2188H155.651V47.1445H156.882ZM172.194 56.5508V57.6309H160.983V56.5508H163.663V53.3516C162.658 52.7979 162.05 51.916 162.05 50.8223C162.05 48.8945 163.937 47.623 166.562 47.623C169.2 47.623 171.087 48.8945 171.087 50.8223C171.087 51.9023 170.499 52.7705 169.515 53.3242V56.5508H172.194ZM166.562 48.6621C164.634 48.6621 163.308 49.4961 163.308 50.8223C163.308 52.1348 164.634 52.9961 166.562 52.9961C168.476 52.9961 169.829 52.1348 169.829 50.8223C169.829 49.4961 168.476 48.6621 166.562 48.6621ZM164.948 56.5508H168.202V53.8164C167.703 53.9463 167.149 54.0078 166.562 54.0078C165.987 54.0078 165.44 53.9463 164.948 53.8301V56.5508ZM175.093 55.0605C175.106 53.2695 175.64 52.7227 176.542 52.1621C177.116 51.8066 177.554 51.3145 177.554 50.5898C177.554 49.7285 176.897 49.1953 176.077 49.1953C175.339 49.1953 174.628 49.6465 174.56 50.6582H173.083C173.138 48.9219 174.45 47.9648 176.077 47.9648C177.854 47.9648 179.044 49.0312 179.044 50.5898C179.044 51.6836 178.524 52.4219 177.649 52.9551C176.829 53.4473 176.515 53.9531 176.487 55.0605V55.1426H175.093V55.0605ZM175.845 58.0957C175.312 58.0957 174.86 57.6582 174.874 57.125C174.86 56.5918 175.312 56.1543 175.845 56.1543C176.364 56.1543 176.815 56.5918 176.815 57.125C176.815 57.6582 176.364 58.0957 175.845 58.0957Z" fill="black"/>
<path d="M74.085 78L71.3369 68.1016H72.9229L74.8506 75.7578H74.9326L76.9424 68.1016H78.501L80.5107 75.7578H80.5928L82.5205 68.1016H84.1064L81.3584 78H79.8408L77.7627 70.6035H77.6807L75.6025 78H74.085ZM86.6768 73.5977V78H85.2139V68.1016H86.6494V71.793H86.7451C87.1006 70.9863 87.7842 70.4805 88.9463 70.4805C90.4775 70.4805 91.4893 71.4238 91.4893 73.2832V78H90.0264V73.4609C90.0264 72.3672 89.4385 71.7383 88.4541 71.7383C87.4287 71.7383 86.6768 72.4082 86.6768 73.5977ZM92.9111 75.9082C92.9111 74.2129 94.3467 73.7754 95.6865 73.6797C96.1787 73.6455 97.293 73.584 97.6416 73.5703L97.6279 72.9824C97.6279 72.1484 97.1221 71.6562 96.124 71.6562C95.2627 71.6562 94.7432 72.0527 94.5928 72.5996H93.1436C93.2803 71.3691 94.4287 70.4805 96.1787 70.4805C97.3545 70.4805 99.0908 70.918 99.0908 73.0645V78H97.6689V76.9883H97.6143C97.3271 77.5488 96.6436 78.1641 95.4131 78.1641C94.0049 78.1641 92.9111 77.3574 92.9111 75.9082ZM94.333 75.9219C94.333 76.6328 94.9209 77.002 95.7412 77.002C96.9307 77.002 97.6416 76.209 97.6416 75.3203V74.6367C97.2998 74.6641 96.2334 74.7393 95.8916 74.7598C94.9346 74.8281 94.333 75.1836 94.333 75.9219ZM104.327 70.5762V71.7383H102.81V75.8125C102.81 76.6465 103.233 76.7969 103.698 76.8105C103.903 76.8105 104.231 76.7832 104.437 76.7695V78.041C104.231 78.0684 103.917 78.0957 103.521 78.0957C102.372 78.0957 101.347 77.4668 101.36 76.1133V71.7383H100.267V70.5762H101.36V68.7988H102.81V70.5762H104.327ZM112.64 70.5762V71.7383H111.122V75.8125C111.122 76.6465 111.546 76.7969 112.011 76.8105C112.216 76.8105 112.544 76.7832 112.749 76.7695V78.041C112.544 78.0684 112.229 78.0957 111.833 78.0957C110.685 78.0957 109.659 77.4668 109.673 76.1133V71.7383H108.579V70.5762H109.673V68.7988H111.122V70.5762H112.64ZM114.062 78V70.5762H115.524V78H114.062ZM114.8 69.4277C114.294 69.4277 113.87 69.0449 113.87 68.5664C113.87 68.0879 114.294 67.7051 114.8 67.7051C115.292 67.7051 115.716 68.0879 115.716 68.5664C115.716 69.0449 115.292 69.4277 114.8 69.4277ZM117.302 78V70.5762H118.71V71.793H118.792C119.106 70.959 119.831 70.4805 120.815 70.4805C121.8 70.4805 122.497 70.9727 122.812 71.793H122.894C123.249 70.9863 124.042 70.4805 125.122 70.4805C126.462 70.4805 127.419 71.3281 127.419 73.0234V78H125.956V73.1602C125.956 72.1621 125.327 71.7383 124.562 71.7383C123.618 71.7383 123.085 72.3809 123.085 73.2695V78H121.636V73.0781C121.636 72.2715 121.075 71.7383 120.282 71.7383C119.462 71.7383 118.765 72.4219 118.765 73.4199V78H117.302ZM132.382 78.1504C130.194 78.1504 128.854 76.6465 128.854 74.3359C128.854 72.0527 130.222 70.4805 132.286 70.4805C133.981 70.4805 135.581 71.5332 135.581 74.2129V74.7324H130.304C130.345 76.1406 131.172 76.9473 132.396 76.9473C133.229 76.9473 133.763 76.5918 134.009 76.1406H135.485C135.157 77.3438 134.009 78.1504 132.382 78.1504ZM130.317 73.6387H134.146C134.146 72.5039 133.421 71.6836 132.3 71.6836C131.131 71.6836 130.372 72.5859 130.317 73.6387ZM140.106 75.9082C140.106 74.2129 141.542 73.7754 142.882 73.6797C143.374 73.6455 144.488 73.584 144.837 73.5703L144.823 72.9824C144.823 72.1484 144.317 71.6562 143.319 71.6562C142.458 71.6562 141.938 72.0527 141.788 72.5996H140.339C140.476 71.3691 141.624 70.4805 143.374 70.4805C144.55 70.4805 146.286 70.918 146.286 73.0645V78H144.864V76.9883H144.81C144.522 77.5488 143.839 78.1641 142.608 78.1641C141.2 78.1641 140.106 77.3574 140.106 75.9082ZM141.528 75.9219C141.528 76.6328 142.116 77.002 142.937 77.002C144.126 77.002 144.837 76.209 144.837 75.3203V74.6367C144.495 74.6641 143.429 74.7393 143.087 74.7598C142.13 74.8281 141.528 75.1836 141.528 75.9219ZM148.05 78V70.5762H149.458V71.752H149.54C149.813 70.959 150.552 70.4668 151.427 70.4668C151.604 70.4668 151.892 70.4805 152.042 70.4941V71.8887C151.919 71.8613 151.577 71.8066 151.276 71.8066C150.265 71.8066 149.513 72.5039 149.513 73.4746V78H148.05ZM156.089 78.1504C153.901 78.1504 152.562 76.6465 152.562 74.3359C152.562 72.0527 153.929 70.4805 155.993 70.4805C157.688 70.4805 159.288 71.5332 159.288 74.2129V74.7324H154.011C154.052 76.1406 154.879 76.9473 156.103 76.9473C156.937 76.9473 157.47 76.5918 157.716 76.1406H159.192C158.864 77.3438 157.716 78.1504 156.089 78.1504ZM154.024 73.6387H157.853C157.853 72.5039 157.128 71.6836 156.007 71.6836C154.838 71.6836 154.079 72.5859 154.024 73.6387ZM165.058 80.7891C164.757 80.7891 164.47 80.7754 164.278 80.748V79.5312C164.442 79.5449 164.729 79.5586 164.935 79.5586C165.386 79.5586 165.769 79.5176 166.11 78.5879L166.288 78.0957L163.567 70.5762H165.126L166.999 76.332H167.081L168.954 70.5762H170.526L167.464 78.9844C167.04 80.1602 166.274 80.7891 165.058 80.7891ZM174.601 78.1504C172.495 78.1504 171.128 76.6191 171.128 74.3223C171.128 72.0117 172.495 70.4805 174.601 70.4805C176.692 70.4805 178.06 72.0117 178.06 74.3223C178.06 76.6191 176.692 78.1504 174.601 78.1504ZM174.601 76.9336C175.94 76.9336 176.583 75.7441 176.583 74.3223C176.583 72.9004 175.94 71.6836 174.601 71.6836C173.233 71.6836 172.591 72.9004 172.591 74.3223C172.591 75.7441 173.233 76.9336 174.601 76.9336ZM184.212 74.9102V70.5762H185.661V78H184.239V76.7148H184.157C183.815 77.5078 183.05 78.0957 181.942 78.0957C180.507 78.0957 179.495 77.1387 179.495 75.293V70.5762H180.958V75.1152C180.958 76.127 181.573 76.7695 182.462 76.7695C183.269 76.7695 184.212 76.1816 184.212 74.9102ZM194.397 70.5762V71.7383H192.798V78H191.335V71.7383H190.187V70.5762H191.335V69.7148C191.335 68.3887 192.183 67.6367 193.55 67.6367C193.905 67.6367 194.261 67.6777 194.548 67.7324V68.9492C194.274 68.9082 194.069 68.8945 193.933 68.8945C193.153 68.8945 192.798 69.209 192.798 69.9336V70.5762H194.397ZM195.724 78V70.5762H197.132V71.752H197.214C197.487 70.959 198.226 70.4668 199.101 70.4668C199.278 70.4668 199.565 70.4805 199.716 70.4941V71.8887C199.593 71.8613 199.251 71.8066 198.95 71.8066C197.938 71.8066 197.187 72.5039 197.187 73.4746V78H195.724ZM203.763 78.1504C201.575 78.1504 200.235 76.6465 200.235 74.3359C200.235 72.0527 201.603 70.4805 203.667 70.4805C205.362 70.4805 206.962 71.5332 206.962 74.2129V74.7324H201.685C201.726 76.1406 202.553 76.9473 203.776 76.9473C204.61 76.9473 205.144 76.5918 205.39 76.1406H206.866C206.538 77.3438 205.39 78.1504 203.763 78.1504ZM201.698 73.6387H205.526C205.526 72.5039 204.802 71.6836 203.681 71.6836C202.512 71.6836 201.753 72.5859 201.698 73.6387ZM211.61 78.1504C209.423 78.1504 208.083 76.6465 208.083 74.3359C208.083 72.0527 209.45 70.4805 211.515 70.4805C213.21 70.4805 214.81 71.5332 214.81 74.2129V74.7324H209.532C209.573 76.1406 210.4 76.9473 211.624 76.9473C212.458 76.9473 212.991 76.5918 213.237 76.1406H214.714C214.386 77.3438 213.237 78.1504 211.61 78.1504ZM209.546 73.6387H213.374C213.374 72.5039 212.649 71.6836 211.528 71.6836C210.359 71.6836 209.601 72.5859 209.546 73.6387ZM223.149 70.5762V71.7383H221.632V75.8125C221.632 76.6465 222.056 76.7969 222.521 76.8105C222.726 76.8105 223.054 76.7832 223.259 76.7695V78.041C223.054 78.0684 222.739 78.0957 222.343 78.0957C221.194 78.0957 220.169 77.4668 220.183 76.1133V71.7383H219.089V70.5762H220.183V68.7988H221.632V70.5762H223.149ZM227.634 78.1504C225.528 78.1504 224.161 76.6191 224.161 74.3223C224.161 72.0117 225.528 70.4805 227.634 70.4805C229.726 70.4805 231.093 72.0117 231.093 74.3223C231.093 76.6191 229.726 78.1504 227.634 78.1504ZM227.634 76.9336C228.974 76.9336 229.616 75.7441 229.616 74.3223C229.616 72.9004 228.974 71.6836 227.634 71.6836C226.267 71.6836 225.624 72.9004 225.624 74.3223C225.624 75.7441 226.267 76.9336 227.634 76.9336ZM235.304 78.1504C233.513 78.1504 232.2 76.7012 232.2 74.3086C232.2 71.8887 233.526 70.4805 235.317 70.4805C236.698 70.4805 237.204 71.3145 237.464 71.7793H237.532V68.1016H238.995V78H237.573V76.8379H237.464C237.19 77.3301 236.657 78.1504 235.304 78.1504ZM235.632 76.9062C236.876 76.9062 237.573 75.8398 237.573 74.2812C237.573 72.7363 236.89 71.7246 235.632 71.7246C234.333 71.7246 233.69 72.8184 233.69 74.2812C233.69 75.7715 234.36 76.9062 235.632 76.9062ZM240.554 75.9082C240.554 74.2129 241.989 73.7754 243.329 73.6797C243.821 73.6455 244.936 73.584 245.284 73.5703L245.271 72.9824C245.271 72.1484 244.765 71.6562 243.767 71.6562C242.905 71.6562 242.386 72.0527 242.235 72.5996H240.786C240.923 71.3691 242.071 70.4805 243.821 70.4805C244.997 70.4805 246.733 70.918 246.733 73.0645V78H245.312V76.9883H245.257C244.97 77.5488 244.286 78.1641 243.056 78.1641C241.647 78.1641 240.554 77.3574 240.554 75.9082ZM241.976 75.9219C241.976 76.6328 242.563 77.002 243.384 77.002C244.573 77.002 245.284 76.209 245.284 75.3203V74.6367C244.942 74.6641 243.876 74.7393 243.534 74.7598C242.577 74.8281 241.976 75.1836 241.976 75.9219ZM249.126 80.7891C248.825 80.7891 248.538 80.7754 248.347 80.748V79.5312C248.511 79.5449 248.798 79.5586 249.003 79.5586C249.454 79.5586 249.837 79.5176 250.179 78.5879L250.356 78.0957L247.636 70.5762H249.194L251.067 76.332H251.149L253.022 70.5762H254.595L251.532 78.9844C251.108 80.1602 250.343 80.7891 249.126 80.7891ZM257.356 75.0605C257.37 73.2695 257.903 72.7227 258.806 72.1621C259.38 71.8066 259.817 71.3145 259.817 70.5898C259.817 69.7285 259.161 69.1953 258.341 69.1953C257.603 69.1953 256.892 69.6465 256.823 70.6582H255.347C255.401 68.9219 256.714 67.9648 258.341 67.9648C260.118 67.9648 261.308 69.0312 261.308 70.5898C261.308 71.6836 260.788 72.4219 259.913 72.9551C259.093 73.4473 258.778 73.9531 258.751 75.0605V75.1426H257.356V75.0605ZM258.108 78.0957C257.575 78.0957 257.124 77.6582 257.138 77.125C257.124 76.5918 257.575 76.1543 258.108 76.1543C258.628 76.1543 259.079 76.5918 259.079 77.125C259.079 77.6582 258.628 78.0957 258.108 78.0957Z" fill="black" fill-opacity="0.6"/>
<path d="M41 69C41 67.8969 41.8969 67 43 67H49H50.5H51H59C60.1031 67 61 67.8969 61 69V77C61 78.1031 60.1031 79 59 79H51H50.5H49H43C41.8969 79 41 78.1031 41 77V69ZM51 69V77H59V69H51ZM46.5719 70.4969C46.4719 70.2719 46.2469 70.125 46 70.125C45.7531 70.125 45.5281 70.2719 45.4281 70.4969L43.4281 74.9969C43.2875 75.3125 43.4313 75.6812 43.7469 75.8219C44.0625 75.9625 44.4313 75.8188 44.5719 75.5031L44.85 74.875H47.15L47.4281 75.5031C47.5687 75.8188 47.9375 75.9594 48.2531 75.8219C48.5688 75.6844 48.7094 75.3125 48.5719 74.9969L46.5719 70.4969ZM46 72.2875L46.5938 73.625H45.4062L46 72.2875ZM55 70.125C55.3438 70.125 55.625 70.4062 55.625 70.75V70.875H57H57.5C57.8438 70.875 58.125 71.1562 58.125 71.5C58.125 71.8438 57.8438 72.125 57.5 72.125H57.4375L57.3875 72.2656C57.1094 73.0281 56.6875 73.7219 56.15 74.3094C56.1781 74.3281 56.2063 74.3438 56.2344 74.3594L56.825 74.7125C57.1219 74.8906 57.2156 75.275 57.0406 75.5688C56.8656 75.8625 56.4781 75.9594 56.1844 75.7844L55.5938 75.4312C55.4531 75.3469 55.3187 75.2594 55.1844 75.1656C54.8531 75.4 54.5 75.6031 54.1219 75.7719L54.0094 75.8219C53.6937 75.9625 53.325 75.8188 53.1844 75.5031C53.0437 75.1875 53.1875 74.8188 53.5031 74.6781L53.6156 74.6281C53.8156 74.5375 54.0094 74.4375 54.1938 74.3219L53.8125 73.9406C53.5687 73.6969 53.5687 73.3 53.8125 73.0562C54.0563 72.8125 54.4531 72.8125 54.6969 73.0562L55.1531 73.5125L55.1687 73.5281C55.5562 73.1187 55.8719 72.6437 56.1 72.1219H55H52.75C52.4062 72.1219 52.125 71.8406 52.125 71.4969C52.125 71.1531 52.4062 70.8719 52.75 70.8719H54.375V70.7469C54.375 70.4031 54.6562 70.1219 55 70.1219V70.125Z" fill="black" fill-opacity="0.6"/>
<defs>
<filter id="filter0_d_235_342" x="0" y="9" width="366" height="108" filterUnits="userSpaceOnUse" color-interpolation-filters="sRGB">
<feFlood flood-opacity="0" result="BackgroundImageFix"/>
<feColorMatrix in="SourceAlpha" type="matrix" values="0 0 0 0 0 0 0 0 0 0 0 0 0 0 0 0 0 0 127 0" result="hardAlpha"/>
<feMorphology radius="10" operator="erode" in="SourceAlpha" result="effect1_dropShadow_235_342"/>
<feOffset/>
<feGaussianBlur stdDeviation="14"/>
<feComposite in2="hardAlpha" operator="out"/>
<feColorMatrix type="matrix" values="0 0 0 0 0 0 0 0 0 0 0 0 0 0 0 0 0 0 0.25 0"/>
<feBlend mode="normal" in2="BackgroundImageFix" result="effect1_dropShadow_235_342"/>
<feBlend mode="normal" in="SourceGraphic" in2="effect1_dropShadow_235_342" result="shape"/>
</filter>
<clipPath id="clip0_235_342">
<rect width="15" height="15" fill="white" transform="translate(22)"/>
</clipPath>
</defs>
</svg>
