<svg width="366" height="117" viewBox="0 0 366 117" fill="none" xmlns="http://www.w3.org/2000/svg">
<g filter="url(#filter0_d_235_341)">
<rect x="18" y="27" width="330" height="72" rx="10" fill="white"/>
<rect x="19.5" y="28.5" width="327" height="69" rx="8.5" stroke="#F4F4F4" stroke-width="3"/>
</g>
<path d="M226.895 4.7832C226.895 6.28711 228.002 7.70898 229.875 8.26953L229.232 9.32227C227.845 8.88477 226.812 7.96191 226.266 6.79297C225.726 8.05762 224.673 9.04199 223.244 9.54102L222.588 8.50195C224.461 7.90039 225.609 6.41016 225.609 4.7832V4.56445H222.943V3.51172H225.609V1.99414H226.908V3.51172H229.561V4.56445H226.895V4.7832ZM232.227 1.89844V5.6582H234.004V6.73828H232.227V10.9766H230.928V1.89844H232.227ZM232.746 12.8496V13.9023H224.461V10.1836H225.76V12.8496H232.746ZM245.871 8.81641V9.86914H240.895V14.1484H239.623V9.86914H234.701V8.81641H245.871ZM244.818 2.63672V3.67578H241.031C241.052 5.19336 242.938 6.54688 245.256 6.86133L244.777 7.88672C242.768 7.57227 241.031 6.58105 240.293 5.17969C239.534 6.58105 237.805 7.57227 235.822 7.88672L235.33 6.86133C237.62 6.54688 239.507 5.19336 239.555 3.67578H235.74V2.63672H244.818ZM256.699 2.67773C256.699 5.82227 254.471 8.02344 250.848 8.98047L250.328 7.95508C253.281 7.18945 255.072 5.6582 255.305 3.7168H251.012V2.67773H256.699ZM260.377 1.92578V8.81641H259.078V1.92578H260.377ZM260.377 9.36328V13.998H252.352V9.36328H260.377ZM253.637 10.4023V12.959H259.105V10.4023H253.637ZM266.475 9.22656C266.488 6.65625 267.213 4.50977 268.498 2.67773H269.838C268.895 4.03125 267.992 6.79297 267.992 9.22656C267.992 11.6738 268.895 14.4219 269.838 15.7891H268.498C267.213 13.957 266.488 11.8105 266.475 9.22656ZM278 6.32812C277.754 5.05664 276.701 4.3457 275.443 4.3457C273.734 4.3457 272.463 5.6582 272.463 8.05078C272.463 10.457 273.748 11.7559 275.443 11.7559C276.688 11.7559 277.74 11.0586 278 9.80078L279.518 9.81445C279.203 11.7695 277.604 13.1367 275.43 13.1367C272.846 13.1367 270.973 11.209 270.973 8.05078C270.973 4.87891 272.859 2.96484 275.43 2.96484C277.521 2.96484 279.176 4.19531 279.518 6.32812H278ZM282.484 8.59766V13H281.021V3.10156H282.457V6.79297H282.553C282.908 5.98633 283.592 5.48047 284.754 5.48047C286.285 5.48047 287.297 6.42383 287.297 8.2832V13H285.834V8.46094C285.834 7.36719 285.246 6.73828 284.262 6.73828C283.236 6.73828 282.484 7.4082 282.484 8.59766ZM288.719 10.9082C288.719 9.21289 290.154 8.77539 291.494 8.67969C291.986 8.64551 293.101 8.58398 293.449 8.57031L293.436 7.98242C293.436 7.14844 292.93 6.65625 291.932 6.65625C291.07 6.65625 290.551 7.05273 290.4 7.59961H288.951C289.088 6.36914 290.236 5.48047 291.986 5.48047C293.162 5.48047 294.898 5.91797 294.898 8.06445V13H293.477V11.9883H293.422C293.135 12.5488 292.451 13.1641 291.221 13.1641C289.812 13.1641 288.719 12.3574 288.719 10.9082ZM290.141 10.9219C290.141 11.6328 290.729 12.002 291.549 12.002C292.738 12.002 293.449 11.209 293.449 10.3203V9.63672C293.107 9.66406 292.041 9.73926 291.699 9.75977C290.742 9.82812 290.141 10.1836 290.141 10.9219ZM298.125 8.59766V13H296.662V5.57617H298.07V6.79297H298.152C298.508 6 299.232 5.48047 300.34 5.48047C301.871 5.48047 302.869 6.4375 302.869 8.2832V13H301.42V8.46094C301.42 7.38086 300.832 6.73828 299.848 6.73828C298.85 6.73828 298.125 7.4082 298.125 8.59766ZM304.646 5.57617H306.109V13.4785C306.109 14.9824 305.275 15.7891 303.744 15.7891C303.648 15.7891 303.553 15.7891 303.443 15.7754V14.5312H303.676C304.359 14.5312 304.646 14.1484 304.646 13.4648V5.57617ZM305.371 4.42773C304.865 4.42773 304.441 4.04492 304.441 3.56641C304.441 3.08789 304.865 2.70508 305.371 2.70508C305.863 2.70508 306.287 3.08789 306.287 3.56641C306.287 4.04492 305.863 4.42773 305.371 4.42773ZM312.604 9.91016V5.57617H314.053V13H312.631V11.7148H312.549C312.207 12.5078 311.441 13.0957 310.334 13.0957C308.898 13.0957 307.887 12.1387 307.887 10.293V5.57617H309.35V10.1152C309.35 11.127 309.965 11.7695 310.854 11.7695C311.66 11.7695 312.604 11.1816 312.604 9.91016ZM319.371 13V3.10156H320.875V7.81836H320.998L325.141 3.10156H327.027L323.035 7.55859L327.041 13H325.223L322.037 8.58398L320.875 9.92383V13H319.371ZM328.613 13V5.57617H330.076V13H328.613ZM329.352 4.42773C328.846 4.42773 328.422 4.04492 328.422 3.56641C328.422 3.08789 328.846 2.70508 329.352 2.70508C329.844 2.70508 330.268 3.08789 330.268 3.56641C330.268 4.04492 329.844 4.42773 329.352 4.42773ZM331.854 13V5.57617H333.262V6.79297H333.344C333.658 5.95898 334.383 5.48047 335.367 5.48047C336.352 5.48047 337.049 5.97266 337.363 6.79297H337.445C337.801 5.98633 338.594 5.48047 339.674 5.48047C341.014 5.48047 341.971 6.32812 341.971 8.02344V13H340.508V8.16016C340.508 7.16211 339.879 6.73828 339.113 6.73828C338.17 6.73828 337.637 7.38086 337.637 8.26953V13H336.188V8.07812C336.188 7.27148 335.627 6.73828 334.834 6.73828C334.014 6.73828 333.316 7.42188 333.316 8.41992V13H331.854ZM346.66 9.22656C346.646 11.8105 345.922 13.957 344.637 15.7891H343.297C344.24 14.4219 345.143 11.6738 345.143 9.22656C345.143 6.79297 344.24 4.03125 343.297 2.67773H344.637C345.922 4.50977 346.646 6.65625 346.66 9.22656Z" fill="black"/>
<g clip-path="url(#clip0_235_341)">
<path d="M208.689 11.2559C208.042 10.1309 206.826 9.375 205.438 9.375H203.562C202.174 9.375 200.958 10.1309 200.311 11.2559C201.342 12.4043 202.836 13.125 204.5 13.125C206.164 13.125 207.658 12.4014 208.689 11.2559ZM197 7.5C197 5.51088 197.79 3.60322 199.197 2.1967C200.603 0.790176 202.511 0 204.5 0C206.489 0 208.397 0.790176 209.803 2.1967C211.21 3.60322 212 5.51088 212 7.5C212 9.48912 211.21 11.3968 209.803 12.8033C208.397 14.2098 206.489 15 204.5 15C202.511 15 200.603 14.2098 199.197 12.8033C197.79 11.3968 197 9.48912 197 7.5ZM204.5 7.96875C205.059 7.96875 205.596 7.74651 205.992 7.35093C206.387 6.95534 206.609 6.41882 206.609 5.85938C206.609 5.29993 206.387 4.76341 205.992 4.36782C205.596 3.97224 205.059 3.75 204.5 3.75C203.941 3.75 203.404 3.97224 203.008 4.36782C202.613 4.76341 202.391 5.29993 202.391 5.85938C202.391 6.41882 202.613 6.95534 203.008 7.35093C203.404 7.74651 203.941 7.96875 204.5 7.96875Z" fill="black"/>
</g>
<path d="M141.203 58L138.455 48.1016H140.041L141.969 55.7578H142.051L144.061 48.1016H145.619L147.629 55.7578H147.711L149.639 48.1016H151.225L148.477 58H146.959L144.881 50.6035H144.799L142.721 58H141.203ZM153.795 53.5977V58H152.332V48.1016H153.768V51.793H153.863C154.219 50.9863 154.902 50.4805 156.064 50.4805C157.596 50.4805 158.607 51.4238 158.607 53.2832V58H157.145V53.4609C157.145 52.3672 156.557 51.7383 155.572 51.7383C154.547 51.7383 153.795 52.4082 153.795 53.5977ZM160.029 55.9082C160.029 54.2129 161.465 53.7754 162.805 53.6797C163.297 53.6455 164.411 53.584 164.76 53.5703L164.746 52.9824C164.746 52.1484 164.24 51.6562 163.242 51.6562C162.381 51.6562 161.861 52.0527 161.711 52.5996H160.262C160.398 51.3691 161.547 50.4805 163.297 50.4805C164.473 50.4805 166.209 50.918 166.209 53.0645V58H164.787V56.9883H164.732C164.445 57.5488 163.762 58.1641 162.531 58.1641C161.123 58.1641 160.029 57.3574 160.029 55.9082ZM161.451 55.9219C161.451 56.6328 162.039 57.002 162.859 57.002C164.049 57.002 164.76 56.209 164.76 55.3203V54.6367C164.418 54.6641 163.352 54.7393 163.01 54.7598C162.053 54.8281 161.451 55.1836 161.451 55.9219ZM171.445 50.5762V51.7383H169.928V55.8125C169.928 56.6465 170.352 56.7969 170.816 56.8105C171.021 56.8105 171.35 56.7832 171.555 56.7695V58.041C171.35 58.0684 171.035 58.0957 170.639 58.0957C169.49 58.0957 168.465 57.4668 168.479 56.1133V51.7383H167.385V50.5762H168.479V48.7988H169.928V50.5762H171.445ZM179.758 50.5762V51.7383H178.24V55.8125C178.24 56.6465 178.664 56.7969 179.129 56.8105C179.334 56.8105 179.662 56.7832 179.867 56.7695V58.041C179.662 58.0684 179.348 58.0957 178.951 58.0957C177.803 58.0957 176.777 57.4668 176.791 56.1133V51.7383H175.697V50.5762H176.791V48.7988H178.24V50.5762H179.758ZM181.18 58V50.5762H182.643V58H181.18ZM181.918 49.4277C181.412 49.4277 180.988 49.0449 180.988 48.5664C180.988 48.0879 181.412 47.7051 181.918 47.7051C182.41 47.7051 182.834 48.0879 182.834 48.5664C182.834 49.0449 182.41 49.4277 181.918 49.4277ZM184.42 58V50.5762H185.828V51.793H185.91C186.225 50.959 186.949 50.4805 187.934 50.4805C188.918 50.4805 189.615 50.9727 189.93 51.793H190.012C190.367 50.9863 191.16 50.4805 192.24 50.4805C193.58 50.4805 194.537 51.3281 194.537 53.0234V58H193.074V53.1602C193.074 52.1621 192.445 51.7383 191.68 51.7383C190.736 51.7383 190.203 52.3809 190.203 53.2695V58H188.754V53.0781C188.754 52.2715 188.193 51.7383 187.4 51.7383C186.58 51.7383 185.883 52.4219 185.883 53.4199V58H184.42ZM199.5 58.1504C197.312 58.1504 195.973 56.6465 195.973 54.3359C195.973 52.0527 197.34 50.4805 199.404 50.4805C201.1 50.4805 202.699 51.5332 202.699 54.2129V54.7324H197.422C197.463 56.1406 198.29 56.9473 199.514 56.9473C200.348 56.9473 200.881 56.5918 201.127 56.1406H202.604C202.275 57.3438 201.127 58.1504 199.5 58.1504ZM197.436 53.6387H201.264C201.264 52.5039 200.539 51.6836 199.418 51.6836C198.249 51.6836 197.49 52.5859 197.436 53.6387ZM207.225 55.9082C207.225 54.2129 208.66 53.7754 210 53.6797C210.492 53.6455 211.606 53.584 211.955 53.5703L211.941 52.9824C211.941 52.1484 211.436 51.6562 210.438 51.6562C209.576 51.6562 209.057 52.0527 208.906 52.5996H207.457C207.594 51.3691 208.742 50.4805 210.492 50.4805C211.668 50.4805 213.404 50.918 213.404 53.0645V58H211.982V56.9883H211.928C211.641 57.5488 210.957 58.1641 209.727 58.1641C208.318 58.1641 207.225 57.3574 207.225 55.9082ZM208.646 55.9219C208.646 56.6328 209.234 57.002 210.055 57.002C211.244 57.002 211.955 56.209 211.955 55.3203V54.6367C211.613 54.6641 210.547 54.7393 210.205 54.7598C209.248 54.8281 208.646 55.1836 208.646 55.9219ZM215.168 58V50.5762H216.576V51.752H216.658C216.932 50.959 217.67 50.4668 218.545 50.4668C218.723 50.4668 219.01 50.4805 219.16 50.4941V51.8887C219.037 51.8613 218.695 51.8066 218.395 51.8066C217.383 51.8066 216.631 52.5039 216.631 53.4746V58H215.168ZM223.207 58.1504C221.02 58.1504 219.68 56.6465 219.68 54.3359C219.68 52.0527 221.047 50.4805 223.111 50.4805C224.807 50.4805 226.406 51.5332 226.406 54.2129V54.7324H221.129C221.17 56.1406 221.997 56.9473 223.221 56.9473C224.055 56.9473 224.588 56.5918 224.834 56.1406H226.311C225.982 57.3438 224.834 58.1504 223.207 58.1504ZM221.143 53.6387H224.971C224.971 52.5039 224.246 51.6836 223.125 51.6836C221.956 51.6836 221.197 52.5859 221.143 53.6387ZM232.176 60.7891C231.875 60.7891 231.588 60.7754 231.396 60.748V59.5312C231.561 59.5449 231.848 59.5586 232.053 59.5586C232.504 59.5586 232.887 59.5176 233.229 58.5879L233.406 58.0957L230.686 50.5762H232.244L234.117 56.332H234.199L236.072 50.5762H237.645L234.582 58.9844C234.158 60.1602 233.393 60.7891 232.176 60.7891ZM241.719 58.1504C239.613 58.1504 238.246 56.6191 238.246 54.3223C238.246 52.0117 239.613 50.4805 241.719 50.4805C243.811 50.4805 245.178 52.0117 245.178 54.3223C245.178 56.6191 243.811 58.1504 241.719 58.1504ZM241.719 56.9336C243.059 56.9336 243.701 55.7441 243.701 54.3223C243.701 52.9004 243.059 51.6836 241.719 51.6836C240.352 51.6836 239.709 52.9004 239.709 54.3223C239.709 55.7441 240.352 56.9336 241.719 56.9336ZM251.33 54.9102V50.5762H252.779V58H251.357V56.7148H251.275C250.934 57.5078 250.168 58.0957 249.061 58.0957C247.625 58.0957 246.613 57.1387 246.613 55.293V50.5762H248.076V55.1152C248.076 56.127 248.691 56.7695 249.58 56.7695C250.387 56.7695 251.33 56.1816 251.33 54.9102ZM261.516 50.5762V51.7383H259.916V58H258.453V51.7383H257.305V50.5762H258.453V49.7148C258.453 48.3887 259.301 47.6367 260.668 47.6367C261.023 47.6367 261.379 47.6777 261.666 47.7324V48.9492C261.393 48.9082 261.188 48.8945 261.051 48.8945C260.271 48.8945 259.916 49.209 259.916 49.9336V50.5762H261.516ZM262.842 58V50.5762H264.25V51.752H264.332C264.605 50.959 265.344 50.4668 266.219 50.4668C266.396 50.4668 266.684 50.4805 266.834 50.4941V51.8887C266.711 51.8613 266.369 51.8066 266.068 51.8066C265.057 51.8066 264.305 52.5039 264.305 53.4746V58H262.842ZM270.881 58.1504C268.693 58.1504 267.354 56.6465 267.354 54.3359C267.354 52.0527 268.721 50.4805 270.785 50.4805C272.48 50.4805 274.08 51.5332 274.08 54.2129V54.7324H268.803C268.844 56.1406 269.671 56.9473 270.895 56.9473C271.729 56.9473 272.262 56.5918 272.508 56.1406H273.984C273.656 57.3438 272.508 58.1504 270.881 58.1504ZM268.816 53.6387H272.645C272.645 52.5039 271.92 51.6836 270.799 51.6836C269.63 51.6836 268.871 52.5859 268.816 53.6387ZM278.729 58.1504C276.541 58.1504 275.201 56.6465 275.201 54.3359C275.201 52.0527 276.568 50.4805 278.633 50.4805C280.328 50.4805 281.928 51.5332 281.928 54.2129V54.7324H276.65C276.691 56.1406 277.519 56.9473 278.742 56.9473C279.576 56.9473 280.109 56.5918 280.355 56.1406H281.832C281.504 57.3438 280.355 58.1504 278.729 58.1504ZM276.664 53.6387H280.492C280.492 52.5039 279.768 51.6836 278.646 51.6836C277.478 51.6836 276.719 52.5859 276.664 53.6387ZM290.268 50.5762V51.7383H288.75V55.8125C288.75 56.6465 289.174 56.7969 289.639 56.8105C289.844 56.8105 290.172 56.7832 290.377 56.7695V58.041C290.172 58.0684 289.857 58.0957 289.461 58.0957C288.312 58.0957 287.287 57.4668 287.301 56.1133V51.7383H286.207V50.5762H287.301V48.7988H288.75V50.5762H290.268ZM294.752 58.1504C292.646 58.1504 291.279 56.6191 291.279 54.3223C291.279 52.0117 292.646 50.4805 294.752 50.4805C296.844 50.4805 298.211 52.0117 298.211 54.3223C298.211 56.6191 296.844 58.1504 294.752 58.1504ZM294.752 56.9336C296.092 56.9336 296.734 55.7441 296.734 54.3223C296.734 52.9004 296.092 51.6836 294.752 51.6836C293.385 51.6836 292.742 52.9004 292.742 54.3223C292.742 55.7441 293.385 56.9336 294.752 56.9336ZM302.422 58.1504C300.631 58.1504 299.318 56.7012 299.318 54.3086C299.318 51.8887 300.645 50.4805 302.436 50.4805C303.816 50.4805 304.322 51.3145 304.582 51.7793H304.65V48.1016H306.113V58H304.691V56.8379H304.582C304.309 57.3301 303.775 58.1504 302.422 58.1504ZM302.75 56.9062C303.994 56.9062 304.691 55.8398 304.691 54.2812C304.691 52.7363 304.008 51.7246 302.75 51.7246C301.451 51.7246 300.809 52.8184 300.809 54.2812C300.809 55.7715 301.479 56.9062 302.75 56.9062ZM307.672 55.9082C307.672 54.2129 309.107 53.7754 310.447 53.6797C310.939 53.6455 312.054 53.584 312.402 53.5703L312.389 52.9824C312.389 52.1484 311.883 51.6562 310.885 51.6562C310.023 51.6562 309.504 52.0527 309.354 52.5996H307.904C308.041 51.3691 309.189 50.4805 310.939 50.4805C312.115 50.4805 313.852 50.918 313.852 53.0645V58H312.43V56.9883H312.375C312.088 57.5488 311.404 58.1641 310.174 58.1641C308.766 58.1641 307.672 57.3574 307.672 55.9082ZM309.094 55.9219C309.094 56.6328 309.682 57.002 310.502 57.002C311.691 57.002 312.402 56.209 312.402 55.3203V54.6367C312.061 54.6641 310.994 54.7393 310.652 54.7598C309.695 54.8281 309.094 55.1836 309.094 55.9219ZM316.244 60.7891C315.943 60.7891 315.656 60.7754 315.465 60.748V59.5312C315.629 59.5449 315.916 59.5586 316.121 59.5586C316.572 59.5586 316.955 59.5176 317.297 58.5879L317.475 58.0957L314.754 50.5762H316.312L318.186 56.332H318.268L320.141 50.5762H321.713L318.65 58.9844C318.227 60.1602 317.461 60.7891 316.244 60.7891ZM324.475 55.0605C324.488 53.2695 325.021 52.7227 325.924 52.1621C326.498 51.8066 326.936 51.3145 326.936 50.5898C326.936 49.7285 326.279 49.1953 325.459 49.1953C324.721 49.1953 324.01 49.6465 323.941 50.6582H322.465C322.52 48.9219 323.832 47.9648 325.459 47.9648C327.236 47.9648 328.426 49.0312 328.426 50.5898C328.426 51.6836 327.906 52.4219 327.031 52.9551C326.211 53.4473 325.896 53.9531 325.869 55.0605V55.1426H324.475V55.0605ZM325.227 58.0957C324.693 58.0957 324.242 57.6582 324.256 57.125C324.242 56.5918 324.693 56.1543 325.227 56.1543C325.746 56.1543 326.197 56.5918 326.197 57.125C326.197 57.6582 325.746 58.0957 325.227 58.0957Z" fill="black"/>
<path d="M182.311 67.6504C184.936 67.6641 186.836 68.9492 186.836 70.9043C186.836 72.7432 185.243 73.9531 182.953 74.1445V76.5508H187.943V77.6309H176.732V76.5508H181.668V74.1445C179.392 73.9531 177.799 72.7432 177.799 70.9043C177.799 68.9492 179.699 67.6641 182.311 67.6504ZM182.311 68.7168C180.424 68.7031 179.057 69.5781 179.057 70.9043C179.057 72.2852 180.424 73.1328 182.311 73.1465C184.211 73.1328 185.578 72.2852 185.578 70.9043C185.578 69.5781 184.211 68.7031 182.311 68.7168ZM198.717 69.7012V70.7539H190.309V67.0898H191.58V69.7012H198.717ZM200.029 71.834V72.873H188.818V71.834H200.029ZM198.621 73.8574V76.8516H191.512V77.9863H199.045V79.0117H190.213V75.8945H197.336V74.8691H190.186V73.8574H198.621ZM214.562 66.9258V75.9219H213.264V71.3281H210.871C210.591 72.8047 209.326 73.8027 207.74 73.8027C205.895 73.8027 204.527 72.5312 204.527 70.7402C204.527 68.9492 205.895 67.6914 207.74 67.6914C209.367 67.6914 210.652 68.7305 210.898 70.2617H213.264V66.9258H214.562ZM214.891 77.8496V78.9023H206.605V75.0059H207.904V77.8496H214.891ZM207.74 68.8262C206.605 68.8262 205.771 69.5918 205.771 70.7402C205.771 71.8887 206.605 72.6816 207.74 72.6816C208.848 72.6816 209.682 71.8887 209.682 70.7402C209.682 69.5918 208.848 68.8262 207.74 68.8262ZM226.963 66.9121V79.1621H225.719V66.9121H226.963ZM224.475 67.1719V78.5469H223.244V72.3125H221.344V71.2461H223.244V67.1719H224.475ZM220.141 70.3301C220.141 72.4219 220.988 74.5137 222.711 75.5117L221.932 76.4688C220.763 75.7715 219.956 74.5342 219.539 73.0508C219.095 74.6504 218.261 76.0107 217.064 76.7559L216.271 75.7852C218.008 74.7324 218.896 72.5039 218.896 70.3301V69.3457H216.641V68.293H222.246V69.3457H220.141V70.3301ZM236.465 70.0293C236.451 72.2715 237.805 74.5137 239.705 75.3613L238.926 76.3867C237.518 75.7168 236.403 74.3428 235.836 72.668C235.262 74.459 234.134 75.9424 232.664 76.6602L231.871 75.5664C233.799 74.7051 235.152 72.3672 235.152 70.0293V67.9375H236.465V70.0293ZM242.111 66.9121V79.1895H240.812V66.9121H242.111ZM253.691 66.9121V70.5352H255.469V71.6152H253.691V75.8125H252.379V66.9121H253.691ZM250.369 67.8418C250.369 71.0547 248.182 73.3926 244.6 74.4727L244.053 73.4336C246.917 72.5723 248.701 70.9453 248.961 68.9219H244.572V67.8418H250.369ZM254.197 77.8496V78.9023H245.912V74.8965H247.225V77.8496H254.197ZM263.467 72.0938V73.1602H260.883V75.4297C262.018 75.375 263.159 75.2998 264.232 75.1836L264.328 76.1406C261.635 76.5508 258.723 76.5781 256.398 76.5918L256.234 75.5117C257.267 75.5117 258.408 75.5049 259.584 75.4707V73.1602H257.123V68.0469H263.412V69.0996H258.408V72.0938H263.467ZM266.297 66.9121V79.1895H264.998V66.9121H266.297ZM271.998 70.2617C271.998 72.2168 272.818 74.3086 274.459 75.3066L273.734 76.3047C272.586 75.6143 271.807 74.3906 271.396 72.9688C270.938 74.5273 270.098 75.8535 268.908 76.5781L268.102 75.6074C269.838 74.5684 270.74 72.4082 270.74 70.3164V68.0332H271.998V70.2617ZM278.807 66.9121V79.1621H277.562V66.9121H278.807ZM276.264 67.1445V78.5605H275.033V72.2988H273.133V71.2188H275.033V67.1445H276.264ZM291.576 76.5508V77.6309H280.365V76.5508H283.045V73.3516C282.04 72.7979 281.432 71.916 281.432 70.8223C281.432 68.8945 283.318 67.623 285.943 67.623C288.582 67.623 290.469 68.8945 290.469 70.8223C290.469 71.9023 289.881 72.7705 288.896 73.3242V76.5508H291.576ZM285.943 68.6621C284.016 68.6621 282.689 69.4961 282.689 70.8223C282.689 72.1348 284.016 72.9961 285.943 72.9961C287.857 72.9961 289.211 72.1348 289.211 70.8223C289.211 69.4961 287.857 68.6621 285.943 68.6621ZM284.33 76.5508H287.584V73.8164C287.085 73.9463 286.531 74.0078 285.943 74.0078C285.369 74.0078 284.822 73.9463 284.33 73.8301V76.5508ZM294.475 75.0605C294.488 73.2695 295.021 72.7227 295.924 72.1621C296.498 71.8066 296.936 71.3145 296.936 70.5898C296.936 69.7285 296.279 69.1953 295.459 69.1953C294.721 69.1953 294.01 69.6465 293.941 70.6582H292.465C292.52 68.9219 293.832 67.9648 295.459 67.9648C297.236 67.9648 298.426 69.0312 298.426 70.5898C298.426 71.6836 297.906 72.4219 297.031 72.9551C296.211 73.4473 295.896 73.9531 295.869 75.0605V75.1426H294.475V75.0605ZM295.227 78.0957C294.693 78.0957 294.242 77.6582 294.256 77.125C294.242 76.5918 294.693 76.1543 295.227 76.1543C295.746 76.1543 296.197 76.5918 296.197 77.125C296.197 77.6582 295.746 78.0957 295.227 78.0957Z" fill="black" fill-opacity="0.6"/>
<path d="M309 69C309 67.8969 309.897 67 311 67H317H318.5H319H327C328.103 67 329 67.8969 329 69V77C329 78.1031 328.103 79 327 79H319H318.5H317H311C309.897 79 309 78.1031 309 77V69ZM319 69V77H327V69H319ZM314.572 70.4969C314.472 70.2719 314.247 70.125 314 70.125C313.753 70.125 313.528 70.2719 313.428 70.4969L311.428 74.9969C311.287 75.3125 311.431 75.6812 311.747 75.8219C312.063 75.9625 312.431 75.8188 312.572 75.5031L312.85 74.875H315.15L315.428 75.5031C315.569 75.8188 315.938 75.9594 316.253 75.8219C316.569 75.6844 316.709 75.3125 316.572 74.9969L314.572 70.4969ZM314 72.2875L314.594 73.625H313.406L314 72.2875ZM323 70.125C323.344 70.125 323.625 70.4062 323.625 70.75V70.875H325H325.5C325.844 70.875 326.125 71.1562 326.125 71.5C326.125 71.8438 325.844 72.125 325.5 72.125H325.438L325.388 72.2656C325.109 73.0281 324.687 73.7219 324.15 74.3094C324.178 74.3281 324.206 74.3438 324.234 74.3594L324.825 74.7125C325.122 74.8906 325.216 75.275 325.041 75.5688C324.866 75.8625 324.478 75.9594 324.184 75.7844L323.594 75.4312C323.453 75.3469 323.319 75.2594 323.184 75.1656C322.853 75.4 322.5 75.6031 322.122 75.7719L322.009 75.8219C321.694 75.9625 321.325 75.8188 321.184 75.5031C321.044 75.1875 321.188 74.8188 321.503 74.6781L321.616 74.6281C321.816 74.5375 322.009 74.4375 322.194 74.3219L321.812 73.9406C321.569 73.6969 321.569 73.3 321.812 73.0562C322.056 72.8125 322.453 72.8125 322.697 73.0562L323.153 73.5125L323.169 73.5281C323.556 73.1187 323.872 72.6437 324.1 72.1219H323H320.75C320.406 72.1219 320.125 71.8406 320.125 71.4969C320.125 71.1531 320.406 70.8719 320.75 70.8719H322.375V70.7469C322.375 70.4031 322.656 70.1219 323 70.1219V70.125Z" fill="black" fill-opacity="0.6"/>
<defs>
<filter id="filter0_d_235_341" x="0" y="9" width="366" height="108" filterUnits="userSpaceOnUse" color-interpolation-filters="sRGB">
<feFlood flood-opacity="0" result="BackgroundImageFix"/>
<feColorMatrix in="SourceAlpha" type="matrix" values="0 0 0 0 0 0 0 0 0 0 0 0 0 0 0 0 0 0 127 0" result="hardAlpha"/>
<feMorphology radius="10" operator="erode" in="SourceAlpha" result="effect1_dropShadow_235_341"/>
<feOffset/>
<feGaussianBlur stdDeviation="14"/>
<feComposite in2="hardAlpha" operator="out"/>
<feColorMatrix type="matrix" values="0 0 0 0 0 0 0 0 0 0 0 0 0 0 0 0 0 0 0.25 0"/>
<feBlend mode="normal" in2="BackgroundImageFix" result="effect1_dropShadow_235_341"/>
<feBlend mode="normal" in="SourceGraphic" in2="effect1_dropShadow_235_341" result="shape"/>
</filter>
<clipPath id="clip0_235_341">
<rect width="15" height="15" fill="white" transform="translate(197)"/>
</clipPath>
</defs>
</svg>
