<svg width="13" height="13" viewBox="0 0 13 13" fill="none" xmlns="http://www.w3.org/2000/svg">
<g clip-path="url(#clip0_1_6007)">
<path d="M8.125 0C7.67559 0 7.3125 0.363086 7.3125 0.8125C7.3125 1.26191 7.67559 1.625 8.125 1.625H10.2248L5.11367 6.73867C4.79629 7.05605 4.79629 7.57148 5.11367 7.88887C5.43105 8.20625 5.94648 8.20625 6.26387 7.88887L11.375 2.7752V4.875C11.375 5.32441 11.7381 5.6875 12.1875 5.6875C12.6369 5.6875 13 5.32441 13 4.875V0.8125C13 0.363086 12.6369 0 12.1875 0H8.125ZM2.03125 0.8125C0.908984 0.8125 0 1.72148 0 2.84375V10.9688C0 12.091 0.908984 13 2.03125 13H10.1562C11.2785 13 12.1875 12.091 12.1875 10.9688V8.125C12.1875 7.67559 11.8244 7.3125 11.375 7.3125C10.9256 7.3125 10.5625 7.67559 10.5625 8.125V10.9688C10.5625 11.1922 10.3797 11.375 10.1562 11.375H2.03125C1.80781 11.375 1.625 11.1922 1.625 10.9688V2.84375C1.625 2.62031 1.80781 2.4375 2.03125 2.4375H4.875C5.32441 2.4375 5.6875 2.07441 5.6875 1.625C5.6875 1.17559 5.32441 0.8125 4.875 0.8125H2.03125Z" fill="#3876C0"/>
</g>
<defs>
<clipPath id="clip0_1_6007">
<rect width="13" height="13" fill="white"/>
</clipPath>
</defs>
</svg>
