<svg width="10" height="10" viewBox="0 0 10 10" fill="none" xmlns="http://www.w3.org/2000/svg">
<g clip-path="url(#clip0_1_3197)">
<path d="M6.25 0C5.9043 0 5.625 0.279297 5.625 0.625C5.625 0.970703 5.9043 1.25 6.25 1.25H7.86523L3.93359 5.18359C3.68945 5.42773 3.68945 5.82422 3.93359 6.06836C4.17773 6.3125 4.57422 6.3125 4.81836 6.06836L8.75 2.13477V3.75C8.75 4.0957 9.0293 4.375 9.375 4.375C9.7207 4.375 10 4.0957 10 3.75V0.625C10 0.279297 9.7207 0 9.375 0H6.25ZM1.5625 0.625C0.699219 0.625 0 1.32422 0 2.1875V8.4375C0 9.30078 0.699219 10 1.5625 10H7.8125C8.67578 10 9.375 9.30078 9.375 8.4375V6.25C9.375 5.9043 9.0957 5.625 8.75 5.625C8.4043 5.625 8.125 5.9043 8.125 6.25V8.4375C8.125 8.60938 7.98438 8.75 7.8125 8.75H1.5625C1.39062 8.75 1.25 8.60938 1.25 8.4375V2.1875C1.25 2.01562 1.39062 1.875 1.5625 1.875H3.75C4.0957 1.875 4.375 1.5957 4.375 1.25C4.375 0.904297 4.0957 0.625 3.75 0.625H1.5625Z" fill="#3876c0"/>
</g>
<defs>
<clipPath id="clip0_1_3197">
<rect width="10" height="10" fill="white"/>
</clipPath>
</defs>
</svg>
