<svg width="10" height="13" viewBox="0 0 10 13" fill="none" xmlns="http://www.w3.org/2000/svg">
<path d="M5.82031 0.8125C2.60417 0.8125 0 3.35918 0 6.5C0 9.64082 2.60417 12.1875 5.82031 12.1875C7.39844 12.1875 8.82812 11.573 9.8776 10.5777C10.0078 10.4533 10.0417 10.2604 9.95833 10.1029C9.875 9.94551 9.69531 9.85664 9.51562 9.88711C9.26042 9.93027 9 9.95312 8.73177 9.95312C6.20833 9.95312 4.16146 7.95234 4.16146 5.48438C4.16146 3.81367 5.09896 2.35879 6.48698 1.59199C6.64583 1.50313 6.72656 1.32539 6.6875 1.15273C6.64844 0.980078 6.4974 0.850586 6.3151 0.835352C6.15104 0.822656 5.98698 0.815039 5.82031 0.815039V0.8125Z" fill="black"/>
</svg>
