<svg width="8153" height="1260" viewBox="0 0 8153 1260" fill="none" xmlns="http://www.w3.org/2000/svg">
<path d="M1595 1000L1271 635L1588 300H1735L1385 664V601L1745 1000H1595ZM1172 1000V300H1287V1000H1172ZM2081.42 1010C2031.42 1010 1984.76 1000.67 1941.42 982C1898.09 963.333 1860.09 937.667 1827.42 905C1794.76 871.667 1769.09 833.333 1750.42 790C1732.42 746 1723.42 699 1723.42 649C1723.42 599 1732.42 552.333 1750.42 509C1769.09 465.667 1794.42 427.667 1826.42 395C1859.09 361.667 1896.76 336 1939.42 318C1982.76 299.333 2029.42 290 2079.42 290C2129.42 290 2175.76 299.333 2218.42 318C2261.76 336 2299.76 361.667 2332.42 395C2365.09 427.667 2390.42 466 2408.42 510C2427.09 553.333 2436.42 600 2436.42 650C2436.42 700 2427.09 747 2408.42 791C2390.42 834.333 2365.09 872.333 2332.42 905C2300.42 937.667 2262.76 963.333 2219.42 982C2176.76 1000.67 2130.76 1010 2081.42 1010ZM2079.42 900C2126.76 900 2168.09 889.333 2203.42 868C2239.42 846.667 2267.42 817.333 2287.42 780C2308.09 742 2318.42 698.333 2318.42 649C2318.42 612.333 2312.42 579 2300.42 549C2289.09 518.333 2272.76 492 2251.42 470C2230.09 447.333 2204.76 430 2175.42 418C2146.76 406 2114.76 400 2079.42 400C2032.76 400 1991.42 410.667 1955.42 432C1920.09 452.667 1892.09 481.667 1871.42 519C1851.42 556.333 1841.42 599.667 1841.42 649C1841.42 685.667 1847.09 719.667 1858.42 751C1870.42 781.667 1886.76 808 1907.42 830C1928.76 852 1954.09 869.333 1983.42 882C2012.76 894 2044.76 900 2079.42 900ZM2612.37 703V608H2789.37C2824.7 608 2852.03 599 2871.37 581C2891.37 562.333 2901.37 536.667 2901.37 504C2901.37 474.667 2891.7 450 2872.37 430C2853.03 410 2825.7 400 2790.37 400H2612.37V300H2795.37C2839.37 300 2878.03 309 2911.37 327C2944.7 344.333 2970.37 368.333 2988.37 399C3007.03 429 3016.37 463.333 3016.37 502C3016.37 542.667 3007.03 578 2988.37 608C2970.37 638 2944.7 661.333 2911.37 678C2878.03 694.667 2839.37 703 2795.37 703H2612.37ZM2533.37 1000V300H2648.37V1000H2533.37ZM2917.37 1000L2672.37 696L2779.37 657L3062.37 1000H2917.37ZM3127.63 1000V300H3242.63V1000H3127.63ZM3206.63 1000V895H3598.63V1000H3206.63ZM3206.63 693V592H3564.63V693H3206.63ZM3206.63 405V300H3593.63V405H3206.63ZM3645.47 1000L3933.47 300H4013.47L4299.47 1000H4175.47L3951.47 433H3993.47L3767.47 1000H3645.47ZM3787.47 865V765H4158.47V865H3787.47ZM4371.8 1000V300H4451.8L4486.8 432V1000H4371.8ZM4856.8 1000L4437.8 453L4451.8 300L4870.8 847L4856.8 1000ZM4856.8 1000L4821.8 877V300H4936.8V1000H4856.8ZM5564.8 1010C5516.8 1010 5471.46 1000.67 5428.8 982C5386.13 963.333 5348.8 937.667 5316.8 905C5284.8 871.667 5259.46 833.333 5240.8 790C5222.8 746 5213.8 699 5213.8 649C5213.8 599 5222.8 552.333 5240.8 509C5259.46 465.667 5284.8 427.667 5316.8 395C5349.46 361.667 5387.46 336 5430.8 318C5474.8 299.333 5522.13 290 5572.8 290C5628.13 290 5679.46 300.667 5726.8 322C5774.13 343.333 5813.8 373.667 5845.8 413L5767.8 491C5747.13 461.667 5719.46 439.333 5684.8 424C5650.13 408 5612.8 400 5572.8 400C5524.8 400 5482.46 410.667 5445.8 432C5409.8 452.667 5381.8 481.667 5361.8 519C5341.8 556.333 5331.8 599.667 5331.8 649C5331.8 698.333 5341.8 742 5361.8 780C5382.46 817.333 5410.13 846.667 5444.8 868C5479.46 889.333 5518.8 900 5562.8 900C5609.46 900 5649.46 891.667 5682.8 875C5716.8 857.667 5742.8 832.333 5760.8 799C5778.8 765 5787.8 723.333 5787.8 674L5859.8 726H5560.8V621H5906.8V637C5906.8 720.333 5891.8 789.667 5861.8 845C5832.46 900.333 5792.13 941.667 5740.8 969C5689.46 996.333 5630.8 1010 5564.8 1010ZM6271.26 1010C6218.59 1010 6171.26 998 6129.26 974C6087.26 950 6053.92 917.333 6029.26 876C6005.26 834 5993.26 786.667 5993.26 734V300H6108.26V733C6108.26 767 6115.26 796.667 6129.26 822C6143.92 846.667 6163.59 866 6188.26 880C6212.92 893.333 6240.59 900 6271.26 900C6302.59 900 6330.26 893.333 6354.26 880C6378.26 866 6397.26 846.667 6411.26 822C6425.26 796.667 6432.26 767.333 6432.26 734V300H6547.26V735C6547.26 787.667 6535.26 834.667 6511.26 876C6487.26 917.333 6454.59 950 6413.26 974C6371.92 998 6324.59 1010 6271.26 1010ZM6671.69 1000V300H6786.69V1000H6671.69ZM6997.29 1000V895H7181.29C7229.29 895 7271.29 884.667 7307.29 864C7343.96 843.333 7372.29 814.667 7392.29 778C7412.96 740.667 7423.29 697.667 7423.29 649C7423.29 601 7412.96 558.667 7392.29 522C7371.62 485.333 7342.96 456.667 7306.29 436C7270.29 415.333 7228.62 405 7181.29 405H6997.29V300H7184.29C7234.96 300 7281.96 309 7325.29 327C7368.62 344.333 7406.29 369 7438.29 401C7470.96 432.333 7496.29 469.333 7514.29 512C7532.29 554 7541.29 600 7541.29 650C7541.29 699.333 7532.29 745.333 7514.29 788C7496.29 830.667 7471.29 868 7439.29 900C7407.29 931.333 7369.62 956 7326.29 974C7282.96 991.333 7236.29 1000 7186.29 1000H6997.29ZM6918.29 1000V300H7033.29V1000H6918.29ZM7638.52 1000V300H7753.52V1000H7638.52ZM7717.52 1000V895H8109.52V1000H7717.52ZM7717.52 693V592H8075.52V693H7717.52ZM7717.52 405V300H8104.52V405H7717.52Z" fill="#3876C0"/>
<path d="M272.922 393.181V353.886C272.922 288.78 325.785 236 391 236C456.214 236 509.077 288.78 509.077 353.886V393.181" stroke="#3876C0" stroke-width="71" stroke-linecap="round"/>
<path d="M430.104 787.284V669.207V551.129" stroke="#3876C0" stroke-width="71" stroke-linecap="round"/>
<path d="M351.513 866.26C394.917 866.26 430.103 831.073 430.103 787.669C430.103 744.264 394.917 709.078 351.513 709.078C308.108 709.078 272.922 744.264 272.922 787.669C272.922 831.073 308.108 866.26 351.513 866.26Z" stroke="#3876C0" stroke-width="71"/>
<path d="M509.078 630.103C465.46 630.103 430.104 594.746 430.104 551.129" stroke="#3876C0" stroke-width="71" stroke-linecap="round"/>
<path d="M715.072 650.549C692.006 527.453 680.476 465.905 636.698 429.543C592.92 393.182 530.353 393.182 405.211 393.182H376.79C251.649 393.182 189.079 393.182 145.301 429.543C101.523 465.905 89.9921 527.453 66.93 650.549C34.5004 823.644 18.2858 910.193 65.5602 967.198C112.834 1024.21 200.819 1024.21 376.79 1024.21H405.211C581.181 1024.21 669.166 1024.21 716.439 967.198C743.867 934.125 749.924 891.108 743.843 827.012" stroke="#3876C0" stroke-width="71" stroke-linecap="round"/>
</svg>
