<svg width="109" height="109" viewBox="0 0 109 109" fill="none" xmlns="http://www.w3.org/2000/svg">
<circle cx="54.5" cy="54.5" r="54.5" fill="#730EF4"/>
<circle cx="54.524" cy="42.1192" r="11.9102" fill="#E3E3E3"/>
<path d="M29.3932 76.5251C29.4089 74.1027 30.0739 71.7082 31.3502 69.4784C32.6266 67.2485 34.4892 65.227 36.8318 63.5292C39.1744 61.8314 41.951 60.4906 45.0033 59.5833C48.0555 58.6761 51.3235 58.2201 54.6207 58.2415C57.918 58.2629 61.1798 58.7612 64.22 59.708C67.2602 60.6548 70.0193 62.0315 72.3396 63.7595C74.66 65.4876 76.4962 67.5331 77.7435 69.7793C78.9908 72.0255 79.6246 74.4284 79.6089 76.8509L54.5011 76.688L29.3932 76.5251Z" fill="#E3E3E3"/>
</svg>
