<svg width="21" height="21" viewBox="0 0 21 21" fill="none" xmlns="http://www.w3.org/2000/svg">
<path fill-rule="evenodd" clip-rule="evenodd" d="M18.3676 10.9121C18.1513 10.9009 17.9861 10.7165 17.9861 10.5C17.9861 10.2835 18.1513 10.0991 18.3676 10.0879L19.1961 10.0452C19.4607 10.0315 19.6875 10.2351 19.6875 10.5C19.6875 10.7649 19.4607 10.9685 19.1961 10.9548L18.3676 10.9121ZM16.984 6.75588C17.0924 6.94326 17.3279 7.02083 17.5207 6.92239L18.2583 6.54579C18.495 6.42495 18.5897 6.13372 18.4566 5.90371C18.3235 5.6737 18.0246 5.61188 17.8019 5.75682L17.1077 6.20854C16.9262 6.32662 16.8756 6.5685 16.984 6.75588ZM14.2441 4.01601C14.4315 4.12445 14.6734 4.07375 14.7915 3.89229L15.2432 3.19811C15.3881 2.97537 15.3263 2.67653 15.0963 2.54342C14.8663 2.41032 14.575 2.50497 14.4542 2.74165L14.0776 3.47929C13.9792 3.67211 14.0567 3.90758 14.2441 4.01601ZM10.5 3.01389C10.7165 3.01389 10.9009 2.84867 10.9121 2.63243L10.9548 1.80393C10.9685 1.53934 10.7649 1.3125 10.5 1.3125C10.2351 1.3125 10.0315 1.53934 10.0452 1.80393L10.0879 2.63243C10.0991 2.84867 10.2835 3.01389 10.5 3.01389ZM6.75588 4.01601C6.94326 3.90758 7.02083 3.67211 6.92239 3.47929L6.54579 2.74165C6.42495 2.50497 6.13372 2.41032 5.90371 2.54342C5.6737 2.67653 5.61188 2.97537 5.75682 3.19811L6.20854 3.89229C6.32662 4.07375 6.5685 4.12445 6.75588 4.01601ZM4.01601 6.75588C4.12445 6.5685 4.07375 6.32662 3.89229 6.20855L3.19811 5.75682C2.97537 5.61188 2.67653 5.6737 2.54342 5.90371C2.41032 6.13372 2.50497 6.42495 2.74165 6.54579L3.47929 6.92239C3.67211 7.02083 3.90758 6.94326 4.01601 6.75588ZM2.63243 10.0879C2.84867 10.0991 3.01389 10.2835 3.01389 10.5C3.01389 10.7165 2.84867 10.9009 2.63243 10.9121L1.80393 10.9548C1.53934 10.9685 1.3125 10.7649 1.3125 10.5C1.3125 10.2351 1.53934 10.0315 1.80393 10.0452L2.63243 10.0879ZM4.01601 14.2441C3.90758 14.0567 3.67211 13.9792 3.47929 14.0776L2.74165 14.4542C2.50497 14.575 2.41032 14.8663 2.54342 15.0963C2.67653 15.3263 2.97537 15.3881 3.19811 15.2432L3.89229 14.7915C4.07375 14.6734 4.12445 14.4315 4.01601 14.2441ZM6.75588 16.984C6.5685 16.8756 6.32662 16.9262 6.20855 17.1077L5.75682 17.8019C5.61188 18.0246 5.6737 18.3235 5.90371 18.4566C6.13372 18.5897 6.42495 18.495 6.54579 18.2583L6.92239 17.5207C7.02083 17.3279 6.94326 17.0924 6.75588 16.984ZM10.5 17.9861C10.2835 17.9861 10.0991 18.1513 10.0879 18.3676L10.0452 19.1961C10.0315 19.4607 10.2351 19.6875 10.5 19.6875C10.7649 19.6875 10.9685 19.4607 10.9548 19.1961L10.9121 18.3676C10.9009 18.1513 10.7165 17.9861 10.5 17.9861ZM14.2441 16.984C14.0567 17.0924 13.9792 17.3279 14.0776 17.5207L14.4542 18.2583C14.575 18.495 14.8663 18.5897 15.0963 18.4566C15.3263 18.3235 15.3881 18.0246 15.2432 17.8019L14.7915 17.1077C14.6734 16.9262 14.4315 16.8756 14.2441 16.984ZM16.984 14.2441C16.8756 14.4315 16.9262 14.6734 17.1077 14.7915L17.8019 15.2432C18.0246 15.3881 18.3235 15.3263 18.4566 15.0963C18.5897 14.8663 18.495 14.575 18.2583 14.4542L17.5207 14.0776C17.3279 13.9792 17.0924 14.0567 16.984 14.2441Z" fill="#FFD400"/>
<path d="M16.7954 10.5002C16.7954 13.9769 13.9769 16.7954 10.5002 16.7954C7.02351 16.7954 4.20508 13.9769 4.20508 10.5002C4.20508 7.02351 7.02351 4.20508 10.5002 4.20508C13.9769 4.20508 16.7954 7.02351 16.7954 10.5002Z" fill="#FFD400"/>
</svg>
