<svg width="1119" height="1234" viewBox="0 0 1119 1234" fill="none" xmlns="http://www.w3.org/2000/svg">
<path d="M385.278 267.722V209.791C385.278 113.809 463.21 36 559.351 36C655.492 36 733.425 113.809 733.425 209.791V267.722" stroke="white" stroke-width="71" stroke-linecap="round"/>
<path d="M617 848.72V674.647V500.573" stroke="white" stroke-width="71" stroke-linecap="round"/>
<path d="M501.138 965.148C565.127 965.148 616.999 913.275 616.999 849.287C616.999 785.299 565.127 733.426 501.138 733.426C437.15 733.426 385.278 785.299 385.278 849.287C385.278 913.275 437.15 965.148 501.138 965.148Z" stroke="white" stroke-width="71"/>
<path d="M733.426 616.999C669.124 616.999 617 564.875 617 500.573" stroke="white" stroke-width="71" stroke-linecap="round"/>
<path d="M1037.11 647.142C1003.1 465.669 986.106 374.933 921.567 321.327C857.029 267.722 764.79 267.722 580.302 267.722H538.403C353.916 267.722 261.673 267.722 197.135 321.327C132.596 374.933 115.597 465.669 81.598 647.142C33.7893 902.323 9.88523 1029.92 79.5786 1113.96C149.271 1198 278.982 1198 538.403 1198H580.302C839.722 1198 969.433 1198 1039.12 1113.96C1079.56 1065.2 1088.49 1001.78 1079.52 907.288" stroke="white" stroke-width="71" stroke-linecap="round"/>
</svg>
