<svg width="782" height="860" viewBox="0 0 782 860" fill="none" xmlns="http://www.w3.org/2000/svg">
<path d="M272.922 193.181V153.886C272.922 88.7796 325.785 36 391 36C456.214 36 509.077 88.7796 509.077 153.886V193.181" stroke="#3876C0" stroke-width="71" stroke-linecap="round"/>
<path d="M430.104 587.284V469.207V351.129" stroke="#3876C0" stroke-width="71" stroke-linecap="round"/>
<path d="M351.513 666.26C394.917 666.26 430.103 631.073 430.103 587.669C430.103 544.264 394.917 509.078 351.513 509.078C308.108 509.078 272.922 544.264 272.922 587.669C272.922 631.073 308.108 666.26 351.513 666.26Z" stroke="#3876C0" stroke-width="71"/>
<path d="M509.078 430.103C465.46 430.103 430.104 394.746 430.104 351.129" stroke="#3876C0" stroke-width="71" stroke-linecap="round"/>
<path d="M715.072 450.549C692.006 327.453 680.476 265.905 636.698 229.543C592.92 193.182 530.353 193.182 405.211 193.182H376.79C251.649 193.182 189.079 193.182 145.301 229.543C101.523 265.905 89.9921 327.453 66.93 450.549C34.5004 623.644 18.2858 710.193 65.5602 767.198C112.834 824.208 200.819 824.208 376.79 824.208H405.211C581.181 824.208 669.166 824.208 716.439 767.198C743.867 734.125 749.924 691.108 743.843 627.012" stroke="#3876C0" stroke-width="71" stroke-linecap="round"/>
</svg>
