<svg width="16" height="16" viewBox="0 0 16 16" fill="none" xmlns="http://www.w3.org/2000/svg">
<g clip-path="url(#clip0_272_580)">
<path d="M10.5 11C13.5375 11 16 8.5375 16 5.5C16 2.4625 13.5375 0 10.5 0C7.4625 0 5 2.4625 5 5.5C5 6.08437 5.09063 6.65 5.25938 7.17812L0.21875 12.2188C0.078125 12.3594 0 12.55 0 12.75V15.25C0 15.6656 0.334375 16 0.75 16H3.25C3.66563 16 4 15.6656 4 15.25V14H5.25C5.66563 14 6 13.6656 6 13.25V12H7.25C7.45 12 7.64062 11.9219 7.78125 11.7812L8.82187 10.7406C9.35 10.9094 9.91562 11 10.5 11ZM11.75 3C12.0815 3 12.3995 3.1317 12.6339 3.36612C12.8683 3.60054 13 3.91848 13 4.25C13 4.58152 12.8683 4.89946 12.6339 5.13388C12.3995 5.3683 12.0815 5.5 11.75 5.5C11.4185 5.5 11.1005 5.3683 10.8661 5.13388C10.6317 4.89946 10.5 4.58152 10.5 4.25C10.5 3.91848 10.6317 3.60054 10.8661 3.36612C11.1005 3.1317 11.4185 3 11.75 3Z" fill="white" fill-opacity="0.7"/>
</g>
<defs>
<clipPath id="clip0_272_580">
<rect width="16" height="16" fill="white"/>
</clipPath>
</defs>
</svg>
