<svg width="23" height="20" viewBox="0 0 23 20" fill="none" xmlns="http://www.w3.org/2000/svg">
<path d="M23 9.28571C23 14.4152 17.8523 18.5714 11.5007 18.5714C9.83416 18.5714 8.253 18.2857 6.82457 17.7723C6.29003 18.1607 5.4186 18.692 4.38545 19.1384C3.30739 19.6027 2.00922 20 0.720041 20C0.428065 20 0.167533 19.8259 0.0552352 19.558C-0.057063 19.2902 0.00582401 18.9866 0.207961 18.7812L0.221437 18.7679C0.234912 18.7545 0.25288 18.7366 0.279832 18.7054C0.329243 18.6518 0.405606 18.567 0.499936 18.4509C0.684105 18.2277 0.931161 17.8973 1.18271 17.4866C1.6319 16.7455 2.05863 15.7723 2.14398 14.6786C0.796403 13.1607 0.00133209 11.2991 0.00133209 9.28571C0.00133209 4.15625 5.14908 0 11.5007 0C17.8523 0 23 4.15625 23 9.28571Z" fill="#FD9D9D"/>
</svg>
