<svg width="18" height="14" viewBox="0 0 18 14" fill="none" xmlns="http://www.w3.org/2000/svg">
<g clip-path="url(#clip0_465_1459)">
<path d="M16.3075 7.32026C17.8966 5.77534 17.8966 3.27338 16.3075 1.72846C14.9012 0.361274 12.685 0.18354 11.0678 1.30737L11.0228 1.33745C10.6178 1.61909 10.525 2.16596 10.8147 2.55698C11.1044 2.94799 11.6669 3.04096 12.0691 2.75932L12.1141 2.72924C13.0169 2.10307 14.2516 2.20151 15.0334 2.9644C15.9194 3.82573 15.9194 5.22026 15.0334 6.08159L11.8778 9.15502C10.9919 10.0164 9.5575 10.0164 8.67156 9.15502C7.88687 8.39213 7.78562 7.19174 8.42969 6.31674L8.46062 6.27299C8.75031 5.87924 8.65469 5.33237 8.2525 5.05346C7.85031 4.77456 7.285 4.86479 6.99813 5.25581L6.96719 5.29956C5.80844 6.86909 5.99125 9.02377 7.3975 10.391C8.98656 11.9359 11.56 11.9359 13.1491 10.391L16.3075 7.32026ZM1.69375 6.68042C0.104688 8.22534 0.104688 10.7273 1.69375 12.2722C3.1 13.6394 5.31625 13.8171 6.93344 12.6933L6.97844 12.6632C7.38344 12.3816 7.47625 11.8347 7.18656 11.4437C6.89687 11.0527 6.33437 10.9597 5.93219 11.2414L5.88719 11.2714C4.98438 11.8976 3.74969 11.7992 2.96781 11.0363C2.08188 10.1722 2.08188 8.77768 2.96781 7.91635L6.12344 4.84565C7.00937 3.98432 8.44375 3.98432 9.32969 4.84565C10.1144 5.60854 10.2156 6.80893 9.57156 7.68667L9.54062 7.73042C9.25094 8.12417 9.34656 8.67104 9.74875 8.94995C10.1509 9.22885 10.7162 9.13862 11.0031 8.7476L11.0341 8.70385C12.1928 7.13159 12.01 4.9769 10.6037 3.60971C9.01469 2.06479 6.44125 2.06479 4.85219 3.60971L1.69375 6.68042Z" fill="#616161"/>
</g>
<defs>
<clipPath id="clip0_465_1459">
<rect width="18" height="14" fill="white"/>
</clipPath>
</defs>
</svg>
