<svg width="17" height="18" viewBox="0 0 17 18" fill="none" xmlns="http://www.w3.org/2000/svg">
<path d="M9.64286 1.3125C9.64286 0.586523 9.0683 0 8.35714 0C7.64598 0 7.07143 0.586523 7.07143 1.3125V7.21875H1.28571C0.574554 7.21875 0 7.80527 0 8.53125C0 9.25723 0.574554 9.84375 1.28571 9.84375H7.07143V15.75C7.07143 16.476 7.64598 17.0625 8.35714 17.0625C9.0683 17.0625 9.64286 16.476 9.64286 15.75V9.84375H15.4286C16.1397 9.84375 16.7143 9.25723 16.7143 8.53125C16.7143 7.80527 16.1397 7.21875 15.4286 7.21875H9.64286V1.3125Z" fill="black" fill-opacity="0.6"/>
</svg>
