<svg width="28" height="28" viewBox="0 0 28 28" fill="none" xmlns="http://www.w3.org/2000/svg">
<circle cx="14" cy="14" r="14" fill="#730EF4"/>
<path d="M15.5709 7.8125C15.5709 7.19023 15.0921 6.6875 14.4994 6.6875C13.9068 6.6875 13.428 7.19023 13.428 7.8125V12.875H8.60658C8.01395 12.875 7.53516 13.3777 7.53516 14C7.53516 14.6223 8.01395 15.125 8.60658 15.125H13.428V20.1875C13.428 20.8098 13.9068 21.3125 14.4994 21.3125C15.0921 21.3125 15.5709 20.8098 15.5709 20.1875V15.125H20.3923C20.9849 15.125 21.4637 14.6223 21.4637 14C21.4637 13.3777 20.9849 12.875 20.3923 12.875H15.5709V7.8125Z" fill="white"/>
</svg>
