<svg width="58" height="58" viewBox="0 0 58 58" fill="none" xmlns="http://www.w3.org/2000/svg">
<g clip-path="url(#clip0_647_2741)">
<path d="M56.4256 0.633832C57.5697 1.4268 58.1701 2.7975 57.9549 4.16821L50.7049 51.2932C50.535 52.392 49.8666 53.3549 48.8924 53.8987C47.9182 54.4424 46.7514 54.5104 45.7205 54.0799L32.1721 48.4499L24.4123 56.844C23.4041 57.9428 21.8182 58.3053 20.4248 57.7616C19.0315 57.2178 18.1252 55.8698 18.1252 54.3745V44.9041C18.1252 44.451 18.2951 44.0206 18.601 43.692L37.5869 22.9729C38.2439 22.2592 38.2213 21.1604 37.5416 20.4807C36.8619 19.801 35.7631 19.7557 35.0494 20.4014L12.008 40.8713L2.00528 35.8643C0.8045 35.2639 0.0341877 34.0631 0.000203323 32.7264C-0.0337811 31.3897 0.668563 30.1436 1.82403 29.4752L52.574 0.475238C53.7861 -0.215778 55.2814 -0.147809 56.4256 0.633832Z" fill="black"/>
</g>
<defs>
<clipPath id="clip0_647_2741">
<rect width="58" height="58" fill="white"/>
</clipPath>
</defs>
</svg>
