<svg width="75" height="80" viewBox="0 0 75 80" fill="none" xmlns="http://www.w3.org/2000/svg">
<path d="M45.0079 5C45.0079 2.23437 42.7736 0 40.0079 0C37.2423 0 35.0079 2.23437 35.0079 5V37.5C35.0079 38.875 33.8829 40 32.5079 40C31.1329 40 30.0079 38.875 30.0079 37.5V10C30.0079 7.23437 27.7735 5 25.0079 5C22.2423 5 20.0079 7.23437 20.0079 10V52.5C20.0079 52.7344 20.0079 52.9844 20.0235 53.2188L10.5704 44.2188C8.07042 41.8438 4.1173 41.9375 1.72667 44.4375C-0.663952 46.9375 -0.554577 50.8906 1.94542 53.2812L19.5079 70C26.2423 76.4219 35.1954 80 44.5079 80H47.5079C62.6954 80 75.0079 67.6875 75.0079 52.5V20C75.0079 17.2344 72.7736 15 70.0079 15C67.2423 15 65.0079 17.2344 65.0079 20V37.5C65.0079 38.875 63.8829 40 62.5079 40C61.1329 40 60.0079 38.875 60.0079 37.5V10C60.0079 7.23437 57.7736 5 55.0079 5C52.2423 5 50.0079 7.23437 50.0079 10V37.5C50.0079 38.875 48.8829 40 47.5079 40C46.1329 40 45.0079 38.875 45.0079 37.5V5Z" fill="#730EF4"/>
</svg>
