<svg width="108" height="101" viewBox="0 0 108 101" fill="none" xmlns="http://www.w3.org/2000/svg">
<rect width="79.67" height="11.32" rx="5" transform="matrix(0.999865 -0.0164554 0.0138312 0.999904 17.8066 39.7437)" fill="#730EF4"/>
<ellipse cx="13.6806" cy="5.66001" rx="13.6806" ry="5.66001" transform="matrix(0.999865 -0.0164554 0.0138312 0.999904 80.4863 38.7119)" fill="#730EF4"/>
<path d="M52.4542 78.5394C50.3919 81.3022 46.218 78.5732 47.4798 75.2871L60.4862 41.4146C61.1456 39.6975 63.0927 39.0545 64.6165 40.0508L72.8671 45.4452C74.3909 46.4414 74.7888 48.6177 73.7112 50.0614L52.4542 78.5394Z" fill="#730EF4"/>
<path d="M42.8911 25.2997C40.5912 22.567 43.7201 18.5595 46.5555 20.6064L71.6799 38.7441C73.1265 39.7884 73.4238 41.9648 72.314 43.3863L67.5693 49.4633C66.4595 50.8848 64.4443 50.9088 63.2709 49.5145L42.8911 25.2997Z" fill="#730EF4"/>
<path d="M11.5366 36.3585C10.0642 33.5224 13.0718 30.4153 15.5881 32.1729L27.0544 40.1816C28.6189 41.2743 28.8215 43.6826 27.4667 45.0822L22.7096 49.9968C21.3549 51.3964 19.1612 51.045 18.2458 49.2817L11.5366 36.3585Z" fill="#730EF4"/>
</svg>
