<svg width="80" height="80" viewBox="0 0 80 80" fill="none" xmlns="http://www.w3.org/2000/svg">
<g clip-path="url(#clip0_1060_567)">
<path d="M42.2969 1.51562C41.9063 0.59375 41 0 40 0C39 0 38.0938 0.59375 37.7031 1.51562L30.8125 17.5937C30.2812 18.8437 30 20.1719 30 21.5313V33.5625L7.5 46.6875V43.75C7.5 41.6719 5.82813 40 3.75 40C1.67187 40 0 41.6719 0 43.75V52.5V57.5V61.25C0 63.3281 1.67187 65 3.75 65C5.82813 65 7.5 63.3281 7.5 61.25V60H30V65.1094L20.8594 73.125C20.3125 73.5938 20 74.2813 20 75V77.5C20 78.875 21.125 80 22.5 80H37.5V70C37.5 68.625 38.625 67.5 40 67.5C41.375 67.5 42.5 68.625 42.5 70V80H57.5C58.875 80 60 78.875 60 77.5V75C60 74.2813 59.6875 73.5938 59.1406 73.125L50 65.1094V60H72.5V61.25C72.5 63.3281 74.1719 65 76.25 65C78.3281 65 80 63.3281 80 61.25V57.5V52.5V43.75C80 41.6719 78.3281 40 76.25 40C74.1719 40 72.5 41.6719 72.5 43.75V46.6875L50 33.5625V21.5313C50 20.1719 49.7187 18.8437 49.1875 17.5937L42.2969 1.51562Z" fill="#3876c0"/>
</g>
<defs>
<clipPath id="clip0_1060_567">
<rect width="80" height="80" fill="white"/>
</clipPath>
</defs>
</svg>
