<svg width="21" height="21" viewBox="0 0 21 21" fill="none" xmlns="http://www.w3.org/2000/svg">
<path d="M7.68976 10.9309C7.68976 10.79 7.80397 10.6758 7.94485 10.6758C8.08573 10.6758 8.19994 10.79 8.19994 10.9309V11.8521L8.64517 11.4563C8.74973 11.3634 8.91091 11.3718 9.00518 11.4752C9.09944 11.5786 9.09111 11.7377 8.98655 11.8306L8.19994 12.5298V13.6722L9.25541 13.0706L9.46111 12.1152C9.49042 11.9791 9.6259 11.8921 9.7637 11.9211C9.9015 11.95 9.98946 12.0838 9.96014 12.2199L9.84995 12.7317L10.5966 12.3061C10.7179 12.237 10.8732 12.2787 10.9437 12.3991C11.0141 12.5196 10.9729 12.6732 10.8517 12.7423L10.0444 13.2025L10.6053 13.3824C10.7394 13.4254 10.8128 13.5675 10.7693 13.6997C10.7257 13.832 10.5817 13.9044 10.4477 13.8614L9.44989 13.5413L8.47408 14.0975L9.52688 14.6976L10.4594 14.3985C10.5934 14.3555 10.7374 14.4278 10.781 14.5601C10.8245 14.6924 10.7511 14.8345 10.617 14.8775L10.1214 15.0365L10.863 15.4591C10.9842 15.5282 11.0253 15.6819 10.9549 15.8023C10.8845 15.9228 10.7291 15.9644 10.6079 15.8953L9.79547 15.4323L9.91992 16.0103C9.94923 16.1464 9.86128 16.2802 9.72347 16.3091C9.58567 16.3381 9.4502 16.2511 9.42089 16.115L9.20093 15.0934L8.19994 14.5228V15.7465L8.93553 16.4004C9.04008 16.4933 9.04842 16.6525 8.95415 16.7558C8.85989 16.8592 8.69871 16.8676 8.59415 16.7747L8.19994 16.4243V17.2705C8.19994 17.4114 8.08573 17.5256 7.94485 17.5256C7.80397 17.5256 7.68976 17.4114 7.68976 17.2705V16.3552L7.25112 16.7451C7.14656 16.838 6.98538 16.8296 6.89112 16.7262C6.79685 16.6229 6.80519 16.4637 6.90974 16.3708L7.68976 15.6774V14.5446L6.61788 15.1555L6.41404 16.1023C6.38473 16.2384 6.24925 16.3253 6.11145 16.2964C5.97365 16.2675 5.8857 16.1337 5.91501 15.9976L6.02334 15.4944L5.28184 15.917C5.16062 15.9861 5.00524 15.9445 4.9348 15.824C4.86436 15.7036 4.90553 15.5499 5.02675 15.4808L5.83917 15.0178L5.26984 14.8351C5.13576 14.7921 5.06236 14.65 5.1059 14.5178C5.14944 14.3855 5.29342 14.3131 5.4275 14.3561L6.43371 14.6789L7.45372 14.0975L6.37917 13.4851L5.43828 13.7869C5.3042 13.8299 5.16022 13.7575 5.11668 13.6252C5.07315 13.493 5.14655 13.3509 5.28062 13.3078L5.78463 13.1462L5.03799 12.7206C4.91676 12.6515 4.87559 12.4979 4.94603 12.3774C5.01647 12.257 5.17185 12.2153 5.29308 12.2844L6.10034 12.7445L5.97773 12.1751C5.94841 12.0389 6.03637 11.9051 6.17417 11.8762C6.31197 11.8473 6.44745 11.9342 6.47676 12.0703L6.69488 13.0834L7.68976 13.6505V12.449L6.96076 11.801C6.85621 11.7081 6.84787 11.5489 6.94214 11.4456C7.03641 11.3422 7.19759 11.3338 7.30214 11.4267L7.68976 11.7713V10.9309Z" fill="#64D2FF"/>
<path d="M11.336 15.2432C11.2916 15.198 11.2403 15.1581 11.1824 15.1252L11.1585 15.1116C11.3134 14.9345 11.3757 14.6829 11.2952 14.4392C11.2533 14.3121 11.1787 14.2062 11.0842 14.1265C11.1729 14.0482 11.2429 13.9459 11.2831 13.8243C11.3697 13.5621 11.291 13.2908 11.1095 13.1128L11.1707 13.078C11.507 12.8871 11.6216 12.4593 11.4258 12.1258C11.2325 11.7965 10.8091 11.6831 10.477 11.8716L10.4392 11.8931C10.3638 11.6625 10.1689 11.4796 9.91771 11.4271C9.7868 11.3997 9.65546 11.4109 9.5367 11.4535C9.51557 11.3256 9.45824 11.2021 9.36388 11.0991C9.17652 10.8944 8.89415 10.8263 8.64406 10.9014V10.8321C8.64406 10.446 8.33106 10.133 7.94495 10.133C7.55885 10.133 7.24585 10.446 7.24585 10.8321V10.8558C7.0115 10.8073 6.75827 10.88 6.58567 11.0685C6.49412 11.1685 6.43743 11.2878 6.41484 11.4115C6.29302 11.3654 6.15734 11.3525 6.0221 11.3808C5.75484 11.4367 5.55125 11.6402 5.48759 11.8916L5.41287 11.8492C5.08081 11.6607 4.65739 11.7741 4.46407 12.1034C4.26827 12.4369 4.38287 12.8647 4.71919 13.0556L4.7442 13.0698C4.58597 13.2473 4.52161 13.5014 4.60291 13.7475C4.6461 13.8782 4.72385 13.9867 4.8223 14.067C4.71856 14.1482 4.63655 14.2598 4.59174 14.3955C4.50432 14.6601 4.58534 14.9341 4.77041 15.1119L4.70754 15.1476C4.69455 15.155 4.6819 15.1627 4.66958 15.1708C2.75797 14.8082 1.3125 13.1287 1.3125 11.1116C1.3125 8.82974 3.16231 6.97994 5.44416 6.97994C5.93893 6.97994 6.41339 7.06691 6.85309 7.22639C7.72061 5.10445 9.80553 3.60938 12.2396 3.60938C15.4522 3.60938 18.0566 6.21371 18.0566 9.42631C18.0566 9.56784 18.0515 9.70818 18.0416 9.84717C19.0131 10.2945 19.6875 11.2767 19.6875 12.4163C19.6875 13.9776 18.4218 15.2432 16.8606 15.2432H11.336Z" fill="#616161"/>
<path d="M17.4456 11.9602L17.3538 11.7488L17.2621 11.9602L16.7045 13.2454C16.6427 13.3662 16.6077 13.5056 16.6077 13.6534C16.6077 14.099 16.9309 14.481 17.3538 14.481C17.7768 14.481 18.1 14.099 18.1 13.6534C18.1 13.5056 18.065 13.3662 18.0032 13.2453L17.4456 11.9602ZM15.5071 14.5792L15.4154 14.3678L15.3237 14.5792L14.7661 15.8643C14.7042 15.9852 14.6692 16.1246 14.6692 16.2725C14.6692 16.718 14.9925 17.1 15.4154 17.1C15.8383 17.1 16.1615 16.718 16.1615 16.2725C16.1615 16.1247 16.1266 15.9853 16.0648 15.8644L15.5071 14.5792ZM13.5687 11.9602L13.4769 11.7488L13.3852 11.9602L12.8276 13.2453C12.7657 13.3662 12.7308 13.5056 12.7308 13.6534C12.7308 14.099 13.054 14.481 13.4769 14.481C13.8998 14.481 14.2231 14.099 14.2231 13.6534C14.2231 13.5056 14.1881 13.3662 14.1263 13.2454L13.5687 11.9602ZM11.7379 14.5792L11.6462 14.3678L11.5544 14.5792L10.9968 15.8644C10.935 15.9853 10.9 16.1247 10.9 16.2725C10.9 16.718 11.2232 17.1 11.6462 17.1C12.0691 17.1 12.3923 16.718 12.3923 16.2725C12.3923 16.1247 12.3573 15.9852 12.2955 15.8644L11.7379 14.5792Z" fill="#64D2FF" stroke="white" stroke-width="0.2"/>
</svg>
