<svg width="21" height="21" viewBox="0 0 21 21" fill="none" xmlns="http://www.w3.org/2000/svg">
<path d="M5.44416 13.4386C3.16231 13.4386 1.3125 11.5888 1.3125 9.30691C1.3125 7.02506 3.16231 5.17525 5.44416 5.17525C5.93893 5.17525 6.41339 5.26222 6.85309 5.42171C7.72061 3.29976 9.80553 1.80469 12.2396 1.80469C15.4522 1.80469 18.0566 4.40902 18.0566 7.62162C18.0566 7.76315 18.0515 7.90349 18.0416 8.04248C19.0131 8.48981 19.6875 9.47197 19.6875 10.6116C19.6875 12.1729 18.4218 13.4386 16.8606 13.4386H5.44416Z" fill="#616161"/>
<path d="M15.2499 15.7019L14.6856 14.5254L14.1213 15.7019C14.0653 15.7999 14.0332 15.9139 14.0332 16.0355C14.0332 16.4025 14.3253 16.6999 14.6856 16.6999C15.0459 16.6999 15.338 16.4025 15.338 16.0355C15.338 15.9139 15.3059 15.7999 15.2499 15.7019Z" fill="#64D2FF"/>
<path d="M13.2928 18.0939L12.7285 16.9174L12.1642 18.0938C12.1082 18.1919 12.0761 18.3059 12.0761 18.4275C12.0761 18.7945 12.3682 19.092 12.7285 19.092C13.0888 19.092 13.3809 18.7945 13.3809 18.4275C13.3809 18.3059 13.3488 18.192 13.2928 18.0939Z" fill="#64D2FF"/>
<path d="M11.3357 15.7019L10.7714 14.5254L10.2071 15.7019C10.1511 15.7999 10.119 15.9139 10.119 16.0355C10.119 16.4025 10.4111 16.6999 10.7714 16.6999C11.1317 16.6999 11.4238 16.4025 11.4238 16.0355C11.4238 15.9139 11.3917 15.7999 11.3357 15.7019Z" fill="#64D2FF"/>
<path d="M9.48729 18.0939L8.92301 16.9174L8.3587 18.0939C8.30271 18.192 8.27065 18.3059 8.27065 18.4275C8.27065 18.7945 8.56272 19.092 8.92301 19.092C9.28331 19.092 9.57538 18.7945 9.57538 18.4275C9.57538 18.3059 9.5433 18.1919 9.48729 18.0939Z" fill="#64D2FF"/>
<path d="M7.53023 15.7019L6.96592 14.5254L6.40164 15.7018C6.34563 15.7999 6.31355 15.9139 6.31355 16.0355C6.31355 16.4025 6.60562 16.6999 6.96591 16.6999C7.32621 16.6999 7.61828 16.4025 7.61828 16.0355C7.61828 15.9139 7.58622 15.8 7.53023 15.7019Z" fill="#64D2FF"/>
<path d="M5.5731 18.0939L5.00881 16.9174L4.44452 18.0939C4.38852 18.1919 4.35645 18.3059 4.35645 18.4275C4.35645 18.7945 4.64852 19.092 5.00881 19.092C5.3691 19.092 5.66118 18.7945 5.66118 18.4275C5.66118 18.3059 5.62911 18.1919 5.5731 18.0939Z" fill="#64D2FF"/>
</svg>
