<svg width="22" height="18" viewBox="0 0 22 18" fill="none" xmlns="http://www.w3.org/2000/svg">
<path d="M2.74926 1.65C2.74926 1.21239 2.9231 0.792709 3.23253 0.483274C3.54197 0.173839 3.96165 0 4.39926 0C4.83687 0 5.25655 0.173839 5.56598 0.483274C5.87542 0.792709 6.04926 1.21239 6.04926 1.65C6.04926 2.08761 5.87542 2.50729 5.56598 2.81673C5.25655 3.12616 4.83687 3.3 4.39926 3.3C3.96165 3.3 3.54197 3.12616 3.23253 2.81673C2.9231 2.50729 2.74926 2.08761 2.74926 1.65ZM4.12426 12.1V16.5C4.12426 17.1084 3.6327 17.6 3.02426 17.6C2.41582 17.6 1.92426 17.1084 1.92426 16.5V11.1788C1.64582 11.495 1.19895 11.6325 0.772695 11.5019C0.191758 11.3197 -0.131367 10.7044 0.0508205 10.1234L1.11301 6.71688C1.5427 5.33844 2.81801 4.4 4.26176 4.4H4.53676C5.98051 4.4 7.25582 5.33844 7.68551 6.71688L8.7477 10.1234C8.92988 10.7044 8.60676 11.3197 8.02582 11.5019C7.59957 11.6359 7.1527 11.495 6.87426 11.1788V16.5C6.87426 17.1084 6.3827 17.6 5.77426 17.6C5.16582 17.6 4.67426 17.1084 4.67426 16.5V12.1H4.12426ZM10.9993 0C11.4564 0 11.8243 0.367813 11.8243 0.825V16.775C11.8243 17.2322 11.4564 17.6 10.9993 17.6C10.5421 17.6 10.1743 17.2322 10.1743 16.775V0.825C10.1743 0.367813 10.5421 0 10.9993 0ZM15.9493 1.65C15.9493 1.21239 16.1231 0.792709 16.4325 0.483274C16.742 0.173839 17.1617 0 17.5993 0C18.0369 0 18.4565 0.173839 18.766 0.483274C19.0754 0.792709 19.2493 1.21239 19.2493 1.65C19.2493 2.08761 19.0754 2.50729 18.766 2.81673C18.4565 3.12616 18.0369 3.3 17.5993 3.3C17.1617 3.3 16.742 3.12616 16.4325 2.81673C16.1231 2.50729 15.9493 2.08761 15.9493 1.65ZM15.1243 16.5V13.2H14.5124C14.1377 13.2 13.873 12.8322 13.9899 12.4747L14.2993 11.55C14.1893 11.55 14.0793 11.5328 13.9727 11.4984C13.3918 11.3162 13.0686 10.7009 13.2508 10.12L14.2718 6.8475C14.7255 5.39344 16.073 4.4 17.5993 4.4C19.1255 4.4 20.473 5.39344 20.9268 6.8475L21.9477 10.12C22.1299 10.7009 21.8068 11.3162 21.2258 11.4984C21.1158 11.5328 21.0058 11.55 20.8993 11.55L21.2086 12.4747C21.3289 12.8322 21.0608 13.2 20.6861 13.2H20.0743V16.5C20.0743 17.1084 19.5827 17.6 18.9743 17.6C18.3658 17.6 17.8743 17.1084 17.8743 16.5V13.2H17.3243V16.5C17.3243 17.1084 16.8327 17.6 16.2243 17.6C15.6158 17.6 15.1243 17.1084 15.1243 16.5Z" fill="#80889B"/>
</svg>
