<svg width="13" height="17" viewBox="0 0 13 17" fill="none" xmlns="http://www.w3.org/2000/svg">
<path d="M1.06234 0C0.766828 0 0.484601 0.122852 0.285382 0.338672C0.0861635 0.554492 -0.0200865 0.843359 0.00315567 1.13887L0.959406 14.533C1.05902 15.9242 2.21448 17 3.60901 17H9.14066C10.5352 17 11.6907 15.9242 11.7903 14.533L12.7465 1.13887C12.7664 0.843359 12.6668 0.554492 12.4643 0.338672C12.2617 0.122852 11.9828 0 11.6873 0H1.06234ZM2.75569 9.87793L2.20452 2.125H10.5451L9.99398 9.87793L9.56234 10.0938C8.89495 10.4291 8.10472 10.4291 7.43734 10.0938C6.76995 9.7584 5.97972 9.7584 5.31234 10.0938C4.64495 10.4291 3.85472 10.4291 3.18734 10.0938L2.75569 9.87793ZM8.49984 6.50781C8.49984 5.71094 7.38089 4.18027 6.76663 3.40332C6.56409 3.14766 6.18558 3.14766 5.98304 3.40332C5.36878 4.18027 4.24984 5.71094 4.24984 6.50781C4.24984 7.60684 5.20276 8.5 6.37484 8.5C7.54691 8.5 8.49984 7.60684 8.49984 6.50781Z" fill="#80889B"/>
</svg>
