<svg width="20" height="19" viewBox="0 0 20 19" fill="none" xmlns="http://www.w3.org/2000/svg">
<path d="M19.3823 3.78437L17.2932 0.477604C17.1073 0.182292 16.7755 0 16.4219 0H3.41356C3.05991 0 2.72814 0.182292 2.5422 0.477604L0.449496 3.78437C-0.629671 5.49062 0.325538 7.86406 2.34168 8.1375C2.48752 8.15573 2.637 8.16667 2.78283 8.16667C3.73439 8.16667 4.58023 7.75104 5.15991 7.10937C5.7396 7.75104 6.58543 8.16667 7.537 8.16667C8.48856 8.16667 9.33439 7.75104 9.91408 7.10937C10.4938 7.75104 11.3396 8.16667 12.2912 8.16667C13.2464 8.16667 14.0886 7.75104 14.6682 7.10937C15.2516 7.75104 16.0938 8.16667 17.0453 8.16667C17.1948 8.16667 17.3406 8.15573 17.4865 8.1375C19.5099 7.86771 20.4688 5.49427 19.386 3.78437H19.3823ZM17.636 9.29323H17.6323C17.4391 9.31875 17.2422 9.33333 17.0417 9.33333C16.5896 9.33333 16.1557 9.26406 15.7511 9.1401V14H4.08439V9.13646C3.67606 9.26406 3.23856 9.33333 2.78648 9.33333C2.58595 9.33333 2.38543 9.31875 2.1922 9.29323H2.18856C2.03908 9.27135 1.89325 9.24583 1.75106 9.20938V14V16.3333C1.75106 17.6203 2.79741 18.6667 4.08439 18.6667H15.7511C17.038 18.6667 18.0844 17.6203 18.0844 16.3333V14V9.20938C17.9386 9.24583 17.7927 9.275 17.636 9.29323Z" fill="#80889B"/>
</svg>
