<svg width="20" height="20" viewBox="0 0 20 20" fill="none" xmlns="http://www.w3.org/2000/svg">
<path d="M2.85714 0.375C1.28125 0.375 0 1.6082 0 3.125V16.875C0 18.3918 1.28125 19.625 2.85714 19.625H17.1429C18.7188 19.625 20 18.3918 20 16.875V3.125C20 1.6082 18.7188 0.375 17.1429 0.375H2.85714ZM8.57143 10H10.7143C11.5045 10 12.1429 9.38555 12.1429 8.625C12.1429 7.86445 11.5045 7.25 10.7143 7.25H8.57143V10ZM10.7143 12.75H8.57143V14.125C8.57143 14.8855 7.93304 15.5 7.14286 15.5C6.35268 15.5 5.71429 14.8855 5.71429 14.125V11.375V6.21875C5.71429 5.26914 6.51339 4.5 7.5 4.5H10.7143C13.0804 4.5 15 6.34766 15 8.625C15 10.9023 13.0804 12.75 10.7143 12.75Z" fill="#80889B"/>
</svg>
