<svg width="21" height="15" viewBox="0 0 21 15" fill="none" xmlns="http://www.w3.org/2000/svg">
<path d="M0 10.1786C0 12.8404 2.11641 15 4.725 15H16.8C19.1198 15 21 13.0815 21 10.7143C21 8.64174 19.5562 6.91071 17.64 6.51562C17.7745 6.15737 17.85 5.76562 17.85 5.35714C17.85 3.58259 16.4391 2.14286 14.7 2.14286C14.0536 2.14286 13.4498 2.34375 12.9511 2.68527C12.0422 1.07812 10.3458 0 8.4 0C5.49937 0 3.15 2.39732 3.15 5.35714C3.15 5.44754 3.15328 5.53795 3.15656 5.62835C1.31906 6.28795 0 8.07589 0 10.1786Z" fill="black"/>
</svg>
