<svg width="26" height="21" viewBox="0 0 26 21" fill="none" xmlns="http://www.w3.org/2000/svg">
<path d="M6.5 0.984375C6.5 0.438867 6.93469 0 7.475 0H12.025C12.5653 0 13 0.438867 13 0.984375C13 1.52988 12.5653 1.96875 12.025 1.96875H11.375L15.6 7.875H20.3287C20.6416 7.875 20.9503 7.93242 21.2428 8.04316L25.3906 9.61406C25.7562 9.75352 26 10.1062 26 10.5C26 10.8938 25.7562 11.2465 25.3906 11.3859L21.2428 12.9568C20.9503 13.0676 20.6416 13.125 20.3287 13.125H15.6L11.375 19.0312H12.025C12.5653 19.0312 13 19.4701 13 20.0156C13 20.5611 12.5653 21 12.025 21H7.475C6.93469 21 6.5 20.5611 6.5 20.0156C6.5 19.4701 6.93469 19.0312 7.475 19.0312H7.8V13.125H6.5L4.28188 15.3645C4.03813 15.6105 3.70906 15.75 3.36375 15.75H2.6C1.88094 15.75 1.3 15.1635 1.3 14.4375V11.8125C0.580937 11.8125 0 11.226 0 10.5C0 9.77402 0.580937 9.1875 1.3 9.1875V6.5625C1.3 5.83652 1.88094 5.25 2.6 5.25H3.35969C3.705 5.25 4.03406 5.38945 4.27781 5.63555L6.5 7.875H7.8V1.96875H7.475C6.93469 1.96875 6.5 1.52988 6.5 0.984375ZM3.25 9.84375C2.8925 9.84375 2.6 10.1391 2.6 10.5C2.6 10.8609 2.8925 11.1562 3.25 11.1562H5.85C6.2075 11.1562 6.5 10.8609 6.5 10.5C6.5 10.1391 6.2075 9.84375 5.85 9.84375H3.25Z" fill="#3876C0"/>
</svg>
