<svg width="46" height="46" viewBox="0 0 46 46" fill="none" xmlns="http://www.w3.org/2000/svg">
<g clip-path="url(#clip0_789_1977)">
<path d="M33.0983 1.64365L28.094 6.65693L39.3424 17.9054L44.3467 12.9011C46.3143 10.9335 46.3143 7.75303 44.3467 5.78545L40.2139 1.64365C38.2464 -0.323926 35.0659 -0.323926 33.0983 1.64365ZM25.8749 8.49873L25.0483 8.75029L12.1018 12.6315C10.3139 13.1706 8.8944 14.5362 8.30143 16.3151L0.341279 40.0519C-0.000127599 41.0671 0.251435 42.1991 0.997138 42.9628L14.7971 29.1718C14.5276 28.6058 14.3749 27.9769 14.3749 27.312C14.3749 24.9312 16.3065 22.9995 18.6874 22.9995C21.0682 22.9995 22.9999 24.9312 22.9999 27.312C22.9999 29.6929 21.0682 31.6245 18.6874 31.6245C18.0225 31.6245 17.3936 31.4718 16.8276 31.2022L3.02761 45.0022C3.80026 45.7479 4.92331 46.0085 5.93854 45.6581L29.6842 37.6979C31.4542 37.105 32.8288 35.6854 33.3678 33.8976L37.2491 20.9511L37.5007 20.1245L25.8749 8.49873Z" fill="#3876c0"/>
</g>
<defs>
<clipPath id="clip0_789_1977">
<rect width="46" height="46" fill="white"/>
</clipPath>
</defs>
</svg>
