<svg width="46" height="41" viewBox="0 0 46 41" fill="none" xmlns="http://www.w3.org/2000/svg">
<g clip-path="url(#clip0_705_123)">
<path d="M20.2288 2.8106C20.716 1.86568 20.3486 0.704543 19.4142 0.216067C18.4799 -0.27241 17.3139 0.0959497 16.8267 1.03286L9.39167 15.3749H2.55556C1.14201 15.3749 0 16.52 0 17.9374C0 19.3547 1.14201 20.4999 2.55556 20.4999L6.70035 37.1161C7.26736 39.3983 9.31181 40.9999 11.6597 40.9999H34.3403C36.6882 40.9999 38.7326 39.3983 39.2997 37.1161L43.4444 20.4999C44.858 20.4999 46 19.3547 46 17.9374C46 16.52 44.858 15.3749 43.4444 15.3749H36.6083L29.1733 1.03286C28.6861 0.0959497 27.5281 -0.27241 26.5858 0.216067C25.6434 0.704543 25.284 1.86568 25.7712 2.8106L32.2878 15.3749H13.7122L20.2288 2.8106ZM15.3333 24.3436V32.0311C15.3333 32.7358 14.7583 33.3124 14.0556 33.3124C13.3528 33.3124 12.7778 32.7358 12.7778 32.0311V24.3436C12.7778 23.6389 13.3528 23.0624 14.0556 23.0624C14.7583 23.0624 15.3333 23.6389 15.3333 24.3436ZM23 23.0624C23.7028 23.0624 24.2778 23.6389 24.2778 24.3436V32.0311C24.2778 32.7358 23.7028 33.3124 23 33.3124C22.2972 33.3124 21.7222 32.7358 21.7222 32.0311V24.3436C21.7222 23.6389 22.2972 23.0624 23 23.0624ZM33.2222 24.3436V32.0311C33.2222 32.7358 32.6472 33.3124 31.9444 33.3124C31.2417 33.3124 30.6667 32.7358 30.6667 32.0311V24.3436C30.6667 23.6389 31.2417 23.0624 31.9444 23.0624C32.6472 23.0624 33.2222 23.6389 33.2222 24.3436Z" fill="#730EF4"/>
</g>
<defs>
<clipPath id="clip0_705_123">
<rect width="46" height="41" fill="white"/>
</clipPath>
</defs>
</svg>
