<svg width="46" height="36" viewBox="0 0 46 36" fill="none" xmlns="http://www.w3.org/2000/svg">
<path d="M22.996 0C16.5438 0 11.3772 2.91265 7.61609 6.37933C3.87892 9.81436 1.37948 13.9301 0.197639 16.7556C-0.0658797 17.3809 -0.0658797 18.0774 0.197639 18.7027C1.37948 21.5283 3.87892 25.644 7.61609 29.079C11.3772 32.5457 16.5438 35.4583 22.996 35.4583C29.4482 35.4583 34.6148 32.5457 38.3759 29.079C42.1131 25.6361 44.6125 21.5283 45.8024 18.7027C46.0659 18.0774 46.0659 17.3809 45.8024 16.7556C44.6125 13.9301 42.1131 9.81436 38.3759 6.37933C34.6148 2.91265 29.4482 0 22.996 0ZM11.497 17.7292C11.497 14.7064 12.7085 11.8075 14.865 9.67004C17.0215 7.53263 19.9463 6.33184 22.996 6.33184C26.0457 6.33184 28.9705 7.53263 31.127 9.67004C33.2835 11.8075 34.495 14.7064 34.495 17.7292C34.495 20.7519 33.2835 23.6509 31.127 25.7883C28.9705 27.9257 26.0457 29.1265 22.996 29.1265C19.9463 29.1265 17.0215 27.9257 14.865 25.7883C12.7085 23.6509 11.497 20.7519 11.497 17.7292ZM22.996 12.6637C22.996 15.4576 20.7042 17.7292 17.8853 17.7292C17.3184 17.7292 16.7754 17.6342 16.2643 17.468C15.8251 17.3255 15.314 17.5946 15.33 18.0537C15.354 18.5998 15.4338 19.1459 15.5855 19.692C16.6795 23.7444 20.8879 26.1505 24.9764 25.0662C29.0649 23.9819 31.4925 19.8108 30.3985 15.7584C29.5121 12.4737 26.5815 10.2655 23.3234 10.131C22.8603 10.1151 22.5888 10.6138 22.7325 11.057C22.9002 11.5635 22.996 12.1017 22.996 12.6637Z" fill="#3876c0"/>
</svg>
