<svg width="13" height="13" viewBox="0 0 13 13" fill="none" xmlns="http://www.w3.org/2000/svg">
<path d="M12.1357 2.13574C12.624 1.64746 12.624 0.854492 12.1357 0.366211C11.6475 -0.12207 10.8545 -0.12207 10.3662 0.366211L6.25293 4.4834L2.13574 0.370117C1.64746 -0.118164 0.854492 -0.118164 0.366211 0.370117C-0.12207 0.858398 -0.12207 1.65137 0.366211 2.13965L4.4834 6.25293L0.370117 10.3701C-0.118164 10.8584 -0.118164 11.6514 0.370117 12.1397C0.858399 12.6279 1.65137 12.6279 2.13965 12.1397L6.25293 8.02246L10.3701 12.1357C10.8584 12.624 11.6514 12.624 12.1396 12.1357C12.6279 11.6475 12.6279 10.8545 12.1396 10.3662L8.02246 6.25293L12.1357 2.13574Z" fill="#FD3D3D"/>
</svg>
