<svg width="23" height="23" viewBox="0 0 23 23" fill="none" xmlns="http://www.w3.org/2000/svg">
<path d="M22.2763 7.48398C22.4201 7.8748 22.2988 8.31055 21.9888 8.58906L20.0437 10.359C20.0931 10.7318 20.1201 11.1137 20.1201 11.5C20.1201 11.8863 20.0931 12.2682 20.0437 12.641L21.9888 14.4109C22.2988 14.6895 22.4201 15.1252 22.2763 15.516C22.0786 16.0506 21.8406 16.5627 21.5665 17.0568L21.3554 17.4207C21.0589 17.9148 20.7265 18.382 20.3626 18.8223C20.0976 19.1457 19.6574 19.2535 19.262 19.1277L16.7599 18.3326C16.1579 18.7953 15.4931 19.1816 14.7833 19.4736L14.2218 22.0387C14.132 22.4475 13.8175 22.7709 13.4042 22.8383C12.7843 22.9416 12.1464 22.9955 11.4951 22.9955C10.8437 22.9955 10.2058 22.9416 9.58588 22.8383C9.17259 22.7709 8.85814 22.4475 8.7683 22.0387L8.20677 19.4736C7.49701 19.1816 6.83216 18.7953 6.23021 18.3326L3.73256 19.1322C3.33724 19.258 2.89701 19.1457 2.63197 18.8268C2.2681 18.3865 1.93568 17.9193 1.6392 17.4252L1.42806 17.0613C1.15404 16.5672 0.915954 16.0551 0.718298 15.5205C0.574548 15.1297 0.695837 14.6939 1.0058 14.4154L2.95091 12.6455C2.9015 12.2682 2.87455 11.8863 2.87455 11.5C2.87455 11.1137 2.9015 10.7318 2.95091 10.359L1.0058 8.58906C0.695837 8.31055 0.574548 7.8748 0.718298 7.48398C0.915954 6.94941 1.15404 6.4373 1.42806 5.94316L1.6392 5.5793C1.93568 5.08516 2.2681 4.61797 2.63197 4.17773C2.89701 3.8543 3.33724 3.74648 3.73256 3.87227L6.2347 4.66738C6.83666 4.20469 7.5015 3.81836 8.21127 3.52637L8.77279 0.961328C8.86263 0.552539 9.17709 0.229102 9.59037 0.161719C10.2103 0.0539062 10.8482 0 11.4995 0C12.1509 0 12.7888 0.0539063 13.4087 0.157227C13.822 0.224609 14.1365 0.548047 14.2263 0.956836L14.7878 3.52188C15.4976 3.81387 16.1624 4.2002 16.7644 4.66289L19.2665 3.86777C19.6619 3.74199 20.1021 3.8543 20.3671 4.17324C20.731 4.61348 21.0634 5.08066 21.3599 5.5748L21.571 5.93867C21.8451 6.43281 22.0831 6.94492 22.2808 7.47949L22.2763 7.48398ZM11.4995 15.0938C12.4527 15.0938 13.3668 14.7151 14.0407 14.0412C14.7147 13.3672 15.0933 12.4531 15.0933 11.5C15.0933 10.5469 14.7147 9.63279 14.0407 8.95883C13.3668 8.28488 12.4527 7.90625 11.4995 7.90625C10.5464 7.90625 9.63234 8.28488 8.95838 8.95883C8.28442 9.63279 7.9058 10.5469 7.9058 11.5C7.9058 12.4531 8.28442 13.3672 8.95838 14.0412C9.63234 14.7151 10.5464 15.0938 11.4995 15.0938Z" fill="#730EF4"/>
</svg>
