<svg width="20" height="20" viewBox="0 0 20 20" fill="none" xmlns="http://www.w3.org/2000/svg">
<circle cx="10" cy="10" r="8.5" stroke="white" stroke-width="3"/>
<mask id="path-2-inside-1_1_5207" fill="white">
<path d="M20 10C20 11.3132 19.7413 12.6136 19.2388 13.8268C18.7362 15.0401 17.9997 16.1425 17.0711 17.0711C16.1425 17.9997 15.0401 18.7362 13.8268 19.2388C12.6136 19.7413 11.3132 20 10 20V16.9507C10.9128 16.9507 11.8166 16.7709 12.6599 16.4216C13.5032 16.0723 14.2695 15.5603 14.9149 14.9149C15.5603 14.2695 16.0723 13.5032 16.4216 12.6599C16.7709 11.8166 16.9507 10.9128 16.9507 10H20Z"/>
</mask>
<path d="M20 10C20 11.3132 19.7413 12.6136 19.2388 13.8268C18.7362 15.0401 17.9997 16.1425 17.0711 17.0711C16.1425 17.9997 15.0401 18.7362 13.8268 19.2388C12.6136 19.7413 11.3132 20 10 20V16.9507C10.9128 16.9507 11.8166 16.7709 12.6599 16.4216C13.5032 16.0723 14.2695 15.5603 14.9149 14.9149C15.5603 14.2695 16.0723 13.5032 16.4216 12.6599C16.7709 11.8166 16.9507 10.9128 16.9507 10H20Z" stroke="#5A93D7" stroke-width="6" mask="url(#path-2-inside-1_1_5207)"/>
</svg>
