<svg width="20" height="12" viewBox="0 0 20 12" fill="none" xmlns="http://www.w3.org/2000/svg">
<path d="M0 2C0 0.896875 0.896875 0 2 0H8H9.5H10H18C19.1031 0 20 0.896875 20 2V10C20 11.1031 19.1031 12 18 12H10H9.5H8H2C0.896875 12 0 11.1031 0 10V2ZM10 2V10H18V2H10ZM5.57188 3.49687C5.47188 3.27187 5.24687 3.125 5 3.125C4.75313 3.125 4.52812 3.27187 4.42812 3.49687L2.42812 7.99687C2.2875 8.3125 2.43125 8.68125 2.74688 8.82187C3.0625 8.9625 3.43125 8.81875 3.57188 8.50313L3.85 7.875H6.15L6.42812 8.50313C6.56875 8.81875 6.9375 8.95937 7.25313 8.82187C7.56875 8.68437 7.70937 8.3125 7.57188 7.99687L5.57188 3.49687ZM5 5.2875L5.59375 6.625H4.40625L5 5.2875ZM14 3.125C14.3438 3.125 14.625 3.40625 14.625 3.75V3.875H16H16.5C16.8438 3.875 17.125 4.15625 17.125 4.5C17.125 4.84375 16.8438 5.125 16.5 5.125H16.4375L16.3875 5.26562C16.1094 6.02812 15.6875 6.72187 15.15 7.30937C15.1781 7.32812 15.2063 7.34375 15.2344 7.35938L15.825 7.7125C16.1219 7.89062 16.2156 8.275 16.0406 8.56875C15.8656 8.8625 15.4781 8.95938 15.1844 8.78438L14.5938 8.43125C14.4531 8.34687 14.3187 8.25937 14.1844 8.16562C13.8531 8.4 13.5 8.60313 13.1219 8.77188L13.0094 8.82187C12.6937 8.9625 12.325 8.81875 12.1844 8.50313C12.0437 8.1875 12.1875 7.81875 12.5031 7.67813L12.6156 7.62813C12.8156 7.5375 13.0094 7.4375 13.1938 7.32187L12.8125 6.94063C12.5688 6.69688 12.5688 6.3 12.8125 6.05625C13.0562 5.8125 13.4531 5.8125 13.6969 6.05625L14.1531 6.5125L14.1687 6.52812C14.5562 6.11875 14.8719 5.64375 15.1 5.12187H14H11.75C11.4062 5.12187 11.125 4.84062 11.125 4.49687C11.125 4.15312 11.4062 3.87187 11.75 3.87187H13.375V3.74687C13.375 3.40312 13.6562 3.12187 14 3.12187V3.125Z" fill="black" fill-opacity="0.6"/>
</svg>
