<svg width="15" height="15" viewBox="0 0 15 15" fill="none" xmlns="http://www.w3.org/2000/svg">
<g clip-path="url(#clip0_67_1386)">
<path d="M14.5285 4.88086C14.6222 5.13574 14.5431 5.41992 14.341 5.60156L13.0724 6.75586C13.1046 6.99902 13.1222 7.24805 13.1222 7.5C13.1222 7.75195 13.1046 8.00098 13.0724 8.24414L14.341 9.39844C14.5431 9.58008 14.6222 9.86426 14.5285 10.1191C14.3995 10.4678 14.2443 10.8018 14.0656 11.124L13.9279 11.3613C13.7345 11.6836 13.5177 11.9883 13.2804 12.2754C13.1076 12.4863 12.8204 12.5566 12.5626 12.4746L10.9308 11.9561C10.5382 12.2578 10.1046 12.5098 9.64173 12.7002L9.27552 14.373C9.21693 14.6396 9.01185 14.8506 8.74232 14.8945C8.33802 14.9619 7.922 14.9971 7.4972 14.9971C7.0724 14.9971 6.65638 14.9619 6.25208 14.8945C5.98255 14.8506 5.77747 14.6396 5.71888 14.373L5.35267 12.7002C4.88978 12.5098 4.45618 12.2578 4.06361 11.9561L2.4347 12.4775C2.17689 12.5596 1.88978 12.4863 1.71693 12.2783C1.47962 11.9912 1.26282 11.6865 1.06947 11.3643L0.93177 11.127C0.753059 10.8047 0.597786 10.4707 0.46888 10.1221C0.37513 9.86719 0.454231 9.58301 0.65638 9.40137L1.92493 8.24707C1.89271 8.00098 1.87513 7.75195 1.87513 7.5C1.87513 7.24805 1.89271 6.99902 1.92493 6.75586L0.65638 5.60156C0.454231 5.41992 0.37513 5.13574 0.46888 4.88086C0.597786 4.53223 0.753059 4.19824 0.93177 3.87598L1.06947 3.63867C1.26282 3.31641 1.47962 3.01172 1.71693 2.72461C1.88978 2.51367 2.17689 2.44336 2.4347 2.52539L4.06654 3.04395C4.45911 2.74219 4.89271 2.49023 5.3556 2.2998L5.72181 0.626953C5.7804 0.360352 5.98548 0.149414 6.25501 0.105469C6.65931 0.0351562 7.07533 0 7.50013 0C7.92493 0 8.34095 0.0351562 8.74525 0.102539C9.01478 0.146484 9.21986 0.357422 9.27845 0.624023L9.64466 2.29688C10.1076 2.4873 10.5411 2.73926 10.9337 3.04102L12.5656 2.52246C12.8234 2.44043 13.1105 2.51367 13.2833 2.72168C13.5206 3.00879 13.7374 3.31348 13.9308 3.63574L14.0685 3.87305C14.2472 4.19531 14.4025 4.5293 14.5314 4.87793L14.5285 4.88086ZM7.50013 9.84375C8.12173 9.84375 8.71787 9.59682 9.15741 9.15728C9.59695 8.71774 9.84388 8.1216 9.84388 7.5C9.84388 6.8784 9.59695 6.28226 9.15741 5.84272C8.71787 5.40318 8.12173 5.15625 7.50013 5.15625C6.87853 5.15625 6.28239 5.40318 5.84285 5.84272C5.40331 6.28226 5.15638 6.8784 5.15638 7.5C5.15638 8.1216 5.40331 8.71774 5.84285 9.15728C6.28239 9.59682 6.87853 9.84375 7.50013 9.84375Z" fill="white"/>
</g>
<defs>
<clipPath id="clip0_67_1386">
<rect width="15" height="15" fill="white"/>
</clipPath>
</defs>
</svg>
